<svg width="291" height="165" viewBox="0 0 291 165" fill="none" xmlns="http://www.w3.org/2000/svg">
<path d="M141.591 120.896C139.039 117.557 136.013 116.338 132.415 116.338C124.295 116.338 117.711 126.584 117.711 139.232C117.711 151.88 124.295 162.126 132.415 162.126C139.085 162.126 144.71 155.219 146.516 145.75" fill="#346184"/>
<path d="M141.591 120.896C139.039 117.557 136.013 116.338 132.415 116.338C124.295 116.338 117.711 126.584 117.711 139.232C117.711 151.88 124.295 162.126 132.415 162.126C139.085 162.126 144.71 155.219 146.516 145.75C146.516 145.75 144.598 128.975 141.591 120.896Z" stroke="#819DB2" stroke-width="1.55556" stroke-linecap="round" stroke-linejoin="round"/>
<path d="M61.6889 111.122C59.1362 107.783 56.1109 106.564 52.513 106.564C44.3926 106.564 37.8082 116.811 37.8082 129.458C37.8082 142.106 44.3926 152.352 52.513 152.352C59.1827 152.352 64.8072 145.445 66.6133 135.977" fill="#346184"/>
<path d="M61.6889 111.122C59.1362 107.783 56.1109 106.564 52.513 106.564C44.3926 106.564 37.8082 116.811 37.8082 129.458C37.8082 142.106 44.3926 152.352 52.513 152.352C59.1827 152.352 64.8072 145.445 66.6133 135.977C66.6133 135.977 64.696 119.202 61.6889 111.122Z" stroke="#819DB2" stroke-width="1.55556" stroke-linecap="round" stroke-linejoin="round"/>
<path d="M157.406 156.488C157.406 156.488 150.543 131.308 141.079 123.876C131.378 116.256 119.063 126.561 118.538 141.658C118.538 153.561 123.757 163.281 133.461 164C133.844 164.026 146.287 164 146.67 164C152.187 164 157.406 156.488 157.406 156.488Z" fill="#346184" stroke="#819DB2" stroke-width="1.55556" stroke-linecap="round" stroke-linejoin="round"/>
<path d="M139.756 122.861C137.926 121.773 135.914 121.164 133.798 121.164C125.366 121.164 118.537 130.755 118.537 142.58C118.537 154.405 125.372 163.996 133.798 163.996C139.536 163.996 144.534 159.553 147.137 152.987" fill="#CBD8E0"/>
<path d="M139.756 122.861C137.926 121.773 135.914 121.164 133.798 121.164C125.366 121.164 118.537 130.755 118.537 142.58C118.537 154.405 125.372 163.996 133.798 163.996C139.536 163.996 144.534 159.553 147.137 152.987" stroke="#819DB2" stroke-width="1.55556" stroke-linecap="round" stroke-linejoin="round"/>
<path d="M141.702 126.76C139.358 123.924 136.581 122.889 133.278 122.889C125.823 122.889 119.778 131.591 119.778 142.333C119.778 153.075 125.823 161.778 133.278 161.778C139.401 161.778 144.565 155.911 146.223 147.869" fill="white"/>
<path d="M141.702 126.76C139.358 123.924 136.581 122.889 133.278 122.889C125.823 122.889 119.778 131.591 119.778 142.333C119.778 153.075 125.823 161.778 133.278 161.778C139.401 161.778 144.565 155.911 146.223 147.869C146.223 147.869 144.463 133.622 141.702 126.76Z" stroke="#819DB2" stroke-width="0.777778" stroke-linecap="round" stroke-linejoin="round"/>
<path d="M69.6445 149.066C67.6648 153.159 64.8087 155.762 61.6216 155.866L49.2951 155.872C43.7518 155.872 39.2535 146.709 39.2535 135.402C39.2535 124.095 43.7518 114.932 49.2951 114.932C49.9118 114.932 52.7631 115.476 53.3473 115.696" fill="#346184"/>
<path d="M69.6445 149.066C67.6648 153.159 64.8087 155.762 61.6216 155.866L49.2951 155.872C43.7518 155.872 39.2535 146.709 39.2535 135.402C39.2535 124.095 43.7518 114.932 49.2951 114.932C49.9118 114.932 52.7631 115.476 53.3473 115.696L62.2048 122.687L69.6445 149.066Z" stroke="#819DB2" stroke-width="1.55556" stroke-linecap="round" stroke-linejoin="round"/>
<path d="M47.9021 154.528C43.1235 154.528 39.2496 145.98 39.2496 135.437C39.2496 124.893 43.1235 116.346 47.9021 116.346C52.6808 116.346 56.5547 124.893 56.5547 135.437C56.5547 145.98 52.6808 154.528 47.9021 154.528Z" fill="white" stroke="#819DB2" stroke-width="1.55556" stroke-linecap="round" stroke-linejoin="round"/>
<path d="M245.293 150.723C242.513 157.301 239.155 160.982 234.443 161.52V161.586H226.946V161.564C222.586 161.356 218.658 157.885 215.806 152.383" fill="#346184"/>
<path d="M245.293 150.723C242.513 157.301 239.155 160.982 234.443 161.52V161.586H226.946V161.564C222.586 161.356 218.658 157.885 215.806 152.383" stroke="#819DB2" stroke-width="1.55556" stroke-linecap="round" stroke-linejoin="round"/>
<path d="M176.303 150.442L173.199 156.649L245.364 154.322L253.899 152.77V147.338L176.303 150.442Z" fill="#346184" stroke="#819DB2" stroke-width="1.55556"/>
<path d="M120.401 153.451C117.491 145.161 119.412 132.547 119.711 130.799C121.723 118.967 128.954 116.96 131.791 117.556C134.627 118.152 141.41 120.457 144.091 134.069C146.778 147.682 146.778 153.484 147.966 156.236C147.966 156.236 165.291 156.806 173.703 156.56C173.703 156.56 178.539 153.536 180.577 153.089C182.615 152.642 219.251 151.852 226.709 151.477C233.901 151.12 248.545 150.829 252.686 150.039C252.926 149.994 253.166 150.142 253.238 150.376C253.4 150.939 253.666 151.949 253.666 152.739C253.666 152.739 255.231 149.352 254.971 147.869C254.711 146.38 254.757 146.335 254.198 145.454C254.198 145.454 255.789 126.557 250.025 118.424C244.261 110.29 237.646 107.117 227.851 107.609C227.851 107.609 219.004 105.97 213.337 105.426C213.337 105.426 194.643 89.5799 185.919 85.785C177.195 81.9901 157.411 78.8881 140.112 79.3868C122.814 79.8854 105.612 81.5692 97.161 84.1466C88.7097 86.724 72.203 92.4811 56.3 102.797C56.3 102.797 51.0812 102.998 48.5951 104.034C46.1091 105.07 43.1751 106.514 42.5779 107.155C41.9807 107.797 38.8716 112.038 37.6058 123.572C36.3401 135.105 39.9166 142.766 39.9166 142.766L39.4752 139.736C39.4752 139.736 36.8593 132.165 38.3133 124.951C39.7673 117.737 42.3378 113.385 46.518 113.12C50.6917 112.861 55.5016 118.663 57.4424 132.204C59.3832 145.745 59.9285 148.025 59.9285 148.025L120.401 153.451Z" fill="white" stroke="#819DB2" stroke-width="1.55556" stroke-linecap="round" stroke-linejoin="round"/>
<path d="M155.926 121.998C156.192 122.885 157.672 127.8 158.314 129.937C158.496 130.546 158.613 130.928 158.613 130.928C158.613 130.928 184.661 132.165 186.453 131.77C188.244 131.375 195.105 125.521 195.105 125.521C195.105 125.521 194.534 125.45 193.535 125.333C187.083 124.549 162.858 121.622 160.359 121.409C157.477 121.156 155.588 120.858 155.939 122.004L155.926 121.998Z" fill="white" stroke="#819DB2" stroke-width="1.55556" stroke-linecap="round" stroke-linejoin="round"/>
<path d="M155.925 121.998C156.191 122.885 157.671 127.8 158.314 129.937C162.202 130.151 183.992 131.317 185.621 130.954C187.049 130.637 191.697 126.855 193.527 125.333C187.075 124.549 162.851 121.622 160.352 121.409C157.47 121.156 155.581 120.858 155.931 122.004L155.925 121.998Z" fill="#CBD8E0" stroke="#819DB2" stroke-width="1.55556" stroke-linecap="round" stroke-linejoin="round"/>
<path d="M158.668 127.828C160.271 128.236 161.696 128.45 161.897 128.301C162.066 128.178 160.612 124.648 160.151 123.528C160.086 123.373 160.209 123.211 160.378 123.23L166.291 123.871C166.674 123.91 167.025 124.117 167.246 124.428L169.297 127.271C169.874 128.074 170.764 128.612 171.744 128.748L172.088 128.799L169.998 124.279L190.633 126.52C190.633 126.52 185.823 130.14 184.298 130.256C182.772 130.367 159.446 128.799 159.446 128.799L158.668 128.333V127.828Z" fill="#EFF2F8" stroke="#819DB2" stroke-width="1.55556" stroke-linecap="round" stroke-linejoin="round"/>
<path d="M200.873 127.361L197.563 132.075C197.258 132.509 197.16 133.053 197.297 133.558L200.997 147.443C201.419 149.016 202.847 150.111 204.476 150.104C209.467 150.091 219.918 150.033 224.773 149.813C230.174 149.567 238.956 149.113 243.441 148.628C244.701 148.492 245.707 147.514 245.876 146.258L247.258 132.483C247.349 131.551 247.031 130.625 246.375 129.945L243.247 126.713C242.559 126.001 241.611 125.593 240.618 125.586C237.015 125.554 228.09 125.483 223.975 125.599C219.243 125.735 205.579 126.338 202.035 126.668C201.568 126.713 201.146 126.959 200.873 127.348V127.361Z" fill="#CBD8E0" stroke="#819DB2" stroke-width="1.55556" stroke-linecap="round" stroke-linejoin="round"/>
<path d="M195.093 125.523L202.305 126.67" stroke="#819DB2" stroke-width="1.55556" stroke-linecap="round" stroke-linejoin="round"/>
<path d="M250.531 119.312C250.531 119.312 248.207 122.842 241.82 125.821" stroke="#819DB2" stroke-width="1.55556" stroke-linecap="round" stroke-linejoin="round"/>
<path d="M253.061 128.379L249.053 130.063C249.053 130.063 248.496 142.412 248.295 145.903C248.256 146.57 248.859 147.088 249.515 146.958C250.787 146.699 252.65 146.162 253.442 145.158C254.377 143.966 253.061 128.379 253.061 128.379Z" fill="#EFF2F8" stroke="#819DB2" stroke-width="1.55556" stroke-linecap="round" stroke-linejoin="round"/>
<path d="M250.222 121.351C247.951 123.622 243.781 125.926 243.781 125.926C244.613 127.329 247.21 130.192 249.069 129.824C250.342 129.565 252.102 129.236 252.894 128.232C253.829 127.041 251.009 120.564 250.222 121.351Z" fill="white" stroke="#819DB2" stroke-width="1.55556" stroke-linecap="round" stroke-linejoin="round"/>
<path d="M184.917 132.566L188.759 147.584C189.019 148.6 188.22 149.578 187.169 149.533L163.834 148.51C162.834 148.464 161.997 147.752 161.802 146.774L158.608 130.928L183.988 131.821C184.43 131.834 184.806 132.139 184.91 132.566H184.917Z" fill="#EFF2F8" stroke="#819DB2" stroke-width="1.55556" stroke-linecap="round" stroke-linejoin="round"/>
<path d="M180.475 131.695L181.098 131.715C181.727 131.734 182.266 132.175 182.415 132.79L185.83 146.849C186.011 147.6 185.434 148.319 184.661 148.3L175.6 148.047" stroke="#819DB2" stroke-width="1.55556" stroke-linecap="round" stroke-linejoin="round"/>
<path d="M173.581 131.562C173.581 131.562 174.464 132.268 174.86 133.855C175.165 135.066 176.853 142.74 177.638 146.315C177.839 147.241 177.112 148.108 176.165 148.07L162.086 147.487" stroke="#819DB2" stroke-width="1.55556" stroke-linecap="round" stroke-linejoin="round"/>
<path d="M172.323 147.905L173.173 147.937C173.614 147.937 173.939 147.568 173.848 147.134L170.654 131.903C170.596 131.631 170.362 131.43 170.083 131.417L169.2 131.385" stroke="#819DB2" stroke-width="1.55556" stroke-linecap="round" stroke-linejoin="round"/>
<path d="M162.255 131.018C162.255 131.018 163.67 131.95 163.968 133.401C164.215 134.605 165.799 143.613 166.331 146.663C166.422 147.181 166.013 147.648 165.487 147.628L164.488 147.589" stroke="#819DB2" stroke-width="1.55556" stroke-linecap="round" stroke-linejoin="round"/>
<path d="M156.836 125.018L142.192 123.826" stroke="#819DB2" stroke-width="1.55556" stroke-linecap="round" stroke-linejoin="round"/>
<path d="M212.32 105.28C212.32 105.28 193.646 89.8156 186.966 86.8302C180.287 83.8448 164.501 83.5599 156.829 83.7089C149.474 83.8513 131.903 84.2658 124.88 86.0078C124.438 86.1179 124.205 86.6036 124.399 87.018C125.6 89.5825 129.462 98.0335 131.994 105.52C132.189 106.09 132.721 106.465 133.318 106.452C139.679 106.316 174.121 105.584 178.989 105.584C184.357 105.584 209.036 105.287 212.32 105.287V105.28Z" fill="#CBD8E0" stroke="#819DB2" stroke-width="1.55556" stroke-linecap="round" stroke-linejoin="round"/>
<path d="M117.729 104.959C121.11 105.27 124.174 105.613 126.699 105.982C126.699 105.982 121.889 90.5628 118.443 87.5126C114.762 84.2617 106.123 84.2552 96.2758 87.3313C87.8115 89.9735 78.7305 94.5001 76.3548 95.7176C75.9588 95.9183 75.6083 96.1839 75.2967 96.5012L70.3895 101.546C70.1039 101.844 70.2987 102.336 70.7141 102.349C73.4468 102.44 81.1062 102.705 90.1872 103.152C93.7248 103.327 97.3403 103.515 101.099 103.741" fill="#CBD8E0"/>
<path d="M117.729 104.959C121.11 105.27 124.174 105.613 126.699 105.982C126.699 105.982 121.889 90.5628 118.443 87.5126C114.762 84.2617 106.123 84.2552 96.2758 87.3313C87.8115 89.9735 78.7305 94.5001 76.3548 95.7176C75.9588 95.9183 75.6083 96.1839 75.2967 96.5012L70.3895 101.546C70.1039 101.844 70.2987 102.336 70.7141 102.349C73.4468 102.44 81.1062 102.705 90.1872 103.152C93.7248 103.327 97.3403 103.515 101.099 103.741" stroke="#819DB2" stroke-width="1.55556" stroke-linecap="round" stroke-linejoin="round"/>
<path d="M92.0724 85.7949C92.0724 85.7949 89.7292 87.511 88.1843 90.2762C88.1843 90.2762 84.8934 92.9055 82.5761 102.794C82.5761 102.794 80.7066 104.089 78.7723 106.246C76.8315 108.402 75.9812 110.578 75.8319 111.958C75.8319 111.958 73.5535 117.261 74.1118 120.83C74.67 124.398 78.7334 140.095 78.7334 140.095C78.7334 140.095 69.8601 138.606 66.8029 135.485C63.7456 132.363 61.2855 119.567 61.0972 117.261C60.909 114.956 60.578 113.097 62.5123 112.722C64.4466 112.346 97.3367 110.636 115.453 112.126C115.453 112.126 96.0904 113.713 78.7269 115.992" stroke="#819DB2" stroke-width="1.55556" stroke-linecap="round" stroke-linejoin="round"/>
<path d="M74.1602 121.08C74.1602 121.08 64.9364 120.16 63.6447 119.908C62.353 119.662 61.4702 119.254 61.0807 116.877" stroke="#819DB2" stroke-width="1.55556" stroke-linecap="round" stroke-linejoin="round"/>
<path d="M75.8359 111.961C76.881 113.968 78.7374 115.995 78.7374 115.995C78.6985 119.084 79.4449 126.001 79.7825 128.682C80.12 131.363 80.7172 134.769 80.2304 136.33C79.7435 137.89 78.7374 140.099 78.7374 140.099C78.7374 140.099 79.3606 142.78 79.6851 143.745" stroke="#819DB2" stroke-width="1.55556" stroke-linecap="round" stroke-linejoin="round"/>
<path d="M58.6569 140.389C58.6569 140.389 103.374 147.57 119.484 149.947" stroke="#819DB2" stroke-width="1.55556" stroke-linecap="round" stroke-linejoin="round"/>
<path d="M78.7364 140.094C78.7364 140.094 95.5742 143.863 117.352 147.684" stroke="#819DB2" stroke-width="1.55556" stroke-linecap="round" stroke-linejoin="round"/>
<path d="M126.047 105.977C126.047 105.977 123.061 109.15 122.217 109.843C121.373 110.536 121.023 110.71 120.575 111.131C120.127 111.552 117.991 116.811 117.544 121.797C117.096 126.784 116.576 142.144 117.544 149.527" stroke="#819DB2" stroke-width="1.55556" stroke-linecap="round" stroke-linejoin="round"/>
<path d="M85.3124 112.871H81.4372C81.2425 112.871 81.1256 113.091 81.236 113.253L82.2356 114.684C82.3589 114.866 82.5731 114.956 82.7938 114.93L85.2734 114.62C85.4487 114.6 85.5785 114.438 85.5655 114.263L85.4682 113.02C85.4682 112.936 85.3903 112.871 85.3059 112.871H85.3124Z" stroke="#819DB2" stroke-width="1.55556" stroke-linecap="round" stroke-linejoin="round"/>
<path d="M254.98 147.873C254.98 147.873 251.995 149.589 247.899 149.531C247.899 149.531 230.224 150.515 219.637 150.885C209.05 151.254 178.626 152.374 170.798 150.885C162.97 149.395 162.834 149.615 161.893 147.051" stroke="#819DB2" stroke-width="1.55556" stroke-linecap="round" stroke-linejoin="round"/>
<path d="M177.68 152.298C177.68 152.298 160.427 152.816 148.269 151.035C148.269 151.035 145.231 130.273 141.784 122.897C138.279 115.398 131.269 111.94 124.635 117.982C118.001 124.03 117.852 134.236 118.001 139.993C118.15 145.75 118.884 149.863 118.884 149.863" stroke="#819DB2" stroke-width="1.55556" stroke-linecap="round" stroke-linejoin="round"/>
<path d="M117.352 147.683C117.352 147.683 115.612 144.562 110.692 143.221C105.772 141.881 80.4111 134.518 80.4111 134.518" stroke="#819DB2" stroke-width="1.55556" stroke-linecap="round" stroke-linejoin="round"/>
<path d="M120.578 153.427C120.578 153.427 72.2654 148.622 60.9515 147.236C60.9515 147.236 58.8874 129.479 56.9985 123.826C55.1096 118.173 51.929 111.127 47.5541 110.635C43.1791 110.136 38.9534 116.107 37.6617 123.14" stroke="#819DB2" stroke-width="1.55556" stroke-linecap="round" stroke-linejoin="round"/>
<path d="M65.5391 97.3242C65.5391 97.3242 53.0763 97.5509 49.0518 98.9367C49.0518 98.9367 45.3714 101.864 43.9304 104.24L46.4684 103.198C46.4684 103.198 49.8502 100.174 50.7914 99.7268C51.7391 99.2799 58.2042 98.6971 63.8709 98.2438" fill="white"/>
<path d="M65.5391 97.3242C65.5391 97.3242 53.0763 97.5509 49.0518 98.9367C49.0518 98.9367 45.3714 101.864 43.9304 104.24L46.4684 103.198C46.4684 103.198 49.8502 100.174 50.7914 99.7268C51.7391 99.2799 58.2042 98.6971 63.8709 98.2438" stroke="#819DB2" stroke-width="1.55556" stroke-linecap="round" stroke-linejoin="round"/>
<path d="M58.1953 98.7695C58.1953 98.7695 57.9757 98.8915 57.9757 99.7456V101.734" stroke="#819DB2" stroke-width="1.55556" stroke-linecap="round" stroke-linejoin="round"/>
<path d="M54.6071 99.4277C54.6071 99.4277 54.8633 99.5059 54.8633 100.444V102.905" stroke="#819DB2" stroke-width="1.55556" stroke-linecap="round" stroke-linejoin="round"/>
<path d="M117.29 107.547L113.876 109.574C113.642 109.71 113.382 109.782 113.11 109.782H111.24C111.02 109.782 110.838 109.6 110.838 109.38V107.405H113.194C113.285 107.405 113.382 107.392 113.467 107.366L116.998 106.291L117.407 107.152C117.478 107.295 117.42 107.47 117.284 107.547H117.29Z" stroke="#819DB2" stroke-width="1.55556" stroke-linecap="round" stroke-linejoin="round"/>
<path d="M116.997 106.286C116.997 106.286 117.795 104.822 117.717 103.819C117.678 103.281 117.613 102.854 117.555 102.549C117.49 102.206 117.373 101.876 117.198 101.578C116.627 100.594 115.062 98.2428 112.894 97.77C110.35 97.2196 104.261 98.9357 101.795 100.995C101.451 101.28 101.243 101.694 101.191 102.141L101.1 102.931C101.042 103.443 101.178 103.961 101.477 104.382L102.249 105.463C102.424 105.709 102.704 105.871 103.009 105.897C104.268 106.014 107.76 106.273 110.863 105.975C110.863 105.975 111.077 106.26 110.915 106.642C110.739 107.05 110.83 107.4 110.83 107.4" fill="white"/>
<path d="M116.997 106.286C116.997 106.286 117.795 104.822 117.717 103.819C117.678 103.281 117.613 102.854 117.555 102.549C117.49 102.206 117.373 101.876 117.198 101.578C116.627 100.594 115.062 98.2428 112.894 97.77C110.35 97.2196 104.261 98.9357 101.795 100.995C101.451 101.28 101.243 101.694 101.191 102.141L101.1 102.931C101.042 103.443 101.178 103.961 101.477 104.382L102.249 105.463C102.424 105.709 102.704 105.871 103.009 105.897C104.268 106.014 107.76 106.273 110.863 105.975C110.863 105.975 111.077 106.26 110.915 106.642C110.739 107.05 110.83 107.4 110.83 107.4" stroke="#819DB2" stroke-width="1.55556" stroke-linecap="round" stroke-linejoin="round"/>
<path d="M95.832 87.4746C95.832 87.4746 91.9439 95.6148 90.1913 103.146" stroke="#819DB2" stroke-width="1.55556" stroke-linecap="round" stroke-linejoin="round"/>
<path d="M123.941 98.1133L121.326 105.314" stroke="#819DB2" stroke-width="1.55556" stroke-linecap="round" stroke-linejoin="round"/>
<path d="M212.877 105.043C212.877 105.043 214.409 103.055 213.624 101.417C212.838 99.7785 211.202 98.8524 209.859 98.2567C208.515 97.6609 205.899 96.3268 205.659 99.1892" fill="white"/>
<path d="M212.877 105.043C212.877 105.043 214.409 103.055 213.624 101.417C212.838 99.7785 211.202 98.8524 209.859 98.2567C208.515 97.6609 205.899 96.3268 205.659 99.1892" stroke="#819DB2" stroke-width="1.55556" stroke-linecap="round" stroke-linejoin="round"/>
<path d="M47.4852 152.38C43.2442 152.38 39.8063 144.905 39.8063 135.685C39.8063 126.465 43.2442 118.99 47.4852 118.99C51.7261 118.99 55.1641 126.465 55.1641 135.685C55.1641 144.905 51.7261 152.38 47.4852 152.38Z" stroke="#819DB2" stroke-width="0.777778" stroke-linecap="round" stroke-linejoin="round"/>
</svg>
