<svg width="291" height="164" viewBox="0 0 291 164" fill="none" xmlns="http://www.w3.org/2000/svg">
<path d="M111.733 50.3167L114.268 49.544C114.546 49.4494 114.983 49.3916 115.219 49.1544C115.497 48.8763 116.611 44.4682 116.833 43.6718C118.533 37.7775 120.297 31.4271 122.162 25.6456L126.467 25.6067L144.39 33.6942L140.604 34.1195C140.919 34.5374 145.037 35.3623 145.58 35.2956L145.682 35.2807C147.013 35.9757 148.431 36.0915 149.777 36.6578L138.573 40.317L138.057 40.4465C137.721 40.5371 137.406 40.2903 137.093 40.1216L135.075 38.986C134.882 38.8737 134.497 38.575 134.306 38.6053C134.261 38.6122 130.998 42.178 130.635 42.5334L129.71 47.7923L131.549 47.394C126.796 68.0744 132.82 116.241 132.82 116.241L62.8626 119.206L56.4258 119.264C55.7321 119.363 54.7503 118.955 54.0356 118.806L47.531 117.5C47.4021 116.319 47.1024 115.099 46.8715 113.952L45.8545 108.807L48.5288 94.7959L54.9362 61.662C55.0821 60.9273 55.702 57.0339 55.9235 56.7363L58.6064 57.5677L81.3037 59.1163L83.6407 58.4246L87.3818 57.4216L111.733 50.3167Z" fill="#346184"/>
<path d="M113.934 61.2984L114.279 61.2278C114.432 61.8474 113.282 66.8417 113.084 67.8096L108.925 87.7422L107.055 96.9017L101.575 97.7913L101.203 97.7642C101.178 97.6914 101.135 97.6271 101.129 97.5455C101.11 97.308 101.308 96.5395 101.358 96.2629L102.203 91.6235L106.954 62.9971L113.934 61.2984Z" fill="#F5F9FC"/>
<path d="M112.062 50.8269L115.617 49.7806L122.499 26.3639C123.617 25.9575 124.89 25.9624 126.04 25.9711C126.046 27.0943 126.148 28.5635 125.981 29.6401C125.702 31.4429 125.144 33.2799 124.721 35.016L122.425 44.5018L120.656 51.7396C120.399 52.8058 120.21 53.931 119.887 54.9537L57.9528 71.5135C58.2567 69.8491 58.8055 67.8008 58.9053 66.0906L68.7358 63.2005L81.5196 59.5556L84.0309 58.8739C84.3522 58.9149 84.8131 58.7103 85.139 58.6207L87.6924 57.8812L112.062 50.8269Z" fill="white"/>
<path d="M56.3014 57.6857L57.8511 58.0803L57.8857 63.6159C57.8927 64.4251 57.9471 65.3039 57.8911 66.1063C57.8286 67.0046 57.5192 68.0531 57.3551 68.932L55.8735 76.9127L49.4834 111.185L51.5683 110.781L52.6835 105.852L55.5555 105.401L55.6738 104.766C55.5135 104.602 55.2675 104.686 55.0823 104.701L52.9486 104.931L59.4188 74.995L60.7039 74.7881L61.0851 72.3825L63.9657 71.7431L58.4905 109.945L59.6956 109.758L60.5197 104.378C60.7876 104.03 63.996 103.753 64.5151 103.702C64.6542 103.529 64.6699 103.251 64.7225 102.991L64.6402 102.865L60.7117 103.43L65.0945 73.3088C66.7423 72.9345 68.5613 72.741 70.1645 72.0998L70.4197 70.3159L73.5066 69.6033L67.9465 108.704L69.0999 108.581L69.9875 103.103C70.9282 103.057 71.8765 102.861 72.814 102.736C73.2126 102.684 73.7319 102.755 74.0985 102.547L74.2257 101.806C73.863 101.418 70.8361 102.093 70.1433 102.154L74.6907 70.983L78.5052 70.01C78.7349 69.9477 79.0447 69.9954 79.2487 69.8713C79.5509 69.6872 79.9311 69.6587 80.2549 69.5842C80.2885 68.9068 80.3994 68.2422 80.4923 67.5801L83.5203 66.9172L77.6564 107.531L78.8073 107.439L79.8013 101.654L84.121 101.047C84.322 100.833 84.318 100.442 84.3691 100.08C84.04 99.767 80.6837 100.539 79.9584 100.649L84.674 68.4362L88.3666 67.4708C88.6954 67.3939 89.3505 67.3989 89.6293 67.2105C90.1027 66.8903 90.8731 66.8589 91.3971 66.7394L91.6479 65.055L93.9375 64.5436C93.8314 66.0915 93.5434 67.6681 93.3151 69.1826L87.8264 106.339L89.1039 106.163L90.0196 100.469L94.8243 99.8525L94.8783 99.849L95.1246 98.7074L90.1991 99.3908L95.0714 65.8917L100.944 64.3162C101.651 64.0151 102.411 63.8732 103.142 63.7829C103.295 63.1635 103.34 62.411 103.417 61.7548L105.913 61.2627L98.4753 105.163L99.8969 104.98L100.942 98.9888L106.834 98.0916L106.055 102.038C105.901 102.76 105.682 103.49 105.62 104.246L105.726 104.371C105.949 104.149 105.947 104.094 106.042 103.715C106.532 101.741 106.903 99.6464 107.323 97.6319L110.121 84.0381L113.925 65.7972L115.101 59.8058L119.005 58.831C118.805 60.5531 118.387 62.2711 118.051 63.9406L116.264 72.7772L110.436 101.292L108.381 111.341L48.0522 117.048L46.8474 111.056C46.7114 110.369 46.4212 109.303 46.4007 108.603C46.3923 108.316 46.5971 107.628 46.6567 107.331L47.4635 103.259L53.5113 71.6225L56.3014 57.6857Z" fill="white"/>
<path d="M122.001 125.493L57.1334 126.079C56.9946 126.08 56.881 125.968 56.8797 125.83L56.816 118.775C56.8148 118.64 56.9212 118.528 57.0566 118.522L124.418 115.627C124.586 115.62 124.714 115.778 124.672 115.941L122.242 125.304C122.213 125.414 122.114 125.492 122.001 125.493Z" fill="#CBD8E0" stroke="#819DB2"/>
<path d="M181.832 147.594L161.837 147.775C161.673 147.777 161.552 147.624 161.59 147.465L162.898 142.007C162.926 141.888 163.036 141.807 163.159 141.815L182.473 143.09C182.62 143.1 182.728 143.234 182.705 143.38L182.078 147.382C182.059 147.503 181.955 147.593 181.832 147.594Z" fill="#346184" stroke="#819DB2"/>
<path d="M202.106 153.688L182.092 153.868C181.941 153.87 181.823 153.739 181.839 153.59L183.153 141.565C183.168 141.423 183.299 141.322 183.44 141.343L202.767 144.22C202.896 144.239 202.99 144.355 202.98 144.486L202.355 153.454C202.346 153.585 202.238 153.686 202.106 153.688Z" fill="#346184" stroke="#819DB2"/>
<path d="M233.8 58.0175L234.286 27.4111" stroke="#819DB2"/>
<path d="M241.952 63.8411L242.119 79.3888C242.12 79.5363 241.995 79.6535 241.848 79.6422L233.641 79.0109C233.511 79.0009 233.41 78.8932 233.409 78.7629L233.24 62.9912C233.239 62.8868 233.302 62.7935 233.402 62.7629C233.862 62.6219 235.315 62.2559 238.043 62.236C240.409 62.2188 241.63 63.3997 241.895 63.6913C241.933 63.7322 241.951 63.7857 241.952 63.8411Z" fill="white" stroke="#819DB2"/>
<path d="M239.362 53.2424L241.54 60.3958C241.583 60.5374 241.495 60.6854 241.35 60.7153L233.314 62.3718C233.187 62.3981 233.061 62.3231 233.023 62.1988L230.988 55.5118C230.959 55.4192 230.986 55.3199 231.058 55.256C231.527 54.8432 233.316 53.3281 234.725 52.9477C236.143 52.5647 238.557 52.9595 239.172 53.0711C239.263 53.0876 239.336 53.1539 239.362 53.2424Z" fill="white" stroke="#819DB2"/>
<path d="M231.042 42.9385L226.286 43.5587C226.129 43.5792 226.03 43.7386 226.081 43.8889L226.565 45.3116C226.6 45.417 226.701 45.4863 226.813 45.4819L231.068 45.315C231.127 45.3127 231.186 45.3314 231.232 45.368L237.186 50.0094C237.295 50.0945 237.452 50.0754 237.538 49.9667L238.706 48.4828C238.796 48.3689 238.771 48.2029 238.651 48.1205L231.218 42.981C231.167 42.9456 231.104 42.9305 231.042 42.9385Z" fill="#346184" stroke="#819DB2"/>
<ellipse cx="240.317" cy="50.686" rx="3.86066" ry="6.06675" transform="rotate(-53.9284 240.317 50.686)" fill="white" stroke="#819DB2"/>
<path d="M142.532 157.511L122.408 157.693C122.288 157.694 122.187 157.63 122.165 157.511C121.623 154.641 115.2 118.88 129.779 109.23C138.973 103.145 152.402 106.119 154.304 106.583C154.435 106.615 154.507 106.745 154.476 106.877L142.775 157.316C142.749 157.429 142.648 157.51 142.532 157.511Z" fill="#346184" stroke="#819DB2"/>
<path d="M165.337 139.686C165.452 152.396 157.833 162.769 148.319 162.855C127.495 165.096 131 152.707 130.886 139.997C130.771 127.288 138.39 116.914 147.903 116.829C157.417 116.743 165.222 126.976 165.337 139.686Z" fill="#346184" stroke="#819DB2"/>
<path d="M100.158 137.302C100.236 145.974 96.8416 153.034 92.5762 153.073C71.9427 154.804 84.7895 146.113 84.7111 137.442C84.6328 128.771 77.4826 120.847 92.2924 121.672C96.5579 121.633 100.079 128.631 100.158 137.302Z" fill="#346184" stroke="#819DB2"/>
<path d="M91.986 137.378C92.0644 146.049 88.6701 153.11 84.4047 153.148C62.454 154.716 76.618 146.189 76.5396 137.517C76.4613 128.846 64.4699 119.656 84.121 121.747C88.3864 121.708 91.9077 128.707 91.986 137.378Z" fill="#346184" stroke="#819DB2"/>
<path d="M84.4642 139.71L79.5127 123.525C79.5056 123.501 79.5019 123.477 79.5017 123.453L79.4479 117.5C79.4467 117.365 79.5535 117.252 79.6893 117.247L94.5542 116.655C94.6946 116.649 94.8123 116.759 94.8156 116.9L95.3452 139.536C95.3485 139.677 95.2364 139.792 95.0961 139.794L84.7069 139.888C84.5955 139.889 84.4968 139.816 84.4642 139.71Z" fill="#819DB2" stroke="#819DB2"/>
<ellipse cx="96.0765" cy="131.28" rx="7.43022" ry="8.44698" transform="rotate(-0.517658 96.0765 131.28)" fill="#EFF2F8" stroke="#819DB2"/>
<path d="M100.573 140.466C99.5497 140.39 98.5485 140.071 97.6262 139.527C96.7039 138.983 95.8785 138.225 95.1971 137.296C94.5157 136.367 93.9917 135.285 93.655 134.112C93.3182 132.939 93.1754 131.699 93.2346 130.461C93.2938 129.223 93.5539 128.012 94.0001 126.898C94.4462 125.783 95.0696 124.786 95.8348 123.965C96.5999 123.143 97.4917 122.513 98.4594 122.109C99.427 121.706 100.452 121.537 101.474 121.613L122.571 121.422C122.685 121.421 122.776 121.514 122.773 121.628L122.315 140.834C122.312 140.945 122.22 141.032 122.11 141.029L100.573 140.466Z" fill="#EFF2F8" stroke="#819DB2"/>
<path d="M74.3719 136.109C74.4445 144.143 71.4308 150.684 67.6405 150.718C52.539 152.262 60.7188 144.267 60.6462 136.233C60.5736 128.199 50.766 120.522 67.3776 121.624C71.1679 121.59 74.2994 128.075 74.3719 136.109Z" fill="#346184" stroke="#819DB2"/>
<ellipse cx="60.6891" cy="136.234" rx="6.33524" ry="14.5476" transform="rotate(-0.517658 60.6891 136.234)" fill="white" stroke="#819DB2"/>
<ellipse cx="60.3255" cy="137.078" rx="3.3436" ry="7.95815" transform="rotate(-0.517658 60.3255 137.078)" fill="white" stroke="#819DB2"/>
<ellipse cx="61.4192" cy="137.067" rx="2.24862" ry="6.78496" transform="rotate(-0.517658 61.4192 137.067)" fill="white" stroke="#819DB2"/>
<ellipse cx="74.8757" cy="137.259" rx="6.74586" ry="15.7012" transform="rotate(-0.517658 74.8757 137.259)" fill="white" stroke="#819DB2"/>
<path d="M116.54 121.453C115.515 121.462 114.503 121.727 113.561 122.232C112.619 122.736 111.766 123.471 111.049 124.395C110.333 125.318 109.768 126.412 109.387 127.613C109.006 128.815 108.816 130.101 108.827 131.397C108.839 132.694 109.053 133.976 109.455 135.171C109.858 136.365 110.443 137.448 111.176 138.359C111.908 139.269 112.775 139.989 113.726 140.476C114.677 140.964 115.694 141.21 116.718 141.201L129.03 141.09C129.173 141.088 129.268 140.943 129.213 140.811L121.05 121.536C121.018 121.461 120.945 121.413 120.864 121.414L116.54 121.453Z" fill="#EFF2F8" stroke="#819DB2"/>
<ellipse cx="74.8758" cy="137.26" rx="3.93019" ry="9.13135" transform="rotate(-0.517658 74.8758 137.26)" fill="white" stroke="#819DB2"/>
<ellipse cx="75.7549" cy="137.252" rx="3.0503" ry="7.09781" transform="rotate(-0.517658 75.7549 137.252)" fill="white" stroke="#819DB2"/>
<path d="M226.732 138.059C226.847 150.769 219.228 161.142 209.715 161.228C190.532 163.376 192.396 151.08 192.281 138.37C192.166 125.66 199.785 115.287 209.299 115.201C218.812 115.115 226.618 125.349 226.732 138.059Z" fill="#346184" stroke="#819DB2"/>
<ellipse cx="203.012" cy="138.274" rx="17.2264" ry="23.0141" transform="rotate(-0.517658 203.012 138.274)" fill="white" stroke="#819DB2"/>
<ellipse cx="203.015" cy="138.274" rx="8.90404" ry="11.8956" transform="rotate(-0.517658 203.015 138.274)" fill="#346184" stroke="#819DB2"/>
<ellipse cx="121.152" cy="131.854" rx="7.43022" ry="10.2654" transform="rotate(-0.517658 121.152 131.854)" fill="#EFF2F8" stroke="#819DB2"/>
<path d="M123.031 143.513L88.267 140.261C88.1386 140.249 88.0402 140.142 88.039 140.013L88.0142 137.264C88.0128 137.118 88.1355 137.002 88.2811 137.011L123.035 139.164C123.167 139.172 123.27 139.281 123.271 139.413L123.306 143.26C123.307 143.409 123.179 143.527 123.031 143.513Z" fill="white" stroke="#819DB2"/>
<path d="M121.527 143.513L86.7631 140.261C86.6347 140.249 86.5363 140.142 86.5351 140.013L86.5103 137.264C86.5089 137.118 86.6316 137.002 86.7772 137.011L121.531 139.164C121.663 139.172 121.766 139.281 121.767 139.413L121.802 143.26C121.803 143.409 121.676 143.527 121.527 143.513Z" fill="white" stroke="#819DB2"/>
<path d="M123.008 129.906L88.4183 129.256C88.2822 129.254 88.1729 129.143 88.1716 129.007L88.1468 126.257C88.1455 126.118 88.2571 126.005 88.3959 126.004L123.01 125.691C123.15 125.69 123.264 125.803 123.264 125.942L123.264 129.654C123.264 129.795 123.149 129.908 123.008 129.906Z" fill="white" stroke="#819DB2"/>
<path d="M121.504 129.906L86.9144 129.256C86.7783 129.254 86.669 129.143 86.6677 129.007L86.6429 126.257C86.6416 126.118 86.7532 126.005 86.892 126.004L121.506 125.691C121.646 125.69 121.76 125.803 121.76 125.942L121.76 129.654C121.76 129.795 121.645 129.908 121.504 129.906Z" fill="white" stroke="#819DB2"/>
<path d="M97.1361 123.331L88.7717 123.407C88.6611 123.408 88.5706 123.319 88.5696 123.208L88.5123 116.867C88.5113 116.763 88.5906 116.675 88.6945 116.666L97.3882 115.878C97.5086 115.867 97.6112 115.964 97.6065 116.085L97.3345 123.138C97.3304 123.245 97.2431 123.33 97.1361 123.331Z" fill="#EFF2F8" stroke="#819DB2"/>
<ellipse cx="141.07" cy="139.906" rx="17.2264" ry="23.0141" transform="rotate(-0.517658 141.07 139.906)" fill="white" stroke="#819DB2"/>
<ellipse cx="140.391" cy="140.577" rx="10.3241" ry="13.042" transform="rotate(-0.517658 140.391 140.577)" fill="white" stroke="#819DB2"/>
<ellipse cx="141.386" cy="140.567" rx="9.32688" ry="11.7906" transform="rotate(-0.517658 141.386 140.567)" fill="white" stroke="#819DB2"/>
<ellipse cx="139.57" cy="140.583" rx="7.50843" ry="9.4833" transform="rotate(-0.517658 139.57 140.583)" fill="white" stroke="#819DB2"/>
<ellipse cx="139.571" cy="140.584" rx="2.54192" ry="3.18717" transform="rotate(-0.517658 139.571 140.584)" fill="white" stroke="#819DB2"/>
<path d="M113.737 123.22L104.733 123.301C104.622 123.302 104.532 123.213 104.531 123.103L104.473 116.763C104.472 116.658 104.552 116.57 104.657 116.561L114.014 115.765C114.135 115.755 114.237 115.852 114.231 115.973L113.935 123.028C113.93 123.134 113.843 123.219 113.737 123.22Z" fill="#EFF2F8" stroke="#819DB2"/>
<path d="M124.169 100.286L124.27 111.416C124.272 111.598 124.449 111.726 124.619 111.66C127.255 110.623 144.196 104.992 147.861 129.736C148.665 134.562 151.497 134.666 152.454 134.557C152.618 134.538 152.775 134.663 152.776 134.827L152.871 145.336C152.872 145.475 152.986 145.587 153.125 145.586L160.968 145.515C160.968 145.515 175.785 144.778 181.414 144.685C193.425 144.485 219.194 143.96 226.182 143.459C231.516 143.076 244.298 138.035 245.689 136.165C246.992 134.414 244.623 111.507 244.316 108.597C244.299 108.439 244.142 108.338 243.991 108.386L241.937 109.037C241.776 109.088 241.611 108.968 241.609 108.799L241.594 107.06C241.593 106.968 241.643 106.882 241.724 106.838L244.117 105.517C244.203 105.469 244.254 105.379 244.247 105.281C242.471 81.0505 232.213 44.2862 226.303 40.341C226.291 40.3331 226.283 40.327 226.272 40.3173C222.282 36.6378 187.327 30.5174 161.55 28.4429C161.526 28.4409 161.502 28.4425 161.478 28.4475C147.667 31.3746 131.769 35.8971 128.381 43.0199C128.37 43.0421 128.363 43.0631 128.36 43.0875C127.464 49.2414 127.331 69.2171 126.96 86.2706C126.959 86.3507 126.995 86.4247 127.055 86.4784C128.446 87.7379 128.74 92.2762 128.579 94.3288C128.569 94.4666 128.446 94.5649 128.308 94.5558C127.784 94.5214 126.824 94.4997 125.8 94.6009C124.581 94.7215 124.205 98.4414 124.169 100.286Z" fill="white" stroke="#819DB2"/>
<path d="M152.812 145.417L152.717 134.872C152.716 134.734 152.827 134.62 152.966 134.619L160.754 134.548C160.893 134.547 161.006 134.659 161.007 134.798L161.103 145.342C161.104 145.481 160.992 145.594 160.853 145.596L153.066 145.666C152.927 145.667 152.814 145.556 152.812 145.417Z" fill="white" stroke="#819DB2"/>
<path d="M161.618 36.1275L140.078 43.1916C139.983 43.2227 139.916 43.3025 139.907 43.4018C139.608 46.5295 135.046 94.7934 137.937 99.4254C137.972 99.4808 138.021 99.5037 138.085 99.5165C141.223 100.146 145.252 103.7 148.021 112.483C148.054 112.589 148.153 112.663 148.264 112.662L162.428 112.534C162.544 112.533 162.643 112.454 162.671 112.342L164.803 103.513C164.808 103.49 164.81 103.467 164.809 103.444L161.947 36.3556C161.94 36.1892 161.776 36.0756 161.618 36.1275Z" fill="white" stroke="#819DB2"/>
<path d="M139.942 68.8827L141.827 45.7746C141.835 45.675 141.901 45.5896 141.996 45.5572L160.271 39.2941C160.431 39.2393 160.599 39.3548 160.604 39.5238L161.615 70.7448C161.619 70.8954 161.492 71.0165 161.341 71.0033L140.17 69.1536C140.032 69.1415 139.93 69.0205 139.942 68.8827Z" fill="#CBD8E0" stroke="#819DB2"/>
<path d="M152.383 69.7033C153.168 71.9916 156.128 71.9378 157.683 71.5957C157.796 71.5708 157.874 71.469 157.873 71.3531L157.859 69.8707C157.858 69.7461 157.766 69.6412 157.642 69.624L153.975 69.1139C153.854 69.097 153.762 68.9952 153.759 68.8727L152.789 37.9119C152.783 37.7181 152.99 37.5906 153.16 37.683L160.929 41.8878C161.097 41.9789 161.302 41.8559 161.3 41.6644L161.286 40.0647C161.285 39.9651 161.225 39.8754 161.134 39.836L151.624 35.7431C151.458 35.6715 151.273 35.7864 151.274 35.9674C151.307 46.4744 151.573 67.3458 152.383 69.7033Z" fill="#346184" stroke="#819DB2"/>
<path d="M132.6 45.2735L138.164 43.578C138.334 43.5264 138.502 43.661 138.488 43.8373L136.632 68.5174C136.622 68.6571 136.499 68.7613 136.359 68.749L131.434 68.3138C131.299 68.3019 131.198 68.1851 131.205 68.0498L132.422 45.5005C132.428 45.395 132.499 45.3043 132.6 45.2735Z" fill="#CBD8E0" stroke="#819DB2" stroke-width="0.5"/>
<path d="M167.041 68.4846L164.035 36.2723C164.02 36.1202 164.142 35.991 164.295 35.9996C166.093 36.1007 176.33 36.7588 194.544 39.502C213.68 42.3839 229.027 45.6707 230.521 45.9938C230.603 46.0114 230.658 46.063 230.689 46.1404C231.129 47.243 234.467 55.657 236.076 61.125C237.607 66.3256 239.3 74.1422 239.662 75.8366C239.697 76.0032 239.559 76.1502 239.389 76.1328L167.266 68.7113C167.146 68.699 167.052 68.6041 167.041 68.4846Z" fill="#CBD8E0"/>
<path d="M185.063 107.809L185.927 82.5497C185.931 82.406 186.056 82.2957 186.199 82.3078L205.783 83.9517C205.866 83.9586 205.939 84.0052 205.981 84.077C206.963 85.7439 209.702 88.8562 213.37 88.823C217.011 88.7901 219.672 86.29 220.64 84.9307C220.693 84.855 220.783 84.8125 220.875 84.8219L235.102 86.2598C235.212 86.271 235.302 86.3525 235.323 86.4609L239.712 108.499C239.743 108.656 239.622 108.801 239.462 108.799L185.311 108.069C185.17 108.067 185.058 107.95 185.063 107.809Z" fill="#CBD8E0"/>
<path d="M167.041 68.4846L164.035 36.2723C164.02 36.1202 164.142 35.991 164.295 35.9996C166.093 36.1007 176.33 36.7588 194.544 39.502C213.68 42.3839 229.027 45.6707 230.521 45.9938C230.603 46.0114 230.658 46.063 230.689 46.1404C231.129 47.243 234.467 55.657 236.076 61.125C237.607 66.3256 239.3 74.1422 239.662 75.8366C239.697 76.0032 239.559 76.1502 239.389 76.1328L167.266 68.7113C167.146 68.699 167.052 68.6041 167.041 68.4846Z" stroke="#819DB2"/>
<path d="M185.063 107.809L185.927 82.5497C185.931 82.406 186.056 82.2957 186.199 82.3078L205.783 83.9517C205.866 83.9586 205.939 84.0052 205.981 84.077C206.963 85.7439 209.702 88.8562 213.37 88.823C217.011 88.7901 219.672 86.29 220.64 84.9307C220.693 84.855 220.783 84.8125 220.875 84.8219L235.102 86.2598C235.212 86.271 235.302 86.3525 235.323 86.4609L239.712 108.499C239.743 108.656 239.622 108.801 239.462 108.799L185.311 108.069C185.17 108.067 185.058 107.95 185.063 107.809Z" stroke="#819DB2"/>
<path d="M186.536 106.307L187.453 87.8269C187.46 87.6867 187.581 87.5794 187.721 87.5885L234.018 90.5983C234.13 90.6056 234.224 90.6869 234.247 90.7972L237.657 106.931C237.69 107.089 237.568 107.237 237.407 107.235L186.784 106.571C186.641 106.569 186.529 106.449 186.536 106.307Z" fill="white" stroke="#819DB2" stroke-width="0.5"/>
<path d="M187.297 94.6133L235.542 97.3842" stroke="#819DB2"/>
<path d="M236.52 101.912L187.109 100.012" stroke="#819DB2"/>
<path d="M185.139 104.86L166.602 102.476C166.477 102.46 166.384 102.355 166.383 102.229L166.195 81.4883" stroke="#819DB2"/>
<path d="M176.135 103.708L175.872 74.5589C175.871 74.4423 175.79 74.3423 175.677 74.3116C174.602 74.0173 172.726 73.1134 172.52 71.4375" stroke="#819DB2"/>
<path d="M178.32 72.8516C186.35 74.226 204.335 77.153 212.038 77.8656C219.74 78.5782 232.589 78.5794 238.05 78.491" stroke="#819DB2"/>
<path d="M162.787 126.303L162.673 113.703C162.672 113.564 162.784 113.452 162.922 113.436C165.268 113.171 166.676 109.529 167.135 107.534C167.159 107.434 167.239 107.357 167.341 107.34L174.86 106.077C174.902 106.07 174.944 106.074 174.984 106.087L184.215 109.27C184.281 109.293 184.335 109.342 184.363 109.406L185.212 111.338C185.252 111.429 185.341 111.488 185.44 111.489L239.109 111.955C239.226 111.956 239.329 111.876 239.356 111.762L239.673 110.426C239.693 110.342 239.754 110.274 239.836 110.246L243.784 108.884C243.951 108.827 244.124 108.954 244.118 109.131L243.352 131.963C243.348 132.095 243.242 132.201 243.109 132.206L180.212 134.252C180.144 134.254 180.078 134.229 180.029 134.182L174.204 128.555C174.168 128.521 174.122 128.497 174.073 128.489L162.995 126.548C162.876 126.527 162.788 126.424 162.787 126.303Z" stroke="#819DB2"/>
<path d="M185.628 117.973L185.58 112.755C185.579 112.615 185.693 112.501 185.833 112.502L238.691 112.838C238.815 112.839 238.919 112.929 238.938 113.05L239.745 118.183C239.752 118.226 239.748 118.269 239.733 118.31L234.908 131.255C234.872 131.351 234.782 131.415 234.68 131.419L196.257 132.619C196.174 132.622 196.094 132.583 196.045 132.515L185.675 118.118C185.645 118.076 185.628 118.025 185.628 117.973Z" stroke="#819DB2"/>
<path d="M187.237 117.956L187.205 114.459C187.204 114.319 187.318 114.205 187.458 114.206L237.584 114.353C237.712 114.354 237.82 114.451 237.833 114.579L238.169 117.889C238.173 117.928 238.168 117.968 238.154 118.004L233.651 129.78C233.614 129.876 233.524 129.939 233.422 129.942L196.871 130.893C196.789 130.895 196.711 130.857 196.662 130.791L187.286 118.103C187.255 118.06 187.237 118.009 187.237 117.956Z" fill="white" stroke="#819DB2" stroke-width="0.5"/>
<path d="M173.089 121.888L172.956 107.103C172.955 107.006 173.01 106.917 173.097 106.875L174.939 105.976C175.002 105.946 175.074 105.943 175.14 105.968L182.06 108.637C182.156 108.674 182.22 108.767 182.221 108.87L182.319 119.721C182.319 119.775 182.337 119.828 182.37 119.871L191.754 132.263C191.879 132.427 191.763 132.664 191.556 132.666L182.553 132.747C182.479 132.748 182.409 132.716 182.36 132.661L173.151 122.05C173.112 122.005 173.09 121.947 173.089 121.888Z" fill="#CBD8E0" stroke="#819DB2"/>
<path d="M241.284 118.976L240.351 110.076C240.338 109.949 240.422 109.833 240.546 109.805L243.757 109.089C243.918 109.053 244.069 109.179 244.063 109.343L243.323 130.763C243.319 130.898 243.209 131.005 243.074 131.006L237.132 131.06C236.955 131.061 236.832 130.885 236.894 130.72L241.27 119.091C241.283 119.054 241.288 119.015 241.284 118.976Z" fill="#CBD8E0" stroke="#819DB2"/>
<path d="M124.205 102.163C124.205 102.163 135.311 101.27 139.639 102.864C144.987 104.834 146.121 112.583 146.121 112.583M146.121 112.583L148.025 124.475C148.027 124.487 148.028 124.5 148.028 124.512L148.035 125.315M146.121 112.583L149.144 112.555C149.263 112.554 149.366 112.633 149.398 112.747C149.704 113.817 151.513 119.049 158.191 121.35C158.293 121.385 158.364 121.48 158.365 121.588L158.398 125.221M158.398 125.221L161.391 128.47C161.539 128.63 161.426 128.889 161.208 128.891L148.32 129.008C148.181 129.009 148.068 128.897 148.066 128.759L148.035 125.315M158.398 125.221L148.035 125.315" stroke="#819DB2"/>
<path d="M82.1752 142.571L84.3706 142.551C84.5095 142.55 84.621 142.436 84.6197 142.297L84.5058 129.686C84.5056 129.658 84.5008 129.631 84.4916 129.605L80.2121 117.423C80.1754 117.319 80.0744 117.251 79.9636 117.256L56.6188 118.314C56.5122 118.319 56.4203 118.39 56.3895 118.492L53.4026 128.39C53.3694 128.5 53.4149 128.618 53.513 128.677L54.1603 129.07C54.2976 129.153 54.4767 129.088 54.5285 128.936L57.269 120.897C57.3018 120.801 57.3891 120.734 57.4904 120.727L77.7421 119.392C77.8583 119.384 77.9645 119.457 77.9989 119.569L81.8172 131.941C81.8244 131.964 81.8282 131.988 81.8284 132.012L81.9215 142.322C81.9228 142.461 82.0363 142.572 82.1752 142.571Z" fill="white" stroke="#819DB2"/>
<path d="M56.3963 119.26L48.0119 117.736C47.9089 117.717 47.8283 117.637 47.8096 117.534L46.2933 109.194C46.2879 109.164 46.2879 109.134 46.2932 109.105L55.5762 57.2649C55.5993 57.1362 55.717 57.0467 55.8471 57.0589L80.4584 59.3662C80.4898 59.3692 80.5214 59.3662 80.5516 59.3574L115.374 49.2976C115.456 49.2739 115.521 49.2101 115.545 49.1283L122.462 26.0709C122.489 25.9819 122.563 25.9148 122.654 25.8966L126.317 25.1643C126.368 25.154 126.422 25.1602 126.47 25.182L143.507 32.9262" stroke="#819DB2"/>
<path d="M57.9492 57.0391L57.9492 66.0304C57.9492 66.2 58.1137 66.321 58.2756 66.2704L82.8381 58.5939" stroke="#819DB2"/>
<path d="M47.8359 117.705L108.317 111.503C108.427 111.491 108.516 111.413 108.538 111.304C109.241 107.703 120.358 50.958 126.384 29.8493C126.39 29.8268 126.393 29.806 126.393 29.7826C126.393 28.2161 126.393 25.1504 126.393 25.1504" stroke="#819DB2"/>
<path d="M126.395 29.8164L138.839 35.2609" stroke="#819DB2"/>
<path d="M108.508 111.484L125.619 113.818" stroke="#819DB2"/>
<path d="M207.873 94.2539L198.79 93.7986C198.657 93.792 198.552 93.6829 198.551 93.5498L198.526 90.7719C198.525 90.626 198.647 90.5097 198.793 90.5188L207.877 91.0852C208.008 91.0934 208.111 91.2019 208.112 91.3338L208.137 94.0005C208.138 94.1452 208.017 94.2611 207.873 94.2539Z" fill="white" stroke="#819DB2" stroke-width="0.5"/>
<path d="M154.608 51.5755L154.775 67.1232C154.777 67.2707 154.651 67.3878 154.504 67.3765L146.297 66.7453C146.167 66.7353 146.067 66.6276 146.065 66.4973L145.896 50.7256C145.895 50.6211 145.958 50.5279 146.058 50.4973C146.518 50.3563 147.971 49.9902 150.699 49.9704C153.065 49.9532 154.286 51.1341 154.552 51.4256C154.589 51.4666 154.608 51.5201 154.608 51.5755Z" fill="white" stroke="#819DB2"/>
<path d="M154.476 40.4785L154.543 47.9556C154.545 48.1036 154.418 48.2207 154.271 48.2084L146.094 47.527C145.965 47.5163 145.865 47.4087 145.864 47.2788L145.801 40.2891C145.8 40.1924 145.853 40.1045 145.941 40.0637C146.507 39.8002 148.651 38.8523 150.11 38.8854C151.579 38.9189 153.782 39.9794 154.342 40.2604C154.424 40.302 154.475 40.3859 154.476 40.4785Z" fill="white" stroke="#819DB2"/>
<path d="M162.603 106.317L159.396 106.346C159.118 106.348 158.891 106.125 158.888 105.847L158.868 103.585C158.865 103.307 159.088 103.08 159.366 103.077L162.709 103.047C162.999 103.045 163.231 103.286 163.216 103.576L163.101 105.839C163.088 106.105 162.869 106.314 162.603 106.317Z" fill="#CBD8E0" stroke="#819DB2"/>
<path d="M217.064 94.9122L209.389 94.4521C209.257 94.4442 209.154 94.3355 209.152 94.2034L209.127 91.4431C209.126 91.2961 209.251 91.1793 209.397 91.1901L217.073 91.7598C217.204 91.7695 217.305 91.8775 217.306 92.0083L217.33 94.659C217.331 94.8047 217.209 94.9209 217.064 94.9122Z" fill="white" stroke="#819DB2" stroke-width="0.5"/>
<path d="M226.22 95.4922L218.545 95.0266C218.413 95.0186 218.31 94.91 218.309 94.7779L218.284 91.9844C218.282 91.8372 218.407 91.7204 218.554 91.7314L226.23 92.3076C226.36 92.3174 226.461 92.4254 226.462 92.556L226.487 95.2389C226.488 95.3847 226.366 95.501 226.22 95.4922Z" fill="white" stroke="#819DB2" stroke-width="0.5"/>
<path d="M207.987 105.858L198.907 105.699C198.771 105.697 198.662 105.586 198.66 105.45L198.635 102.671C198.634 102.529 198.751 102.414 198.894 102.418L207.975 102.688C208.11 102.692 208.218 102.802 208.219 102.937L208.243 105.604C208.244 105.746 208.129 105.861 207.987 105.858Z" fill="white" stroke="#819DB2" stroke-width="0.5"/>
<path d="M217.958 106.139L209.817 105.975C209.681 105.972 209.572 105.862 209.57 105.726L209.545 102.965C209.544 102.822 209.662 102.707 209.805 102.712L217.948 102.986C218.082 102.991 218.189 103.101 218.191 103.235L218.215 105.886C218.216 106.027 218.1 106.142 217.958 106.139Z" fill="white" stroke="#819DB2" stroke-width="0.5"/>
<path d="M228.013 106.282L219.871 106.117C219.735 106.115 219.626 106.004 219.625 105.868L219.6 103.108C219.599 102.965 219.717 102.85 219.86 102.855L228.002 103.129C228.137 103.133 228.244 103.243 228.245 103.378L228.269 106.028C228.271 106.17 228.155 106.285 228.013 106.282Z" fill="white" stroke="#819DB2" stroke-width="0.5"/>
<path d="M209.991 119.435L200.914 119.517C200.775 119.519 200.661 119.407 200.66 119.268L200.631 116.095C200.63 115.956 200.741 115.843 200.88 115.841L209.958 115.759C210.097 115.758 210.211 115.87 210.212 116.009L210.241 119.182C210.242 119.32 210.13 119.434 209.991 119.435Z" fill="white" stroke="#819DB2" stroke-width="0.5"/>
<path d="M210.034 124.48L200.956 124.562C200.818 124.564 200.704 124.452 200.703 124.313L200.674 121.14C200.673 121.001 200.784 120.888 200.923 120.886L210.001 120.804C210.14 120.803 210.254 120.915 210.255 121.053L210.283 124.227C210.285 124.365 210.173 124.479 210.034 124.48Z" fill="white" stroke="#819DB2" stroke-width="0.5"/>
<path d="M210.077 129.291L200.999 129.373C200.861 129.374 200.747 129.263 200.746 129.124L200.717 125.951C200.716 125.812 200.827 125.698 200.966 125.697L210.044 125.615C210.183 125.614 210.297 125.725 210.298 125.864L210.326 129.037C210.328 129.176 210.216 129.29 210.077 129.291Z" fill="white" stroke="#819DB2" stroke-width="0.5"/>
<path d="M225.38 143.444L182.864 144.189C182.775 144.191 182.692 144.145 182.645 144.069L181.131 141.597C181.03 141.431 181.147 141.218 181.342 141.215L228.574 140.446C228.815 140.442 228.923 140.747 228.733 140.895L225.531 143.391C225.488 143.425 225.435 143.443 225.38 143.444Z" fill="#346184" stroke="#819DB2"/>
<path d="M219.529 119.348L211.429 119.422C211.29 119.423 211.177 119.311 211.175 119.173L211.147 115.999C211.146 115.861 211.257 115.747 211.396 115.746L219.496 115.673C219.635 115.671 219.749 115.783 219.75 115.922L219.779 119.095C219.78 119.234 219.668 119.347 219.529 119.348Z" fill="white" stroke="#819DB2" stroke-width="0.5"/>
<path d="M219.576 124.395L211.476 124.469C211.337 124.47 211.224 124.358 211.222 124.219L211.194 121.046C211.192 120.907 211.304 120.794 211.443 120.793L219.543 120.719C219.682 120.718 219.795 120.83 219.797 120.969L219.825 124.142C219.827 124.28 219.715 124.394 219.576 124.395Z" fill="white" stroke="#819DB2" stroke-width="0.5"/>
<path d="M219.623 129.204L211.523 129.277C211.384 129.278 211.27 129.167 211.269 129.028L211.241 125.855C211.239 125.716 211.351 125.602 211.49 125.601L219.59 125.528C219.729 125.527 219.842 125.638 219.844 125.777L219.872 128.95C219.874 129.089 219.762 129.203 219.623 129.204Z" fill="white" stroke="#819DB2" stroke-width="0.5"/>
<path d="M229.111 119.262L220.972 119.336C220.833 119.337 220.72 119.225 220.718 119.087L220.69 115.913C220.689 115.775 220.8 115.661 220.939 115.66L229.078 115.586C229.217 115.585 229.331 115.697 229.332 115.835L229.361 119.008C229.362 119.147 229.25 119.261 229.111 119.262Z" fill="white" stroke="#819DB2" stroke-width="0.5"/>
<path d="M229.158 124.307L221.019 124.381C220.88 124.382 220.767 124.27 220.765 124.131L220.737 120.958C220.735 120.82 220.847 120.706 220.986 120.705L229.125 120.631C229.264 120.63 229.378 120.741 229.379 120.88L229.407 124.053C229.409 124.192 229.297 124.306 229.158 124.307Z" fill="white" stroke="#819DB2" stroke-width="0.5"/>
<path d="M229.201 129.12L221.062 129.193C220.923 129.194 220.81 129.083 220.808 128.944L220.78 125.771C220.778 125.632 220.89 125.519 221.029 125.517L229.168 125.444C229.307 125.442 229.421 125.554 229.422 125.693L229.45 128.866C229.452 129.005 229.34 129.118 229.201 129.12Z" fill="white" stroke="#819DB2" stroke-width="0.5"/>
<path d="M182.544 122.541C182.571 125.565 180.749 128.032 178.233 128.055L173.469 122.388C173.442 119.365 175.422 117.13 177.938 117.108C180.455 117.085 182.516 119.518 182.544 122.541Z" fill="white" stroke="#819DB2"/>
<path d="M182.544 122.541C182.571 125.565 180.749 128.032 178.233 128.055L173.469 122.388C173.442 119.365 175.422 117.13 177.938 117.108C180.455 117.085 182.516 119.518 182.544 122.541Z" fill="white" stroke="#819DB2"/>
<path d="M179.67 111.668C179.688 113.66 178.496 115.286 176.851 115.301C175.205 115.316 173.752 113.559 173.734 111.567C173.716 109.574 175.012 108.101 176.658 108.087C178.303 108.072 179.652 109.675 179.67 111.668Z" fill="white" stroke="#819DB2"/>
<path d="M183.238 129.768C183.249 130.935 182.546 131.887 181.575 131.896L179.737 129.709C179.726 128.543 180.491 127.681 181.462 127.672C182.432 127.663 183.228 128.602 183.238 129.768Z" fill="white" stroke="#819DB2"/>
<path d="M241.739 121.125C241.766 124.116 243.614 124.461 243.614 124.461L243.778 117.06C243.778 117.06 241.712 118.133 241.739 121.125Z" fill="white" stroke="#819DB2"/>
<path d="M241.731 113.34C241.57 114.561 242.158 116.918 243.864 115.664L244.008 112.147C244.008 112.147 242.024 111.128 241.731 113.34Z" fill="white" stroke="#819DB2"/>
<ellipse cx="241.681" cy="127.48" rx="1.64247" ry="2.58102" transform="rotate(-0.517658 241.681 127.48)" fill="white" stroke="#819DB2"/>
<ellipse cx="141.658" cy="86.07" rx="2.65924" ry="2.89387" transform="rotate(89.4823 141.658 86.07)" fill="#CBD8E0" stroke="#819DB2"/>
<path d="M126.977 86.4141C129.488 86.6912 134.518 87.8242 134.539 90.1392C134.556 92.1157 134.568 93.4536 134.574 94.0704C134.575 94.2101 134.462 94.3234 134.323 94.3234L128.261 94.3234" stroke="#819DB2"/>
<path d="M142.57 87.2311L138.259 86.9246C138.129 86.9153 138.027 86.8072 138.026 86.6761L138.01 84.9507C138.009 84.8023 138.136 84.685 138.284 84.698L142.595 85.0759C142.724 85.0872 142.823 85.1946 142.824 85.3241L142.839 86.978C142.84 87.1248 142.716 87.2415 142.57 87.2311Z" fill="white" stroke="#819DB2"/>
</svg>
