<svg width="291" height="164" viewBox="0 0 291 164" fill="none" xmlns="http://www.w3.org/2000/svg">
<path d="M177.725 108.961L168.778 144.468C168.756 144.555 168.68 144.616 168.591 144.619L164.256 144.778C164.188 144.78 164.124 144.748 164.085 144.693L160.267 139.243C160.255 139.226 160.245 139.207 160.239 139.186L153.216 115.969C153.199 115.914 153.207 115.854 153.238 115.805L164.398 97.9164C164.418 97.8837 164.448 97.8575 164.483 97.8411L188.848 86.398C188.889 86.3786 188.936 86.3739 188.98 86.3847L203.551 89.9159C203.714 89.9553 203.759 90.1649 203.627 90.2682L195.388 96.735L177.805 108.845C177.765 108.873 177.737 108.914 177.725 108.961Z" fill="#346184" stroke="#819DB2"/>
<ellipse cx="195.52" cy="130.765" rx="27.1903" ry="32.8274" transform="rotate(-13.4563 195.52 130.765)" fill="#346184" stroke="#819DB2"/>
<ellipse cx="89.4611" cy="120.089" rx="23.3847" ry="29.5802" transform="rotate(-7.92205 89.4611 120.089)" fill="#346184" stroke="#819DB2"/>
<ellipse cx="83.4908" cy="120.313" rx="14.199" ry="21.4748" transform="rotate(-5.87567 83.4908 120.313)" fill="white" stroke="#819DB2"/>
<ellipse cx="191.982" cy="131.611" rx="19.7578" ry="24.8477" transform="rotate(-13.4563 191.982 131.611)" fill="white" stroke="#819DB2"/>
<ellipse cx="191.983" cy="131.61" rx="17.8228" ry="22.4142" transform="rotate(-13.4563 191.983 131.61)" fill="white" stroke="#819DB2"/>
<ellipse cx="83.928" cy="120.163" rx="12.6469" ry="19.2815" transform="rotate(-4.26314 83.928 120.163)" fill="white" stroke="#819DB2"/>
<ellipse cx="191.002" cy="131.596" rx="12.7309" ry="15.8696" transform="rotate(-16.2256 191.002 131.596)" fill="white" stroke="#819DB2"/>
<ellipse cx="82.3189" cy="120.543" rx="8.1951" ry="11.3306" transform="rotate(-6.88721 82.3189 120.543)" fill="white" stroke="#819DB2"/>
<ellipse cx="191.001" cy="131.567" rx="9.75949" ry="12.1656" transform="rotate(-16.2256 191.001 131.567)" fill="white" stroke="#819DB2"/>
<rect x="189.41" y="101.25" width="12.8242" height="4.59608" rx="0.200354" transform="rotate(-112.535 189.41 101.25)" fill="white" stroke="#819DB2"/>
<ellipse cx="82.8327" cy="120.346" rx="6.68333" ry="8.84461" transform="rotate(-1.74689 82.8327 120.346)" fill="white" stroke="#819DB2"/>
<path d="M173.611 106.822C173.575 106.757 173.579 106.676 173.619 106.614C175.997 102.932 176.394 102.401 180.52 100.109C184.684 97.7971 189.383 96.4635 194.136 96.2451C198.889 96.0267 203.525 96.9313 207.57 98.8664C210.935 100.477 214.135 103.173 215.114 104.033C215.24 104.143 215.178 104.345 215.013 104.371L200.659 106.717L190.144 108.593C190.027 108.614 189.954 108.732 189.987 108.846L195.245 126.955C195.272 127.048 195.229 127.147 195.143 127.19L189.925 129.799C189.925 129.799 186.209 118.183 184.558 118.394C182.566 118.649 177.938 109.559 175.693 110.17C175.586 110.199 175.463 110.168 175.409 110.07L173.611 106.822Z" fill="#EFF2F8"/>
<path d="M184.558 118.394C182.566 118.649 177.938 109.559 175.693 110.17C175.586 110.199 175.463 110.168 175.409 110.07L173.611 106.822C173.575 106.757 173.579 106.676 173.619 106.614C175.997 102.932 176.394 102.401 180.52 100.109C184.684 97.7971 189.383 96.4635 194.136 96.2451C198.889 96.0267 203.525 96.9313 207.57 98.8664C210.935 100.477 214.135 103.173 215.114 104.033C215.24 104.143 215.178 104.345 215.013 104.371L200.659 106.717L190.144 108.593C190.027 108.614 189.954 108.732 189.987 108.846L195.245 126.955C195.272 127.048 195.229 127.147 195.143 127.19L189.925 129.799M184.558 118.394C186.209 118.183 189.925 129.799 189.925 129.799M184.558 118.394L189.925 129.799" stroke="#819DB2"/>
<path d="M184.17 124.941L172.883 95.807C172.858 95.7424 172.868 95.6693 172.91 95.6139L177.181 89.956C177.275 89.8317 177.468 89.8572 177.527 90.0016L184.835 108.098L193.495 130.329C193.503 130.35 193.508 130.372 193.509 130.395L193.6 132.898C193.601 132.93 193.595 132.961 193.582 132.989L192.713 134.884C192.69 134.932 192.649 134.97 192.598 134.988L186.948 137.018C186.854 137.052 186.748 137.011 186.702 136.921L185.884 135.324C185.848 135.255 185.776 135.212 185.698 135.215L183.863 135.282C183.843 135.283 183.823 135.287 183.803 135.293L181.306 136.177C181.287 136.184 181.267 136.188 181.246 136.189L179.192 136.264C179.132 136.266 179.076 136.295 179.039 136.343L177.674 138.156C177.588 138.271 177.411 138.259 177.34 138.134L175.906 135.602C175.896 135.583 175.888 135.563 175.884 135.542C175.637 134.246 175.101 131.342 174.885 129.841C174.68 128.413 175.585 125.317 176.144 123.705C176.19 123.572 176.357 123.53 176.463 123.623L177.922 124.903C177.96 124.937 178.01 124.955 178.061 124.953L180.183 124.875C180.239 124.873 180.293 124.895 180.333 124.934L181.519 126.13C181.577 126.188 181.664 126.206 181.739 126.174L184.061 125.198C184.161 125.156 184.21 125.042 184.17 124.941Z" fill="white" stroke="#819DB2"/>
<path d="M183.883 125.104L185.896 135.167" stroke="#819DB2"/>
<path d="M181.871 126.447L183.884 135.169" stroke="#819DB2"/>
<path d="M108.746 121.078L118.769 119.209C119.329 119.105 119.695 118.562 119.583 118.003L116.546 102.915C116.44 102.389 115.946 102.035 115.414 102.103L108.746 102.964L97.6647 102.964C97.4542 102.964 97.2488 103.029 97.0766 103.15L79.6606 115.406C79.3886 115.597 79.2268 115.909 79.2268 116.242L79.2261 125.221C79.2261 125.859 79.8034 126.341 80.4307 126.227L108.746 121.078Z" fill="white" stroke="#819DB2"/>
<path d="M117.046 82.4413L134.821 83.5742C134.998 83.5855 135.074 83.805 134.941 83.9235L119.662 97.5981C119.595 97.6581 119.496 97.666 119.42 97.6174L118.252 96.8678C118.213 96.8429 118.184 96.8053 118.169 96.7614L114.452 85.3816C114.43 85.3138 114.446 85.2393 114.493 85.186L116.883 82.5078C116.924 82.4619 116.984 82.4374 117.046 82.4413Z" stroke="#346184"/>
<path d="M144.487 98.0226C144.744 96.1126 144.929 92.2157 142.551 90.5424C138.913 87.9838 135.143 90.1699 133.543 91.3664C133.124 91.68 133.184 92.2901 133.63 92.5642L143.35 98.5346C143.816 98.8211 144.414 98.5651 144.487 98.0226Z" stroke="#346184"/>
<path d="M162.575 61.8994L172.683 70.8492C172.746 70.9052 172.768 70.995 172.736 71.0736L162.056 97.7743C162.031 97.8379 161.974 97.8841 161.907 97.8968L125.001 104.827L116.6 105.577C116.498 105.586 116.406 105.517 116.386 105.417L115.571 101.36C115.566 101.334 115.556 101.31 115.541 101.288C113.439 98.1691 109.002 91.4508 107.903 89.2657C106.803 87.0782 99.4535 80.9921 95.8908 78.2019C95.8733 78.1883 95.8596 78.1732 95.8475 78.1546C93.9466 75.225 90.1268 69.2359 89.9133 68.4975C89.7046 67.7759 85.9942 60.2056 84.0234 56.2236C83.9552 56.0858 84.0599 55.9271 84.2134 55.9361C88.7966 56.2042 97.6387 56.6916 98.9143 56.645C100.549 56.5853 107.741 59.2229 109.02 62.2169C110.035 64.5946 110.959 66.8476 111.303 67.6972C111.308 67.71 111.314 67.721 111.321 67.7325C113.459 70.9191 118.086 77.2703 119.582 77.3153C121.029 77.3588 122.697 76.5884 123.424 76.1571C123.472 76.1286 123.505 76.0826 123.516 76.0276C123.946 73.7929 124.813 68.6907 124.966 65.4702C125.16 61.3932 126.396 63.2037 130.354 60.1431C134.312 57.0825 146.285 59.561 151.751 59.3613C156.106 59.2022 160.738 60.9611 162.534 61.8713C162.549 61.879 162.562 61.8882 162.575 61.8994Z" fill="#CBD8E0" stroke="#819DB2"/>
<path d="M116.217 102.485L118.71 129.189C118.718 129.276 118.782 129.348 118.868 129.366L122.367 130.11C122.49 130.136 122.607 130.043 122.609 129.917L122.833 113.764L123.434 103.871C123.435 103.84 123.444 103.81 123.46 103.784L127.691 96.3892C127.698 96.3768 127.707 96.3652 127.716 96.3546L137.535 85.4537C137.573 85.4116 137.627 85.3875 137.684 85.3875L145.318 85.3875C145.334 85.3875 145.35 85.3855 145.366 85.3816L170.067 79.2865C170.144 79.2677 170.202 79.2062 170.216 79.1291L171.552 72.0404C171.567 71.96 171.532 71.8784 171.463 71.8344L167.976 69.6077C167.93 69.5786 167.875 69.5691 167.822 69.5816L155.512 72.49C155.498 72.4934 155.484 72.4983 155.47 72.5047L135.89 82.0094C135.872 82.0181 135.856 82.0295 135.841 82.0432L117.65 99.0487C117.629 99.068 117.613 99.0915 117.602 99.1177L116.232 102.389C116.219 102.419 116.214 102.452 116.217 102.485Z" fill="white" stroke="#819DB2"/>
<path d="M152.274 144.48L160.288 143.3C160.421 143.28 160.497 143.138 160.44 143.016L147.087 114.72C147.024 114.586 146.842 114.563 146.751 114.681C145.561 116.214 139.316 124.321 136.675 128.992C136.02 130.15 125.05 130.056 118.075 126.943C113.47 124.887 110.913 122.101 105.775 120.204C100.961 118.427 93.3056 117.529 91.4127 117.327C91.242 117.309 91.1336 117.5 91.2332 117.64L99.0007 128.545C99.0217 128.574 99.0503 128.597 99.0834 128.612L102.737 130.215C102.761 130.225 102.782 130.24 102.8 130.259L111.619 139.351C111.651 139.384 111.694 139.405 111.739 139.411L130.213 141.641L142.399 142.692L152.209 144.479C152.231 144.483 152.253 144.483 152.274 144.48Z" fill="white" stroke="#819DB2"/>
<rect x="155.805" y="65.5742" width="14.002" height="5.85629" rx="0.200354" transform="rotate(-27.4571 155.805 65.5742)" fill="white" stroke="#819DB2"/>
<path d="M154.054 62.4491L157.282 54.8556C157.333 54.7355 157.483 54.6955 157.587 54.7745L158.938 55.8008C159.013 55.8577 159.038 55.9592 158.999 56.0446L156.499 61.4382C156.486 61.4668 156.48 61.4982 156.481 61.5297L156.527 62.7818C156.531 62.8903 156.62 62.9759 156.729 62.9749L171.497 62.8316C171.582 62.8308 171.658 62.8835 171.687 62.9633L172.367 64.8256C172.416 64.9598 172.313 65.1008 172.17 65.0945L154.828 64.3284C154.748 64.3249 154.678 64.2737 154.65 64.1985L154.05 62.5977C154.032 62.5496 154.033 62.4964 154.054 62.4491Z" fill="white" stroke="#819DB2"/>
<path d="M160.966 144.868L166.118 144.68C166.31 144.673 166.386 144.422 166.232 144.306C155.017 135.823 154.448 111.734 167.783 100.952C181.005 90.2622 197.67 88.2865 203.831 90.0676C203.965 90.1062 204.093 90.0023 204.088 89.8633L203.768 81.1155C203.767 81.076 203.754 81.0377 203.73 81.0056L202.144 78.8045C202.13 78.7856 202.113 78.7691 202.094 78.756L172.91 58.9136C172.898 58.9058 172.886 58.8992 172.873 58.8939L159.894 53.5824C159.885 53.5785 159.875 53.5753 159.865 53.5729L150.401 51.3195C150.239 51.2808 150.103 51.4462 150.173 51.5979L151.425 54.326C151.446 54.3727 151.485 54.4095 151.533 54.4285L163.595 59.2415C163.595 59.2415 173.781 64.8729 169.929 76.3969C168.658 80.1997 148.859 82.7913 139.54 83.3995C139.491 83.4027 139.447 83.4237 139.413 83.4588L137.778 85.119C137.683 85.2153 137.709 85.3758 137.829 85.4377L146.764 90.042C146.837 90.0792 146.879 90.1601 146.872 90.2411C143.775 125.597 146.666 130.661 149.606 135.147C153.332 140.834 156.915 142.542 160.857 144.841C160.89 144.86 160.928 144.869 160.966 144.868Z" fill="white" stroke="#819DB2"/>
<path d="M110.244 64.3708C109.033 61.9479 106.55 58.0289 103.159 58.0104C97.9432 57.9819 95.5885 62.7161 94.6667 65.4352C94.3541 66.3573 95.0386 67.242 95.9389 67.1858L109.178 66.3595C110.112 66.3012 110.694 65.2708 110.244 64.3708Z" fill="white" stroke="#819DB2"/>
<path d="M124.221 73.3825C124.21 73.3275 124.181 73.281 124.132 73.2528C123.288 72.7621 115.107 68.0542 111.893 68.0366C106.713 68.0083 98.57 67.5024 97.5531 70.1573C97.5391 70.1941 97.5096 70.2311 97.481 70.2582C95.8111 71.8394 112.18 74.7988 119.64 77.3985C119.653 77.4031 119.665 77.406 119.679 77.4076C120.842 77.5451 124.979 77.1917 124.221 73.3825Z" fill="white" stroke="#819DB2"/>
<path d="M97.9843 88.365C105.926 90.0178 112.743 97.317 115.374 101.039C115.465 101.168 115.375 101.343 115.217 101.348L107.342 101.636C104.833 101.395 99.2669 100.933 97.0742 101.013C94.9849 101.09 89.1183 105.92 86.0589 108.666C85.9167 108.793 85.6933 108.668 85.725 108.48C86.0842 106.345 86.6402 102.668 86.5938 101.396C86.543 100.006 79.7096 93.9522 76.2597 91.065C76.2327 91.0425 76.2133 91.0141 76.2012 90.9811L74.5368 86.4323C74.4839 86.2877 74.6068 86.1398 74.7587 86.1653C78.2648 86.7553 84.9346 87.703 86.0743 87.1785C87.5465 86.5009 87.7866 86.2427 97.9843 88.365Z" fill="#EFF2F8" stroke="#819DB2"/>
<path d="M133.118 96.6612L146.061 106.181C146.098 106.208 146.124 106.246 146.136 106.29L148.968 116.632C148.986 116.697 148.969 116.767 148.924 116.818L135.9 131.452C135.834 131.526 135.724 131.541 135.641 131.487L132.335 129.337L120.911 119.814C120.854 119.767 120.828 119.693 120.842 119.621L121.483 116.421C121.488 116.396 121.488 116.37 121.483 116.344L118.841 102.473C118.821 102.371 118.883 102.272 118.982 102.243L127.981 99.641C127.998 99.6361 128.014 99.6289 128.029 99.6196L132.895 96.6515C132.964 96.6092 133.052 96.613 133.118 96.6612Z" fill="white" stroke="#819DB2"/>
<path d="M136.449 111.021L146.23 93.0582C146.279 92.969 146.386 92.9303 146.48 92.968L152.795 95.494C152.913 95.5413 152.958 95.6853 152.887 95.7912L146.363 105.577C146.333 105.623 146.322 105.679 146.335 105.733L148.305 114.272C148.319 114.334 148.303 114.399 148.261 114.448L141.562 122.25C141.498 122.324 141.391 122.341 141.307 122.291L136.827 119.612C136.768 119.577 136.732 119.515 136.729 119.447L136.425 111.124C136.424 111.088 136.432 111.052 136.449 111.021Z" fill="#EFF2F8" stroke="#819DB2"/>
<path d="M158.9 93.4713L148.854 87.1926C148.689 87.0895 148.753 86.8354 148.947 86.8228L178.605 84.8888C178.795 84.8764 178.894 85.1118 178.751 85.2385L149.878 110.904C149.709 111.054 149.46 110.854 149.569 110.657L158.969 93.7385C159.02 93.6453 158.99 93.5278 158.9 93.4713Z" fill="#EFF2F8" stroke="#819DB2"/>
<path d="M98.6377 83.6756L98.4267 77.9012C98.4198 77.7132 98.6524 77.6202 98.777 77.7612L109.426 89.8064C109.554 89.9507 109.424 90.1743 109.236 90.1353L102.778 88.8008C102.732 88.7914 102.691 88.7665 102.662 88.7303L98.6819 83.7941C98.6548 83.7604 98.6393 83.7188 98.6377 83.6756Z" fill="white" stroke="#819DB2"/>
<path d="M184.788 79.7319L182.97 83.4093C182.942 83.4668 182.943 83.5344 182.973 83.5912L186.227 89.797C186.275 89.8882 186.384 89.9283 186.479 89.8898L190.869 88.1202C190.893 88.1105 190.919 88.1056 190.945 88.1057L201.77 88.1288C201.784 88.1288 201.798 88.1274 201.811 88.1245L204.055 87.6537C204.151 87.6337 204.218 87.5478 204.214 87.4503L204.073 83.5727C204.069 83.4799 204.002 83.4016 203.911 83.3835L185.007 79.6242C184.918 79.6065 184.828 79.6507 184.788 79.7319Z" fill="#346184" stroke="#819DB2"/>
<path d="M175.735 41.0518C168.238 41.0449 159.938 46.9289 156.501 50.0602C156.395 50.1564 156.426 50.3261 156.556 50.3852L178.648 60.4404C178.665 60.448 178.682 60.4532 178.7 60.456C183.899 61.2484 193.939 62.3546 192.724 60.4687C191.203 58.1073 185.31 41.0606 175.735 41.0518Z" fill="#346184" stroke="#819DB2"/>
<path d="M178.556 58.4671L157.883 48.1822C157.838 48.1595 157.785 48.155 157.736 48.1697L149.891 50.5293C149.774 50.5646 149.715 50.696 149.768 50.8067L150.999 53.4125C151.023 53.464 151.066 53.5019 151.12 53.5182C155.536 54.8331 165.566 57.8975 171.042 59.842C177.93 62.288 183.412 70.2119 188.374 75.8469C192.299 80.3046 198.973 83.3536 201.92 84.3593C201.983 84.3808 202.049 84.3691 202.102 84.3278C203.55 83.1928 206.358 80.5592 206.64 78.5789C207 76.0552 204.088 70.1737 201.921 67.2121C200.201 64.8604 194.735 60.1513 192.161 58.043C192.123 58.0121 192.077 57.9974 192.028 57.9992L178.653 58.4879C178.62 58.4891 178.586 58.482 178.556 58.4671Z" fill="#EFF2F8" stroke="#819DB2"/>
<ellipse cx="186.391" cy="85.0764" rx="2.30186" ry="3.95865" transform="rotate(-19.7575 186.391 85.0764)" fill="white" stroke="#819DB2"/>
<ellipse cx="202.799" cy="85.9283" rx="1.56906" ry="2.24433" transform="rotate(2.74885 202.799 85.9283)" fill="white" stroke="#819DB2"/>
<ellipse cx="157.199" cy="68.1408" rx="1.44923" ry="2.91455" transform="rotate(-30.8309 157.199 68.1408)" fill="white" stroke="#819DB2"/>
<path d="M108.457 115.133L118.103 118.443C118.85 118.699 119.592 118.048 119.436 117.275L116.399 102.183C116.372 102.051 116.32 101.925 116.244 101.813L110.534 93.3511C110.04 92.6182 108.911 92.8166 108.696 93.6743L105.106 108.006C104.998 108.435 105.18 108.885 105.555 109.12L107.755 110.496C108.109 110.718 108.292 111.132 108.219 111.542L107.782 113.987C107.694 114.483 107.98 114.97 108.457 115.133Z" fill="white" stroke="#819DB2"/>
<path d="M146.139 72.3946C146.088 72.2964 146.126 72.1754 146.225 72.1244L156.208 66.9369C156.27 66.9049 156.343 66.9068 156.401 66.9446C156.624 67.089 157.182 67.4772 157.404 67.8767C157.646 68.3129 157.654 69.0616 157.648 69.3446C157.646 69.4149 157.605 69.4772 157.543 69.5097L147.561 74.6964C147.463 74.7474 147.342 74.7092 147.291 74.611L146.139 72.3946Z" fill="white" stroke="#819DB2"/>
<ellipse cx="147.329" cy="73.0662" rx="1.244" ry="2.04096" transform="rotate(-30.8309 147.329 73.0662)" fill="white" stroke="#819DB2"/>
</svg>
