<svg width="291" height="164" viewBox="0 0 291 164" fill="none" xmlns="http://www.w3.org/2000/svg">
<path d="M72.2702 84.4425C72.2702 84.4425 69.5737 75.3301 73.0165 71.7549C75.1939 69.4937 80.4798 68.7695 80.4798 68.7695" stroke="#819DB2"/>
<path d="M137.2 89.666C137.2 89.666 153.444 94.8121 156.605 100.861C158.904 105.26 152.873 107.578 152.873 107.578L133.469 115.041C147.649 113.549 154.366 115.788 149.142 118.027C144.421 120.05 141.678 121.261 140.932 121.758" stroke="#819DB2"/>
<path d="M148.121 55.813L143.142 59.378C143.036 59.4541 142.977 59.58 142.987 59.7103L146.274 103.06C146.289 103.261 146.461 103.414 146.663 103.405L151.905 103.177C152.116 103.167 152.278 102.985 152.262 102.775L148.711 56.0886C148.689 55.798 148.358 55.6434 148.121 55.813Z" fill="white" stroke="#819DB2"/>
<path d="M136.383 56.2134L131.403 59.7784C131.297 59.8545 131.238 59.9804 131.248 60.1106L134.536 103.46C134.551 103.661 134.723 103.814 134.925 103.805L140.167 103.577C140.378 103.568 140.539 103.386 140.523 103.175L136.973 56.489C136.951 56.1984 136.62 56.0438 136.383 56.2134Z" fill="white" stroke="#819DB2"/>
<path d="M188.884 1.00736L186.929 2.04192C186.925 2.04399 186.923 2.04871 186.925 2.05278L189.705 8.52527C189.71 8.53559 189.721 8.54072 189.732 8.53703L191.844 7.8015C192.576 7.54669 193.21 7.06951 193.657 6.43672C195.914 3.24294 192.341 -0.82172 188.884 1.00736Z" fill="white" stroke="#819DB2"/>
<path d="M183.145 137.814C183.248 148.784 176.677 157.735 168.469 157.806L157.916 157.792L157.867 118.066L168.096 118.079C176.304 118.008 183.042 126.843 183.145 137.814Z" fill="#346184" stroke="#819DB2"/>
<ellipse cx="15.5564" cy="19.9982" rx="15.5564" ry="19.9982" transform="matrix(0.999962 -0.00869351 0.0093893 0.999956 140.188 118.025)" fill="white" stroke="#819DB2"/>
<ellipse cx="9.32322" cy="11.3329" rx="9.32322" ry="11.3329" transform="matrix(0.999962 -0.00869351 0.0093893 0.999956 145.883 127.219)" fill="white" stroke="#819DB2"/>
<ellipse cx="8.42268" cy="10.2455" rx="8.42268" ry="10.2455" transform="matrix(0.999962 -0.00869351 0.0093893 0.999956 147.691 128.289)" fill="#346184" stroke="#819DB2"/>
<path d="M88.0221 114.738L92.3631 108.641C92.4333 108.543 92.5467 108.484 92.6676 108.484H133.168C133.374 108.484 133.542 108.652 133.542 108.858V132.087C133.542 132.297 133.369 132.466 133.159 132.461L78.6065 131.153C78.4568 131.15 78.3236 131.057 78.2682 130.918L72.0944 115.407C71.9967 115.162 72.1776 114.895 72.4417 114.895H87.7176C87.8385 114.895 87.952 114.837 88.0221 114.738Z" fill="#819DB2" stroke="#819DB2"/>
<path d="M143.347 120.17L118.446 123.363C118.411 123.367 118.375 123.367 118.34 123.361L88.1083 118.591C87.8389 118.548 87.7042 118.241 87.8557 118.014L94.9159 107.444C94.9959 107.324 95.1376 107.261 95.2802 107.282L133.541 112.816L143.369 114.677C143.545 114.71 143.673 114.865 143.673 115.044V119.799C143.673 119.987 143.533 120.146 143.347 120.17Z" fill="white" stroke="#819DB2"/>
<path d="M142.903 114.623L108.885 118.023C108.856 118.026 108.827 118.026 108.797 118.022L92.6904 115.825C92.6473 115.819 92.6472 115.757 92.6902 115.751L124.508 111.311C124.512 111.311 124.516 111.311 124.52 111.312L142.905 114.549C142.948 114.557 142.946 114.619 142.903 114.623Z" fill="#819DB2" stroke="#819DB2"/>
<path d="M160.789 122.69L123.529 126.533C123.476 126.538 123.423 126.532 123.374 126.516L109.691 122.02C109.31 121.894 109.368 121.337 109.767 121.293L146.075 117.29C146.127 117.284 146.18 117.289 146.23 117.305L160.864 121.962C161.25 122.084 161.192 122.648 160.789 122.69Z" fill="#819DB2" stroke="#819DB2"/>
<path d="M168.231 137.361L116.338 141.908C116.315 141.91 116.291 141.91 116.268 141.907L93.8571 139.611C93.8218 139.607 93.7872 139.599 93.7544 139.585L75.5379 132.177C75.4243 132.131 75.3406 132.032 75.3139 131.912L73.1575 122.261C73.0946 121.98 73.3606 121.736 73.6355 121.823L95.8625 128.889C95.9191 128.907 95.9792 128.911 96.0377 128.901L121.04 124.699L156.605 121.626C156.605 121.626 161.377 120.831 164.815 124.699C168.639 129.002 168.622 135.525 168.563 137.021C168.556 137.203 168.413 137.345 168.231 137.361Z" fill="white" stroke="#819DB2"/>
<path d="M109.804 132.819H99.9495C99.9185 132.819 99.8876 132.815 99.8576 132.807L66.214 124.279C65.8262 124.18 65.8431 123.624 66.2361 123.549L71.9976 122.455C72.0513 122.445 72.1067 122.446 72.1597 122.46L109.896 132.083C110.322 132.191 110.244 132.819 109.804 132.819Z" fill="#819DB2" stroke="#819DB2"/>
<path d="M231.469 89.1958L230.951 93.4888C230.922 93.7297 230.675 93.8795 230.448 93.7937L206.697 84.8141C206.428 84.7125 206.37 84.3586 206.591 84.176L210.23 81.1762C210.333 81.0913 210.474 81.0677 210.599 81.1143L231.228 88.8007C231.39 88.861 231.49 89.0244 231.469 89.1958Z" fill="white" stroke="#819DB2"/>
<path d="M184.746 5.7392L186.089 7.46128C186.212 7.61889 186.189 7.84532 186.037 7.97523L170.714 21.0813C170.559 21.214 170.326 21.1977 170.191 21.0447L168.709 19.3673C168.571 19.2105 168.588 18.9706 168.747 18.8351L184.209 5.68433C184.371 5.54654 184.615 5.57149 184.746 5.7392Z" fill="white" stroke="#819DB2"/>
<path d="M227.802 91.8313L230.657 90.6498C230.846 90.5716 230.937 90.3559 230.861 90.1658L222.106 68.2366C222.041 68.0747 221.873 67.979 221.701 68.0058L218.534 68.4994C218.296 68.5365 218.155 68.7848 218.244 69.0079L227.312 91.625C227.389 91.8182 227.609 91.9109 227.802 91.8313Z" fill="white" stroke="#819DB2"/>
<path d="M173.048 13.3219L176.678 17.5552C176.811 17.7093 176.796 17.9407 176.645 18.0765L145.397 46.1808C145.316 46.2537 145.207 46.2876 145.099 46.2735L137.004 45.2245C136.685 45.1832 136.564 44.7847 136.806 44.5726L172.518 13.2841C172.674 13.147 172.913 13.164 173.048 13.3219Z" fill="white" stroke="#819DB2"/>
<path d="M152.569 99.2573L145.986 99.7408C145.771 99.7565 145.614 99.95 145.643 100.163L146.07 103.336C146.096 103.531 146.269 103.673 146.466 103.659L152.737 103.232C152.939 103.218 153.093 103.047 153.086 102.846L152.97 99.6167C152.962 99.4049 152.78 99.2417 152.569 99.2573Z" fill="white" stroke="#819DB2"/>
<path d="M140.827 99.6577L134.243 100.141C134.029 100.157 133.872 100.35 133.9 100.564L134.328 103.737C134.354 103.932 134.527 104.073 134.724 104.06L140.995 103.632C141.197 103.619 141.351 103.448 141.343 103.246L141.228 100.017C141.22 99.8053 141.038 99.6421 140.827 99.6577Z" fill="#346184" stroke="#819DB2"/>
<path d="M128.286 109.706H104.324C104.051 109.706 103.87 109.423 103.985 109.175L131.053 50.9404C133.052 46.6398 136.612 43.2609 141.012 41.4898L181.308 25.267C181.409 25.2264 181.523 25.2317 181.619 25.2815L189.257 29.2163C189.338 29.2578 189.401 29.3272 189.434 29.4116L191.662 35.0667C191.727 35.2316 191.667 35.4195 191.519 35.5165L155.193 59.2789C152.289 61.1787 149.972 63.8502 148.502 66.9937L128.624 109.491C128.563 109.622 128.431 109.706 128.286 109.706Z" fill="white" stroke="#819DB2"/>
<path d="M120.358 110.118L100.914 102.609C100.702 102.527 100.611 102.276 100.723 102.077L130.926 48.1864C133.127 44.2591 136.673 41.2594 140.911 39.7395L182.955 24.6606C185.205 23.8536 187.689 24.978 188.568 27.2009C189.343 29.1602 188.629 31.3937 186.863 32.5416L147.162 58.3384C144.144 60.2997 141.757 63.0918 140.288 66.3784L120.834 109.921C120.753 110.103 120.543 110.189 120.358 110.118Z" fill="white" stroke="#819DB2"/>
<path d="M181.415 5.13229L186.115 1.24683C186.185 1.18826 186.27 1.148 186.36 1.12961L189.392 0.510542C189.589 0.470217 189.793 0.539019 189.926 0.690743L196.727 8.46544C196.788 8.53503 196.865 8.58849 196.952 8.62105L199.426 9.55204C199.563 9.60371 199.675 9.70712 199.737 9.8401L207.834 27.2256C207.902 27.3714 207.904 27.5393 207.839 27.6867L205 34.1881C204.955 34.2906 204.942 34.4042 204.963 34.5142L221.617 124.739C221.675 125.048 221.466 125.344 221.155 125.394L202.114 128.46C201.704 128.526 201.367 128.138 201.489 127.741L206.653 110.935C206.687 110.825 206.686 110.707 206.651 110.598L181.144 31.8037C181.119 31.7256 181.111 31.6429 181.121 31.5615L183.559 12.053C183.571 11.9623 183.56 11.8703 183.527 11.7849L181.247 5.76299C181.163 5.53865 181.23 5.28513 181.415 5.13229Z" fill="white" stroke="#819DB2"/>
<path d="M177.495 18.5134L172.71 12.0268C172.569 11.8359 172.288 11.8228 172.13 11.9998L169.896 14.5023C169.779 14.6338 169.769 14.8295 169.873 14.9718L174.407 21.1772C174.537 21.3556 174.793 21.3826 174.958 21.2354L177.443 19.0139C177.587 18.8854 177.609 18.6686 177.495 18.5134Z" fill="white" stroke="#819DB2"/>
<path d="M181.416 5.13287L185.765 1.53736C186.014 1.3317 186.385 1.378 186.575 1.63855L190.614 7.16195L202.346 27.2326C202.429 27.3741 202.445 27.5446 202.392 27.6993L200 34.5944C199.423 36.2593 199.3 38.0482 199.644 39.7765L216.795 125.84C216.858 126.156 216.642 126.46 216.323 126.505L202.098 128.482C201.692 128.539 201.364 128.154 201.485 127.762L206.179 112.483C206.522 111.367 206.508 110.171 206.139 109.063L181.114 34.0019C179.998 30.6559 179.853 27.0624 180.696 23.6374L183.537 12.0849C183.564 11.9746 183.557 11.8586 183.517 11.7524L181.249 5.76357C181.164 5.53923 181.231 5.28571 181.416 5.13287Z" fill="white" stroke="#819DB2"/>
<path d="M205.487 26.1231L201.831 31.0361C201.754 31.1409 201.736 31.2788 201.785 31.3998L218.128 71.6848C218.204 71.8717 218.414 71.9648 218.603 71.895L223.527 70.08C223.725 70.007 223.823 69.7844 223.744 69.5887L206.134 26.2056C206.024 25.9356 205.661 25.8893 205.487 26.1231Z" fill="white" stroke="#819DB2"/>
<path d="M230.053 95.1775L226.69 90.3971C226.561 90.2132 226.3 90.1843 226.133 90.3355L207.662 107.114C207.522 107.24 207.499 107.451 207.607 107.605L211.14 112.652C211.27 112.838 211.535 112.866 211.701 112.712L230.002 95.6661C230.139 95.5388 230.161 95.3302 230.053 95.1775Z" fill="white" stroke="#819DB2"/>
<path d="M60.8819 89.19L61.9963 103.776C62.0098 103.953 62.1458 104.096 62.3218 104.118L124.893 112.084C124.921 112.088 124.949 112.088 124.977 112.085L154.515 109.186C154.706 109.167 154.852 109.006 154.852 108.814V101.517C154.852 101.311 154.685 101.143 154.478 101.143H144.504C144.274 101.143 144.099 100.937 144.135 100.71L145.348 93.1364C145.365 93.0326 145.337 92.9266 145.271 92.8444L144.401 91.7511C144.238 91.5474 143.923 91.5679 143.788 91.7909L142.682 93.6231C142.62 93.7263 142.512 93.7931 142.392 93.8026L130.239 94.756C130.192 94.7597 130.146 94.7547 130.101 94.7413L82.0169 80.2405C81.9819 80.23 81.9456 80.2246 81.909 80.2246H67.7581C67.6412 80.2246 67.5311 80.2793 67.4604 80.3723L60.9569 88.9355C60.9016 89.0083 60.8749 89.0989 60.8819 89.19Z" fill="white" stroke="#819DB2"/>
<path d="M60.3491 98.9093L106.589 105.382C106.617 105.385 106.645 105.386 106.672 105.384L133.351 103.139C133.569 103.121 133.757 103.293 133.757 103.512V111.099C133.757 111.29 133.613 111.45 133.423 111.471L106.675 114.366C106.646 114.37 106.616 114.369 106.586 114.365L60.8092 108.306C60.6324 108.282 60.4968 108.137 60.4852 107.959L59.9242 99.3037C59.9089 99.0673 60.1145 98.8765 60.3491 98.9093Z" fill="white" stroke="#819DB2"/>
<path d="M201.908 31.584C201.908 31.584 203.496 42.9554 200.033 50.7728C195.721 60.5064 182.588 58.6954 182.588 41.7889C182.588 31.6861 194.416 4.47265 184.725 4.47266C159.896 4.47268 170.293 65.1513 148.892 66.8796C140.431 67.5629 141.769 41.7889 131.302 41.7889C117.415 41.7889 117.885 79.4977 117.885 79.4977" stroke="#346184"/>
<path d="M77.739 51.2881L95.8511 49.1488C95.8753 49.146 95.8998 49.1455 95.9241 49.1474L123.447 51.3044C123.605 51.3168 123.738 51.4279 123.779 51.5814L133.061 86.6609C133.069 86.6921 133.073 86.7243 133.073 86.7565V102.908C133.073 103.102 132.924 103.264 132.731 103.28L106.058 105.545C106.032 105.547 106.007 105.546 105.982 105.543L86.9864 103.29C86.7983 103.268 86.6566 103.108 86.6566 102.919V93.1644C86.6566 93.0526 86.6066 92.9467 86.5203 92.8757L75.8994 84.1382C75.8079 84.063 75.7575 83.9488 75.7635 83.8305L77.4095 51.6402C77.4188 51.4582 77.558 51.3094 77.739 51.2881Z" fill="white" stroke="#819DB2"/>
<path d="M77.739 51.2881L95.5669 49.1824C95.751 49.1607 95.9233 49.2772 95.9716 49.4563L106.007 86.6601C106.015 86.6918 106.02 86.7246 106.02 86.7574V105.127C106.02 105.351 105.824 105.525 105.602 105.498L86.9864 103.29C86.7983 103.268 86.6566 103.108 86.6566 102.919V93.1644C86.6566 93.0526 86.6066 92.9467 86.5203 92.8757L75.8994 84.1382C75.8079 84.063 75.7575 83.9488 75.7635 83.8305L77.4095 51.6402C77.4188 51.4582 77.558 51.3094 77.739 51.2881Z" fill="white" stroke="#819DB2"/>
<path d="M124.647 56.4115L100.789 54.9063C100.532 54.8901 100.335 55.1332 100.406 55.3813L109.107 86.0905C109.154 86.257 109.309 86.3694 109.482 86.3621L132.113 85.4057C132.351 85.3956 132.519 85.1674 132.458 84.9366L124.985 56.689C124.944 56.5334 124.808 56.4217 124.647 56.4115Z" fill="#CBD8E0" stroke="#819DB2"/>
<path d="M95.2258 54.5738L86.9187 55.4908C86.7293 55.5117 86.5859 55.6718 86.5859 55.8624V89.783C86.5859 89.8898 86.6317 89.9916 86.7116 90.0625L98.0221 100.105C98.0905 100.166 98.1788 100.2 98.2703 100.2H102.624C102.831 100.2 102.998 100.032 102.998 99.8257V81.0479C102.998 81.0136 102.993 80.9795 102.984 80.9465L95.6266 54.844C95.577 54.668 95.4075 54.5538 95.2258 54.5738Z" fill="white" stroke="#819DB2"/>
<path d="M86.6908 55.5254L77.4453 56.4267" stroke="#819DB2"/>
<path d="M87.5156 80.4323V57.6498C87.5156 57.4653 87.6503 57.3084 87.8327 57.2804L93.0605 56.4781C93.2476 56.4494 93.4267 56.5651 93.4774 56.7475L100.031 80.3323C100.097 80.5704 99.9181 80.8061 99.6709 80.8061H87.8894C87.683 80.8061 87.5156 80.6388 87.5156 80.4323Z" fill="#CBD8E0" stroke="#819DB2" stroke-width="0.5"/>
<path d="M130.242 138.332L129.662 136.354C129.594 136.124 129.757 135.891 129.996 135.875L144.341 134.931C144.58 134.915 144.773 135.126 144.735 135.363L144.45 137.138C144.423 137.308 144.284 137.437 144.112 137.452L130.633 138.599C130.455 138.615 130.292 138.503 130.242 138.332Z" fill="#CBD8E0" stroke="#819DB2"/>
<path d="M130.715 135.385L130.134 133.406C130.067 133.177 130.23 132.944 130.468 132.928L144.814 131.984C145.053 131.968 145.245 132.179 145.207 132.416L144.923 134.191C144.895 134.361 144.756 134.49 144.585 134.504L131.105 135.652C130.928 135.667 130.765 135.556 130.715 135.385Z" fill="#CBD8E0" stroke="#819DB2"/>
<path d="M75.9732 83.6836L74.5195 88.8918V101.041" stroke="#819DB2"/>
<path d="M60.8867 89.1934L74.566 90.7488" stroke="#819DB2"/>
<path d="M233.82 115.996L196.889 121.994C196.538 122.051 196.276 122.347 196.261 122.702L195.985 129.548C195.147 144.128 198.051 149.919 193.644 152.027C189.248 154.128 220.986 140.1 237.616 134.37C237.705 134.34 237.783 134.294 237.854 134.232C240.92 131.546 242.212 127.238 240.889 122.844C239.889 119.521 235.353 116.701 234.295 116.082C234.151 115.997 233.984 115.97 233.82 115.996Z" fill="white" stroke="#819DB2"/>
<path d="M225.828 120.556L234.071 93.8415C234.681 91.8653 233.203 89.8633 231.135 89.8633C229.818 89.8633 228.647 90.703 228.225 91.9508L218.149 121.725C218.057 121.998 218.295 122.268 218.577 122.211L225.544 120.813C225.679 120.786 225.787 120.687 225.828 120.556Z" fill="white" stroke="#819DB2"/>
<path d="M230.176 88.7988L226.821 89.7573C226.814 89.7593 226.81 89.7666 226.811 89.7739L228.23 96.5782C228.232 96.5863 228.24 96.5914 228.248 96.5892L232.058 95.5541C233.994 95.0282 235.095 92.988 234.472 91.081C233.886 89.289 231.989 88.2809 230.176 88.7988Z" fill="white" stroke="#819DB2"/>
<path d="M203.276 131.583L196.535 122.566C196.464 122.471 196.325 122.465 196.246 122.553L187.34 132.489C187.302 132.532 187.286 132.591 187.295 132.647C189.404 145.066 180.912 152.386 178.862 153.952C178.721 154.06 178.787 154.291 178.965 154.298C181.556 154.409 192.836 154.582 198.47 149.638C202.193 146.372 203.242 141.686 203.309 141.368C203.312 141.356 203.313 141.345 203.313 141.332V131.695C203.313 131.655 203.3 131.615 203.276 131.583Z" fill="white" stroke="#819DB2"/>
<ellipse cx="209.926" cy="109.701" rx="3.26399" ry="3.62863" transform="rotate(-0.517658 209.926 109.701)" fill="white" stroke="#819DB2"/>
<ellipse cx="228.011" cy="93.0111" rx="3.26399" ry="3.62863" transform="rotate(-0.517658 228.011 93.0111)" fill="white" stroke="#819DB2"/>
<path d="M204.975 25.6122L201.748 26.348C201.74 26.3497 201.735 26.357 201.737 26.3645L202.982 33.5892C202.983 33.5977 202.992 33.603 203 33.6008L206.717 32.5909C208.704 32.0513 209.833 29.9583 209.194 28.0019C208.616 26.2349 206.787 25.199 204.975 25.6122Z" fill="white" stroke="#819DB2"/>
<path d="M184.345 1.48588L182.39 2.52044C182.386 2.52251 182.384 2.52723 182.386 2.53129L185.166 9.00379C185.17 9.0141 185.182 9.01924 185.193 9.01555L187.305 8.28002C188.037 8.02521 188.671 7.54803 189.118 6.91523C191.375 3.72146 187.802 -0.343204 184.345 1.48588Z" fill="white" stroke="#819DB2"/>
<ellipse cx="203.617" cy="85.6849" rx="3.26399" ry="3.62863" transform="rotate(-0.517658 203.617 85.6849)" fill="white" stroke="#819DB2"/>
<ellipse cx="202.804" cy="29.9799" rx="3.26399" ry="3.62863" transform="rotate(-0.517658 202.804 29.9799)" fill="white" stroke="#819DB2"/>
<ellipse cx="184.402" cy="5.4115" rx="3.26399" ry="3.62863" transform="rotate(-0.517658 184.402 5.4115)" fill="white" stroke="#819DB2"/>
<ellipse cx="138.271" cy="47.4826" rx="5.34606" ry="5.94521" transform="rotate(-0.517658 138.271 47.4826)" fill="white" stroke="#819DB2"/>
<ellipse cx="185.07" cy="28.847" rx="3.26399" ry="3.62863" transform="rotate(-0.517658 185.07 28.847)" fill="white" stroke="#819DB2"/>
<ellipse cx="209.66" cy="110.003" rx="1.94925" ry="2.16701" transform="rotate(-0.517658 209.66 110.003)" fill="white" stroke="#819DB2"/>
<ellipse cx="227.859" cy="93.0243" rx="1.94925" ry="2.16701" transform="rotate(-0.517658 227.859 93.0243)" fill="white" stroke="#819DB2"/>
<ellipse cx="203.176" cy="85.6962" rx="1.94925" ry="2.16701" transform="rotate(-0.517658 203.176 85.6962)" fill="white" stroke="#819DB2"/>
<ellipse cx="202.652" cy="29.9911" rx="1.94925" ry="2.16701" transform="rotate(-0.517658 202.652 29.9911)" fill="white" stroke="#819DB2"/>
<ellipse cx="184.352" cy="5.42275" rx="1.94925" ry="2.16701" transform="rotate(-0.517658 184.352 5.42275)" fill="white" stroke="#819DB2"/>
<ellipse cx="138.017" cy="47.4772" rx="3.02601" ry="3.36408" transform="rotate(-0.517658 138.017 47.4772)" fill="white" stroke="#819DB2"/>
<ellipse cx="185.02" cy="28.8563" rx="1.94925" ry="2.16701" transform="rotate(-0.517658 185.02 28.8563)" fill="white" stroke="#819DB2"/>
<path d="M135.58 141.523C135.685 153.144 127.938 162.636 118.277 162.723L105.857 162.723L105.858 120.639L117.897 120.639C127.558 120.552 135.475 129.902 135.58 141.523Z" fill="#346184" stroke="#819DB2"/>
<ellipse cx="106.155" cy="141.704" rx="15.7509" ry="21.0429" transform="rotate(-0.517658 106.155 141.704)" fill="white" stroke="#819DB2"/>
<ellipse cx="105.539" cy="142.318" rx="9.43982" ry="11.9249" transform="rotate(-0.517658 105.539 142.318)" fill="white" stroke="#819DB2"/>
<ellipse cx="106.449" cy="142.307" rx="8.52802" ry="10.7807" transform="rotate(-0.517658 106.449 142.307)" fill="white" stroke="#819DB2"/>
<ellipse cx="104.787" cy="142.324" rx="6.86533" ry="8.67105" transform="rotate(-0.517658 104.787 142.324)" fill="white" stroke="#819DB2"/>
<ellipse cx="104.788" cy="142.323" rx="2.3242" ry="2.91419" transform="rotate(-0.517658 104.788 142.323)" fill="white" stroke="#819DB2"/>
<path d="M86.8852 137.116C86.9742 126.456 80.1271 117.747 71.5918 117.664L60.6192 117.659L60.6335 156.261L71.2695 156.265C79.8048 156.349 86.7962 147.775 86.8852 137.116Z" fill="#346184" stroke="#819DB2"/>
<ellipse cx="13.5218" cy="19.5473" rx="13.5218" ry="19.5473" transform="matrix(0.999952 0.00977618 0.00834947 -0.999965 47.8438 156.373)" fill="white" stroke="#819DB2"/>
<ellipse cx="8.10386" cy="11.0774" rx="8.10386" ry="11.0774" transform="matrix(0.999952 0.00977618 0.00834947 -0.999965 52.8047 147.389)" fill="white" stroke="#819DB2"/>
<ellipse cx="7.3211" cy="10.0145" rx="7.3211" ry="10.0145" transform="matrix(0.999952 0.00977618 0.00834947 -0.999965 54.375 146.34)" fill="white" stroke="#819DB2"/>
<ellipse cx="5.89372" cy="8.05475" rx="5.89372" ry="8.05475" transform="matrix(0.999952 0.00977618 0.00834947 -0.999965 54.3945 144.381)" fill="white" stroke="#819DB2"/>
<ellipse cx="1.99527" cy="2.70706" rx="1.99527" ry="2.70706" transform="matrix(0.999952 0.00977618 0.00834947 -0.999965 58.3359 139.07)" fill="white" stroke="#819DB2"/>
<path d="M222.712 66.2921L216.554 68.6695C216.353 68.7471 216.259 68.9779 216.349 69.1738L217.681 72.085C217.763 72.264 217.969 72.3488 218.153 72.2789L224.03 70.046C224.218 69.9743 224.316 69.7659 224.25 69.5751L223.2 66.5194C223.131 66.3189 222.91 66.2158 222.712 66.2921Z" fill="white" stroke="#819DB2"/>
<path d="M203.43 141.339L241.168 128.691" stroke="#819DB2"/>
<path d="M203.43 138.343L241.255 126.771" stroke="#819DB2"/>
<path d="M203.406 131.617L205.862 130.889V133.633L209.147 132.671V130.252L213.54 128.964V131.617L218.162 130.252V127.832L222.796 126.545V128.964L226.671 127.832V125.738L230.475 124.841V126.545L234.495 125.335V123.722L237.335 122.994V124.841L239.646 124.282V122.266H240.621" stroke="#819DB2"/>
</svg>
