<svg width="292" height="164" viewBox="0 0 292 164" fill="none" xmlns="http://www.w3.org/2000/svg">
<rect x="182.887" y="65.2988" width="1.77143" height="24.562" transform="rotate(-132.495 182.887 65.2988)" fill="#F5F9FC" stroke="#819DB2"/>
<rect x="199.629" y="45.8301" width="1.77143" height="14.623" transform="rotate(-3.79413 199.629 45.8301)" fill="#F5F9FC" stroke="#819DB2"/>
<path d="M107.18 69.897V72.2349C107.18 72.3362 107.299 72.3995 107.371 72.3288C113.337 66.5174 164.301 67.8397 165.394 67.8688C165.419 67.8695 165.416 67.864 165.433 67.8449C166.137 67.0176 184.717 45.4069 201.389 48.1213C201.424 48.127 201.459 48.1159 201.483 48.09C202.323 47.177 202.792 44.94 198.183 42.9568C193.504 40.9436 182.643 38.069 175.478 37.2348C165.768 36.3679 145.195 33.2562 133.062 40.1169C126.699 43.715 113.138 60.5183 107.196 69.8399C107.185 69.8572 107.18 69.8765 107.18 69.897Z" fill="#CBD8E0" stroke="#819DB2"/>
<rect x="117.051" y="57.2188" width="1.77143" height="14.623" transform="rotate(-38.4766 117.051 57.2188)" fill="#F5F9FC" stroke="#819DB2"/>
<rect x="107.539" y="71.1699" width="1.77143" height="8.97587" transform="rotate(-45.3434 107.539 71.1699)" fill="#F5F9FC" stroke="#819DB2"/>
<rect x="136.371" y="42.8926" width="1.77143" height="16.7181" transform="rotate(-6.74788 136.371 42.8926)" fill="#F5F9FC" stroke="#819DB2"/>
<path d="M80.8747 132.306L79.5703 143.393L106.311 148.611L119.355 146.654L125.877 144.698L146.259 144.045L166.967 149.915L184.577 144.045L196.969 139.48L253.711 143.393L267.408 134.262L268.712 126.436L273.278 110.783L282.409 87.9551L230.232 89.9117L176.098 101.652L80.8747 132.306Z" fill="white"/>
<path d="M107.18 69.897V72.2349C107.18 72.3362 107.301 72.3882 107.364 72.3092C112.446 65.9799 123.158 48.0678 140.977 42.9568C146.399 41.4016 158.846 41.326 169.939 42.0571C179.171 42.6655 194.727 46.384 201.386 48.1153C201.424 48.125 201.461 48.1139 201.488 48.0853C202.324 47.1694 202.784 44.9367 198.183 42.9568C193.504 40.9436 182.643 38.069 175.478 37.2348C165.768 36.3679 145.195 33.2562 133.062 40.1169C126.699 43.715 113.138 60.5183 107.196 69.8399C107.185 69.8572 107.18 69.8765 107.18 69.897Z" fill="white" stroke="#819DB2"/>
<rect x="175.055" y="58.5664" width="1.77143" height="10.9772" transform="rotate(-39.1754 175.055 58.5664)" fill="#F5F9FC" stroke="#819DB2"/>
<rect x="190.555" y="68.6016" width="1.77143" height="13.2253" transform="rotate(-120.822 190.555 68.6016)" fill="#F5F9FC" stroke="#819DB2"/>
<path d="M80.3246 121.13L98.7105 112.541C98.7765 112.51 98.8533 112.552 98.863 112.624L99.0438 113.974C99.0501 114.021 99.0248 114.067 98.9814 114.086L83.273 121.209C83.1642 121.258 83.2032 121.419 83.3223 121.411C85.1428 121.282 88.3717 120.969 90.7034 120.619C93.8464 120.146 95.408 119.556 97.4291 119.013C97.5014 118.994 97.571 119.053 97.5641 119.127L97.4579 120.284C97.4541 120.325 97.4273 120.36 97.388 120.374C97.1464 120.46 96.2645 120.764 95.5537 120.9C94.8981 121.025 93.9485 121.215 93.5756 121.29C93.5 121.305 93.4648 121.392 93.5082 121.456L94.4514 122.841C94.4903 122.898 94.4661 122.977 94.4017 123.002L93.4911 123.359C93.4469 123.376 93.3966 123.363 93.3672 123.326L92.1765 121.821C92.1523 121.79 92.1136 121.775 92.0752 121.781L89.4662 122.193L86.3159 122.512C86.2343 122.521 86.1915 122.613 86.2382 122.681L88.078 125.338C88.1186 125.397 88.0921 125.478 88.0248 125.501L87.2653 125.766C87.2199 125.781 87.1696 125.765 87.1418 125.726L85.0288 122.733C85.008 122.703 84.9744 122.686 84.9383 122.687C84.7062 122.692 83.8166 122.711 83.1959 122.685C82.6698 122.663 81.9054 122.591 81.5328 122.553C81.4432 122.544 81.3826 122.643 81.4305 122.719L84.0425 126.867C84.0778 126.923 84.0546 126.997 83.9937 127.023L83.0147 127.443C82.9654 127.464 82.9081 127.445 82.8802 127.4L79.9066 122.514C79.6062 122.02 79.8012 121.375 80.3246 121.13Z" fill="white" stroke="#819DB2"/>
<path fill-rule="evenodd" clip-rule="evenodd" d="M113.219 76.8808C113.24 76.7726 113.301 76.6764 113.391 76.6122L137.647 59.2238C138.551 58.5761 139.59 58.1495 140.689 57.9866C145.176 57.3219 157.749 55.5505 166.464 55.2161C172.258 54.9938 175.663 54.9993 181.536 55.6098C189.035 56.3893 199.984 59.444 202.405 60.137C202.663 60.2107 202.783 60.4971 202.664 60.7371L198.642 68.8856C198.582 69.0069 198.469 69.0931 198.336 69.1183L154.669 77.4152L111.433 89.4043C111.125 89.4898 110.834 89.2213 110.895 88.9071L113.219 76.8808ZM114.538 77.7798C114.559 77.6717 114.621 77.5759 114.711 77.5121L137.967 60.9827C138.239 60.7891 138.619 60.9656 138.646 61.2987L139.14 67.2938C139.152 67.4491 139.08 67.5993 138.951 67.6865L113.948 84.5619C113.629 84.7772 113.209 84.4984 113.284 84.1209L114.538 77.7798ZM140.715 59.751C140.487 59.7861 140.332 59.9937 140.357 60.2227L141.036 66.3761C141.063 66.6221 141.286 66.7956 141.53 66.7556C143.257 66.4726 149.643 65.4395 154.188 64.8888C158.327 64.3874 164.469 63.7992 166.176 63.638C166.424 63.6146 166.597 63.3869 166.558 63.1408L165.666 57.5423C165.631 57.3233 165.439 57.1664 165.217 57.1801C163.575 57.2822 157.067 57.6982 152.712 58.1405C148.449 58.5735 142.329 59.5021 140.715 59.751ZM167.736 57.3694C167.701 57.1189 167.887 56.8928 168.14 56.8813C169.149 56.8356 171.604 56.7348 173.674 56.7348C175.85 56.7348 178.905 57.0778 179.977 57.2068C180.198 57.2334 180.36 57.4251 180.352 57.6476L180.144 63.4096C180.135 63.6613 179.915 63.8523 179.664 63.8257C178.701 63.7234 176.422 63.5024 174.616 63.491C172.478 63.4774 169.942 63.5563 168.988 63.5894C168.766 63.597 168.576 63.4361 168.546 63.2166L167.736 57.3694ZM182.453 57.4459C182.211 57.4236 182.006 57.609 181.996 57.8512L181.763 63.4455C181.754 63.6663 181.911 63.8581 182.13 63.8906C183.359 64.0732 187.283 64.6687 189.929 65.212C192.563 65.7527 196.508 66.7171 197.659 67.0011C197.851 67.0485 198.05 66.9591 198.143 66.7841L200.78 61.8138C200.911 61.5678 200.78 61.2653 200.51 61.1958C198.974 60.7997 194.401 59.6293 191.265 58.9136C186.882 57.9134 183.595 57.551 182.453 57.4459Z" fill="#F5F9FC"/>
<path d="M113.391 76.6122L113.245 76.409L113.245 76.409L113.391 76.6122ZM113.219 76.8808L112.973 76.8334L112.973 76.8334L113.219 76.8808ZM137.647 59.2238L137.502 59.0206L137.502 59.0206L137.647 59.2238ZM140.689 57.9866L140.653 57.7393L140.653 57.7393L140.689 57.9866ZM166.464 55.2161L166.474 55.4659L166.464 55.2161ZM181.536 55.6098L181.51 55.8584L181.51 55.8584L181.536 55.6098ZM202.405 60.137L202.474 59.8967L202.474 59.8967L202.405 60.137ZM202.664 60.7371L202.888 60.8478L202.888 60.8478L202.664 60.7371ZM198.642 68.8856L198.418 68.775L198.418 68.775L198.642 68.8856ZM198.336 69.1183L198.289 68.8727L198.289 68.8727L198.336 69.1183ZM154.669 77.4152L154.622 77.1696L154.612 77.1715L154.602 77.1743L154.669 77.4152ZM111.433 89.4043L111.5 89.6452L111.5 89.6452L111.433 89.4043ZM110.895 88.9071L110.649 88.8597L110.649 88.8597L110.895 88.9071ZM114.711 77.5121L114.566 77.3083L114.566 77.3083L114.711 77.5121ZM114.538 77.7798L114.783 77.8283L114.783 77.8283L114.538 77.7798ZM137.967 60.9827L137.822 60.7789L137.822 60.7789L137.967 60.9827ZM138.646 61.2987L138.895 61.2782L138.895 61.2782L138.646 61.2987ZM139.14 67.2938L138.89 67.3143L138.89 67.3143L139.14 67.2938ZM138.951 67.6865L139.091 67.8937L139.091 67.8937L138.951 67.6865ZM113.948 84.5619L113.808 84.3547L113.808 84.3547L113.948 84.5619ZM113.284 84.1209L113.529 84.1694L113.529 84.1694L113.284 84.1209ZM140.357 60.2227L140.109 60.2501L140.109 60.2501L140.357 60.2227ZM140.715 59.751L140.753 59.9981L140.753 59.9981L140.715 59.751ZM141.036 66.3761L140.787 66.4035L140.787 66.4035L141.036 66.3761ZM141.53 66.7556L141.49 66.5089L141.49 66.5089L141.53 66.7556ZM154.188 64.8888L154.219 65.137L154.219 65.137L154.188 64.8888ZM166.176 63.638L166.153 63.3891L166.153 63.3891L166.176 63.638ZM166.558 63.1408L166.805 63.1015L166.805 63.1015L166.558 63.1408ZM165.666 57.5423L165.419 57.5817L165.419 57.5817L165.666 57.5423ZM165.217 57.1801L165.233 57.4297L165.233 57.4297L165.217 57.1801ZM152.712 58.1405L152.687 57.8918L152.687 57.8918L152.712 58.1405ZM168.14 56.8813L168.128 56.6316L168.128 56.6316L168.14 56.8813ZM167.736 57.3694L167.488 57.4037L167.488 57.4037L167.736 57.3694ZM179.977 57.2068L179.947 57.455L179.947 57.455L179.977 57.2068ZM180.352 57.6476L180.602 57.6566L180.602 57.6566L180.352 57.6476ZM180.144 63.4096L179.894 63.4006L179.894 63.4006L180.144 63.4096ZM179.664 63.8257L179.638 64.0743L179.638 64.0743L179.664 63.8257ZM174.616 63.491L174.615 63.741L174.616 63.491ZM168.988 63.5894L168.979 63.3395L168.979 63.3395L168.988 63.5894ZM168.546 63.2166L168.298 63.2509L168.298 63.2509L168.546 63.2166ZM181.996 57.8512L181.746 57.8408L181.746 57.8408L181.996 57.8512ZM182.453 57.4459L182.476 57.1969L182.476 57.1969L182.453 57.4459ZM181.763 63.4455L181.514 63.4351L181.514 63.4351L181.763 63.4455ZM182.13 63.8906L182.093 64.1378L182.093 64.1378L182.13 63.8906ZM189.929 65.212L189.879 65.4569L189.879 65.4569L189.929 65.212ZM197.659 67.0011L197.599 67.2438L197.599 67.2438L197.659 67.0011ZM198.143 66.7841L197.922 66.667L197.922 66.667L198.143 66.7841ZM200.78 61.8138L201.001 61.931L201.001 61.931L200.78 61.8138ZM200.51 61.1958L200.573 60.9537L200.573 60.9537L200.51 61.1958ZM191.265 58.9136L191.321 58.6699L191.321 58.6699L191.265 58.9136ZM113.391 76.6122L113.245 76.409C113.104 76.5105 113.006 76.6624 112.973 76.8334L113.219 76.8808L113.464 76.9282C113.473 76.8828 113.499 76.8424 113.536 76.8154L113.391 76.6122ZM137.647 59.2238L137.502 59.0206L113.245 76.409L113.391 76.6122L113.536 76.8154L137.793 59.427L137.647 59.2238ZM140.689 57.9866L140.653 57.7393C139.513 57.9081 138.437 58.3503 137.502 59.0206L137.647 59.2238L137.793 59.427C138.665 58.802 139.667 58.3908 140.726 58.2339L140.689 57.9866ZM166.464 55.2161L166.455 54.9663C157.724 55.3013 145.138 57.0748 140.653 57.7393L140.689 57.9866L140.726 58.2339C145.213 57.569 157.774 55.7997 166.474 55.4659L166.464 55.2161ZM181.536 55.6098L181.561 55.3611C175.674 54.7491 172.256 54.7437 166.455 54.9663L166.464 55.2161L166.474 55.4659C172.26 55.244 175.652 55.2496 181.51 55.8584L181.536 55.6098ZM202.405 60.137L202.474 59.8967C200.056 59.2046 189.086 56.1433 181.561 55.3611L181.536 55.6098L181.51 55.8584C188.984 56.6353 199.912 59.6835 202.337 60.3774L202.405 60.137ZM202.664 60.7371L202.888 60.8478C203.073 60.4741 202.888 60.0151 202.474 59.8967L202.405 60.137L202.337 60.3774C202.437 60.4062 202.492 60.5201 202.44 60.6265L202.664 60.7371ZM198.642 68.8856L198.866 68.9963L202.888 60.8478L202.664 60.7371L202.44 60.6265L198.418 68.775L198.642 68.8856ZM198.336 69.1183L198.382 69.3639C198.592 69.324 198.772 69.1879 198.866 68.9963L198.642 68.8856L198.418 68.775C198.393 68.8259 198.345 68.8621 198.289 68.8727L198.336 69.1183ZM154.669 77.4152L154.716 77.6608L198.382 69.3639L198.336 69.1183L198.289 68.8727L154.622 77.1696L154.669 77.4152ZM111.433 89.4043L111.5 89.6452L154.736 77.6561L154.669 77.4152L154.602 77.1743L111.366 89.1634L111.433 89.4043ZM110.895 88.9071L110.649 88.8597C110.553 89.3561 111.013 89.7803 111.5 89.6452L111.433 89.4043L111.366 89.1634C111.237 89.1993 111.115 89.0865 111.14 88.9545L110.895 88.9071ZM113.219 76.8808L112.973 76.8334L110.649 88.8597L110.895 88.9071L111.14 88.9545L113.464 76.9282L113.219 76.8808ZM114.711 77.5121L114.566 77.3083C114.424 77.4092 114.326 77.5605 114.293 77.7313L114.538 77.7798L114.783 77.8283C114.792 77.7829 114.818 77.7427 114.856 77.7159L114.711 77.5121ZM137.967 60.9827L137.822 60.7789L114.566 77.3083L114.711 77.5121L114.856 77.7159L138.111 61.1865L137.967 60.9827ZM138.646 61.2987L138.895 61.2782C138.852 60.752 138.252 60.473 137.822 60.7789L137.967 60.9827L138.111 61.1865C138.226 61.1051 138.385 61.1793 138.397 61.3192L138.646 61.2987ZM139.14 67.2938L139.389 67.2733L138.895 61.2782L138.646 61.2987L138.397 61.3192L138.89 67.3143L139.14 67.2938ZM138.951 67.6865L139.091 67.8937C139.295 67.7559 139.409 67.5187 139.389 67.2733L139.14 67.2938L138.89 67.3143C138.896 67.3796 138.866 67.4426 138.811 67.4793L138.951 67.6865ZM113.948 84.5619L114.088 84.7691L139.091 67.8937L138.951 67.6865L138.811 67.4793L113.808 84.3547L113.948 84.5619ZM113.284 84.1209L113.039 84.0724C112.921 84.6688 113.584 85.1092 114.088 84.7691L113.948 84.5619L113.808 84.3547C113.674 84.4451 113.498 84.328 113.529 84.1694L113.284 84.1209ZM114.538 77.7798L114.293 77.7313L113.039 84.0724L113.284 84.1209L113.529 84.1694L114.783 77.8283L114.538 77.7798ZM140.357 60.2227L140.606 60.1954C140.595 60.0958 140.661 60.0123 140.753 59.9981L140.715 59.751L140.677 59.5039C140.313 59.56 140.069 59.8917 140.109 60.2501L140.357 60.2227ZM141.036 66.3761L141.284 66.3487L140.606 60.1954L140.357 60.2227L140.109 60.2501L140.787 66.4035L141.036 66.3761ZM141.53 66.7556L141.49 66.5089C141.39 66.5252 141.296 66.4556 141.284 66.3487L141.036 66.3761L140.787 66.4035C140.83 66.7885 141.182 67.0661 141.571 67.0023L141.53 66.7556ZM154.188 64.8888L154.158 64.6406C149.607 65.192 143.216 66.2259 141.49 66.5089L141.53 66.7556L141.571 67.0023C143.298 66.7192 149.679 65.687 154.219 65.137L154.188 64.8888ZM166.176 63.638L166.153 63.3891C164.446 63.5503 158.3 64.1388 154.158 64.6406L154.188 64.8888L154.219 65.137C158.353 64.636 164.493 64.0481 166.2 63.8869L166.176 63.638ZM166.558 63.1408L166.311 63.1802C166.328 63.2866 166.254 63.3795 166.153 63.3891L166.176 63.638L166.2 63.8869C166.594 63.8496 166.867 63.4872 166.805 63.1015L166.558 63.1408ZM165.666 57.5423L165.419 57.5817L166.311 63.1802L166.558 63.1408L166.805 63.1015L165.913 57.503L165.666 57.5423ZM165.217 57.1801L165.233 57.4297C165.323 57.4241 165.404 57.4873 165.419 57.5817L165.666 57.5423L165.913 57.503C165.858 57.1594 165.554 56.9087 165.202 56.9306L165.217 57.1801ZM152.712 58.1405L152.738 58.3892C157.087 57.9475 163.59 57.5318 165.233 57.4297L165.217 57.1801L165.202 56.9306C163.56 57.0327 157.047 57.4489 152.687 57.8918L152.712 58.1405ZM140.715 59.751L140.753 59.9981C142.367 59.749 148.482 58.8215 152.738 58.3892L152.712 58.1405L152.687 57.8918C148.416 58.3255 142.29 59.2551 140.677 59.5039L140.715 59.751ZM168.14 56.8813L168.128 56.6316C167.727 56.6498 167.433 57.0092 167.488 57.4037L167.736 57.3694L167.983 57.3351C167.969 57.2286 168.047 57.1358 168.151 57.1311L168.14 56.8813ZM173.674 56.7348V56.4848C171.598 56.4848 169.138 56.5858 168.128 56.6316L168.14 56.8813L168.151 57.1311C169.159 57.0853 171.61 56.9848 173.674 56.9848V56.7348ZM179.977 57.2068L180.007 56.9586C178.936 56.8298 175.867 56.4848 173.674 56.4848V56.7348V56.9848C175.833 56.9848 178.874 57.3259 179.947 57.455L179.977 57.2068ZM180.352 57.6476L180.602 57.6566C180.615 57.3054 180.358 57.0008 180.007 56.9586L179.977 57.2068L179.947 57.455C180.038 57.4659 180.106 57.5448 180.102 57.6386L180.352 57.6476ZM180.144 63.4096L180.394 63.4186L180.602 57.6566L180.352 57.6476L180.102 57.6386L179.894 63.4006L180.144 63.4096ZM179.664 63.8257L179.638 64.0743C180.032 64.1161 180.38 63.8152 180.394 63.4186L180.144 63.4096L179.894 63.4006C179.891 63.5073 179.797 63.5884 179.691 63.5771L179.664 63.8257ZM174.616 63.491L174.615 63.741C176.407 63.7523 178.675 63.9721 179.638 64.0743L179.664 63.8257L179.691 63.5771C178.727 63.4748 176.437 63.2525 174.618 63.241L174.616 63.491ZM168.988 63.5894L168.996 63.8392C169.95 63.8062 172.482 63.7275 174.615 63.741L174.616 63.491L174.618 63.241C172.474 63.2274 169.933 63.3064 168.979 63.3395L168.988 63.5894ZM168.546 63.2166L168.298 63.2509C168.346 63.5966 168.646 63.8514 168.996 63.8392L168.988 63.5894L168.979 63.3395C168.886 63.3427 168.806 63.2757 168.793 63.1823L168.546 63.2166ZM167.736 57.3694L167.488 57.4037L168.298 63.2509L168.546 63.2166L168.793 63.1823L167.983 57.3351L167.736 57.3694ZM181.996 57.8512L182.246 57.8615C182.25 57.7575 182.335 57.6861 182.43 57.6948L182.453 57.4459L182.476 57.1969C182.087 57.1612 181.762 57.4605 181.746 57.8408L181.996 57.8512ZM181.763 63.4455L182.013 63.4559L182.246 57.8615L181.996 57.8512L181.746 57.8408L181.514 63.4351L181.763 63.4455ZM182.13 63.8906L182.166 63.6433C182.076 63.6298 182.009 63.5504 182.013 63.4559L181.763 63.4455L181.514 63.4351C181.499 63.7823 181.747 64.0864 182.093 64.1378L182.13 63.8906ZM189.929 65.212L189.98 64.9671C187.326 64.4223 183.395 63.8258 182.166 63.6433L182.13 63.8906L182.093 64.1378C183.323 64.3206 187.241 64.9152 189.879 65.4569L189.929 65.212ZM197.659 67.0011L197.719 66.7584C196.568 66.4746 192.619 65.509 189.98 64.9671L189.929 65.212L189.879 65.4569C192.507 65.9965 196.447 66.9597 197.599 67.2438L197.659 67.0011ZM198.143 66.7841L197.922 66.667C197.883 66.7409 197.799 66.7782 197.719 66.7584L197.659 67.0011L197.599 67.2438C197.903 67.3188 198.218 67.1772 198.364 66.9013L198.143 66.7841ZM200.78 61.8138L200.559 61.6966L197.922 66.667L198.143 66.7841L198.364 66.9013L201.001 61.931L200.78 61.8138ZM200.51 61.1958L200.448 61.4379C200.559 61.4664 200.615 61.5912 200.559 61.6966L200.78 61.8138L201.001 61.931C201.206 61.5444 201.001 61.0642 200.573 60.9537L200.51 61.1958ZM191.265 58.9136L191.209 59.1573C194.342 59.8721 198.911 61.0417 200.448 61.4379L200.51 61.1958L200.573 60.9537C199.037 60.5577 194.461 59.3864 191.321 58.6699L191.265 58.9136ZM182.453 57.4459L182.43 57.6948C183.564 57.7992 186.84 58.1601 191.209 59.1573L191.265 58.9136L191.321 58.6699C186.924 57.6666 183.626 57.3028 182.476 57.1969L182.453 57.4459Z" fill="#819DB2"/>
<path d="M231.588 74.8145L225.543 83.3201" stroke="#819DB2"/>
<path d="M99.1158 109.744L97.2105 121.22C97.0449 122.218 98.0363 123.011 98.973 122.63L107.461 119.184L135.621 109.455L157.865 102.57C158.661 102.324 159.02 101.4 158.599 100.681L151.211 88.0609C150.888 87.5091 151.017 86.804 151.514 86.4019L164.532 75.874C164.73 75.7143 164.97 75.6162 165.223 75.5921L202.471 72.044L199.271 68.9352C199.111 68.7797 198.919 68.6697 198.702 68.6143C196.864 68.1426 187.605 65.8132 181.312 65.0989C166.209 63.3845 143.015 68.1164 140.474 68.6497C140.316 68.6829 140.177 68.7441 140.042 68.8337L110.575 88.4417C110.308 88.6195 110.116 88.8902 110.038 89.2014L106.015 105.108C105.924 105.467 105.683 105.77 105.354 105.94L99.7987 108.806C99.4358 108.993 99.1827 109.341 99.1158 109.744Z" fill="white" stroke="#819DB2" stroke-linecap="round"/>
<path d="M110.379 110.751C110.4 110.61 110.489 110.488 110.618 110.426L120.416 105.697C120.689 105.565 121.01 105.749 121.033 106.052L121.62 113.679C121.635 113.875 121.515 114.056 121.328 114.12L109.942 117.989C109.637 118.092 109.33 117.836 109.377 117.517L110.379 110.751Z" fill="#CBD8E0"/>
<path d="M122.198 104.938C122.187 104.763 122.283 104.599 122.441 104.523L133.753 99.0833C134.024 98.953 134.342 99.1329 134.37 99.4321L135.301 109.505C135.319 109.701 135.203 109.884 135.019 109.95L123.325 114.182C123.055 114.28 122.766 114.09 122.748 113.803L122.198 104.938Z" fill="#CBD8E0"/>
<path d="M110.379 110.751C110.4 110.61 110.489 110.488 110.618 110.426L120.416 105.697C120.689 105.565 121.01 105.749 121.033 106.052L121.62 113.679C121.635 113.875 121.515 114.056 121.328 114.12L109.942 117.989C109.637 118.092 109.33 117.836 109.377 117.517L110.379 110.751Z" stroke="#819DB2" stroke-width="0.5"/>
<path d="M122.198 104.938C122.187 104.763 122.283 104.599 122.441 104.523L133.753 99.0833C134.024 98.953 134.342 99.1329 134.37 99.4321L135.301 109.505C135.319 109.701 135.203 109.884 135.019 109.95L123.325 114.182C123.055 114.28 122.766 114.09 122.748 113.803L122.198 104.938Z" stroke="#819DB2" stroke-width="0.5"/>
<path d="M150.465 88.3545C150.315 88.0946 150.47 87.7652 150.765 87.7145L199.459 79.3674C199.777 79.3128 200.102 79.3033 200.423 79.3389L236.054 83.2994C236.535 83.3528 236.577 84.0353 236.106 84.1473L158.975 102.52C158.789 102.565 158.597 102.481 158.501 102.316L150.465 88.3545Z" fill="#F5F9FC" stroke="#819DB2"/>
<path d="M153.029 89.9292C152.879 89.669 153.034 89.3387 153.33 89.2885L199.271 81.5029C199.418 81.478 199.567 81.5307 199.666 81.6421L205.68 88.4339C205.893 88.6739 205.778 89.0536 205.469 89.1363L159.955 101.285C159.767 101.335 159.568 101.253 159.471 101.084L153.029 89.9292Z" fill="#CBD8E0" stroke="#819DB2" stroke-width="0.5"/>
<path d="M164.906 75.6468C164.973 75.5913 165.055 75.5575 165.142 75.5498L201.5 72.3037C201.522 72.3018 201.544 72.3015 201.566 72.3029L231.391 74.2066C231.733 74.2284 231.914 74.6213 231.708 74.8955L226.46 81.8937C226.371 82.0122 226.227 82.0767 226.08 82.0648L202.225 80.1306C202.198 80.1284 202.172 80.1288 202.145 80.1316L189.793 81.4318L151.582 87.6957C151.148 87.7669 150.898 87.2182 151.238 86.9379L164.906 75.6468Z" fill="white" stroke="#819DB2"/>
<path d="M135.641 98.2309C135.626 98.056 135.72 97.8901 135.876 97.8111L147.997 91.6983C148.273 91.559 148.601 91.7471 148.621 92.0558L149.458 105.181C149.47 105.38 149.346 105.561 149.156 105.62L137.074 109.394C136.81 109.476 136.538 109.292 136.516 109.017L135.641 98.2309Z" fill="#CBD8E0" stroke="#819DB2" stroke-width="0.5"/>
<path d="M149.893 91.8963C149.862 91.4421 150.464 91.2552 150.695 91.6476L156.441 101.411C156.57 101.631 156.482 101.914 156.25 102.021L151.345 104.287C151.071 104.414 150.755 104.227 150.734 103.926L149.893 91.8963Z" fill="#CBD8E0" stroke="#819DB2" stroke-width="0.5"/>
<path d="M106.953 101.372L144.94 81.4791C149.622 79.0188 160.554 75.0766 165.031 74.4355" stroke="#819DB2" stroke-linecap="round"/>
<path d="M107.941 97.928L143.525 78.9625C146.941 77.1067 154.35 77.5426 154.35 77.5426" stroke="#819DB2" stroke-linecap="round"/>
<path d="M108.613 94.946L141.681 76.4826C142.76 75.8805 143.932 75.4712 145.147 75.2523C152.84 73.8665 162.86 71.6082 174.072 71.0599C184.25 70.5621 193.81 71.4441 200.151 71.9034" stroke="#819DB2" stroke-linecap="round"/>
<path d="M109.071 110.841L108.304 118.032L105.211 119.044L106.747 109.592C106.824 109.118 107.123 108.708 107.552 108.49L148.849 87.4571C149.074 87.3426 149.285 87.2023 149.477 87.0391L163.522 75.1277C164.011 74.7126 164.607 74.452 165.245 74.3801C169.781 73.8691 189.167 71.755 201.866 71.4825C216.337 71.1719 227.918 72.706 231.651 73.2741C232.327 73.377 232.735 74.0586 232.525 74.7092C232.345 75.2688 231.78 75.5978 231.205 75.4748C211.486 71.2562 172.301 75.457 165.64 76.2189C164.99 76.2932 164.403 76.5631 163.912 76.9937L149.912 89.2532C149.72 89.4212 149.513 89.5638 149.288 89.6824C146.163 91.3236 122.005 103.992 109.927 109.634C109.446 109.859 109.127 110.313 109.071 110.841Z" fill="#003964" stroke="#346184"/>
<path d="M201.713 82.017C201.457 81.7198 201.699 81.2633 202.088 81.3075L228.224 84.2713C228.714 84.3269 228.742 85.028 228.259 85.1228L208.075 89.0786C207.923 89.1085 207.766 89.0543 207.665 88.9367L201.713 82.017Z" fill="#CBD8E0" stroke="#819DB2" stroke-width="0.5"/>
<path fill-rule="evenodd" clip-rule="evenodd" d="M159.611 87.9977C143.465 96.2152 135.332 109.057 135.332 109.057L143.888 107.502C143.888 107.502 148.991 95.8277 160.745 89.659C161.885 88.8936 165.9 87.2017 171.72 84.9731L169.736 98.849L171.525 99.1223L173.653 84.238C183.195 80.6345 196.745 75.8564 210.387 71.3277L208.063 87.5768L209.852 87.8501L212.306 70.6925C228.85 65.2324 245.259 60.2374 254.547 58.2476L251.539 79.281L253.328 79.5543L256.429 57.8674C257.655 57.6372 258.711 57.4776 259.576 57.397C280.416 55.4547 284.319 58.3018 284.793 61.0459C285.848 67.1557 270.661 74.7814 263.336 76.858H267.441C274.466 74.4378 279.449 71.9572 282.641 69.4155L277.389 86.8785L279.116 87.4333L285.343 66.7262C286.536 65.1618 287.104 63.575 287.104 61.9656C287.104 56.062 280.286 54.0299 259.576 55.5725C243.007 56.8066 166.96 84.2578 159.611 87.9977Z" fill="#F5F9FC"/>
<path d="M135.332 109.057L135.121 108.924L134.816 109.405L135.377 109.303L135.332 109.057ZM159.611 87.9977L159.725 88.2205L159.725 88.2205L159.611 87.9977ZM143.888 107.502L143.932 107.748L144.063 107.724L144.117 107.602L143.888 107.502ZM160.745 89.659L160.861 89.8804L160.873 89.8741L160.885 89.8665L160.745 89.659ZM171.72 84.9731L171.968 85.0085L172.028 84.5875L171.631 84.7396L171.72 84.9731ZM169.736 98.849L169.488 98.8136L169.453 99.0588L169.698 99.0962L169.736 98.849ZM171.525 99.1223L171.487 99.3694L171.736 99.4075L171.772 99.1577L171.525 99.1223ZM173.653 84.238L173.565 84.0042L173.427 84.0564L173.406 84.2026L173.653 84.238ZM210.387 71.3277L210.635 71.3631L210.692 70.9631L210.308 71.0904L210.387 71.3277ZM208.063 87.5768L207.816 87.5414L207.781 87.7865L208.026 87.8239L208.063 87.5768ZM209.852 87.8501L209.814 88.0972L210.064 88.1353L210.1 87.8854L209.852 87.8501ZM212.306 70.6925L212.228 70.4551L212.08 70.5037L212.058 70.6571L212.306 70.6925ZM254.547 58.2476L254.794 58.283L254.845 57.928L254.494 58.0032L254.547 58.2476ZM251.539 79.281L251.291 79.2456L251.256 79.4907L251.501 79.5281L251.539 79.281ZM253.328 79.5543L253.29 79.8014L253.539 79.8395L253.575 79.5896L253.328 79.5543ZM256.429 57.8674L256.383 57.6217L256.207 57.6548L256.182 57.832L256.429 57.8674ZM259.576 57.397L259.599 57.6459L259.599 57.6459L259.576 57.397ZM284.793 61.0459L285.039 61.0034L285.039 61.0034L284.793 61.0459ZM263.336 76.858L263.268 76.6175L263.336 77.108V76.858ZM267.441 76.858V77.108H267.483L267.522 77.0944L267.441 76.858ZM282.641 69.4155L282.88 69.4875L283.11 68.722L282.485 69.22L282.641 69.4155ZM277.389 86.8785L277.15 86.8065L277.079 87.0415L277.313 87.1166L277.389 86.8785ZM279.116 87.4333L279.04 87.6713L279.282 87.7492L279.356 87.5052L279.116 87.4333ZM285.343 66.7262L285.145 66.5746L285.117 66.6107L285.104 66.6542L285.343 66.7262ZM259.576 55.5725L259.557 55.3232L259.557 55.3232L259.576 55.5725ZM135.332 109.057C135.543 109.191 135.543 109.191 135.543 109.191C135.543 109.191 135.543 109.191 135.543 109.191C135.544 109.19 135.544 109.19 135.544 109.189C135.545 109.188 135.547 109.186 135.549 109.183C135.552 109.177 135.558 109.168 135.566 109.156C135.581 109.132 135.605 109.096 135.636 109.049C135.698 108.954 135.793 108.814 135.919 108.632C136.171 108.267 136.549 107.737 137.054 107.074C138.064 105.748 139.579 103.893 141.598 101.782C145.635 97.5588 151.683 92.3134 159.725 88.2205L159.611 87.9977L159.498 87.7749C151.394 91.8996 145.302 97.1839 141.236 101.436C139.203 103.563 137.676 105.432 136.656 106.771C136.146 107.44 135.763 107.977 135.507 108.347C135.379 108.532 135.283 108.676 135.219 108.773C135.187 108.822 135.162 108.859 135.146 108.884C135.138 108.897 135.132 108.907 135.127 108.913C135.125 108.916 135.124 108.919 135.123 108.921C135.122 108.922 135.122 108.922 135.121 108.923C135.121 108.923 135.121 108.923 135.121 108.923C135.121 108.923 135.121 108.924 135.332 109.057ZM143.888 107.502L143.843 107.256L135.287 108.811L135.332 109.057L135.377 109.303L143.932 107.748L143.888 107.502ZM160.745 89.659L160.629 89.4376C154.708 92.5448 150.467 97.0356 147.708 100.744C146.328 102.599 145.317 104.261 144.65 105.46C144.317 106.059 144.07 106.543 143.905 106.878C143.823 107.045 143.762 107.175 143.721 107.264C143.7 107.309 143.685 107.342 143.675 107.366C143.669 107.377 143.665 107.386 143.663 107.392C143.661 107.395 143.66 107.397 143.66 107.399C143.659 107.4 143.659 107.4 143.659 107.401C143.659 107.401 143.659 107.401 143.659 107.401C143.659 107.401 143.659 107.402 143.888 107.502C144.117 107.602 144.117 107.602 144.117 107.602C144.117 107.602 144.117 107.602 144.117 107.602C144.117 107.601 144.117 107.601 144.117 107.6C144.118 107.599 144.119 107.597 144.12 107.595C144.122 107.589 144.126 107.581 144.131 107.571C144.14 107.549 144.155 107.517 144.175 107.474C144.214 107.389 144.274 107.262 144.354 107.098C144.515 106.77 144.758 106.294 145.087 105.703C145.745 104.52 146.744 102.877 148.109 101.043C150.84 97.3724 155.028 92.9419 160.861 89.8804L160.745 89.659ZM171.72 84.9731L171.631 84.7396C168.719 85.8545 166.258 86.8358 164.38 87.6347C162.511 88.4299 161.199 89.0531 160.606 89.4515L160.745 89.659L160.885 89.8665C161.431 89.4995 162.697 88.894 164.576 88.0948C166.445 87.2993 168.901 86.3203 171.809 85.2065L171.72 84.9731ZM169.736 98.849L169.983 98.8844L171.968 85.0085L171.72 84.9731L171.473 84.9377L169.488 98.8136L169.736 98.849ZM171.525 99.1223L171.562 98.8752L169.773 98.6019L169.736 98.849L169.698 99.0962L171.487 99.3694L171.525 99.1223ZM173.653 84.238L173.406 84.2026L171.277 99.0869L171.525 99.1223L171.772 99.1577L173.901 84.2734L173.653 84.238ZM210.387 71.3277L210.308 71.0904C196.664 75.6199 183.111 80.3992 173.565 84.0042L173.653 84.238L173.742 84.4719C183.279 80.8699 196.826 76.0929 210.466 71.5649L210.387 71.3277ZM208.063 87.5768L208.311 87.6122L210.635 71.3631L210.387 71.3277L210.14 71.2923L207.816 87.5414L208.063 87.5768ZM209.852 87.8501L209.89 87.6029L208.101 87.3297L208.063 87.5768L208.026 87.8239L209.814 88.0972L209.852 87.8501ZM212.306 70.6925L212.058 70.6571L209.605 87.8147L209.852 87.8501L210.1 87.8854L212.553 70.7279L212.306 70.6925ZM254.547 58.2476L254.494 58.0032C245.192 59.9962 228.771 64.9953 212.228 70.4551L212.306 70.6925L212.384 70.9299C228.929 65.4696 245.326 60.4787 254.599 58.4921L254.547 58.2476ZM251.539 79.281L251.786 79.3164L254.794 58.283L254.547 58.2476L254.299 58.2122L251.291 79.2456L251.539 79.281ZM253.328 79.5543L253.365 79.3071L251.576 79.0339L251.539 79.281L251.501 79.5281L253.29 79.8014L253.328 79.5543ZM256.429 57.8674L256.182 57.832L253.08 79.5189L253.328 79.5543L253.575 79.5896L256.676 57.9028L256.429 57.8674ZM259.576 57.397L259.553 57.1481C258.678 57.2296 257.613 57.3907 256.383 57.6217L256.429 57.8674L256.475 58.1131C257.697 57.8837 258.745 57.7255 259.599 57.6459L259.576 57.397ZM284.793 61.0459L285.039 61.0034C284.911 60.2608 284.549 59.5139 283.742 58.8517C282.943 58.1954 281.718 57.6308 279.876 57.2201C276.196 56.3992 269.978 56.1764 259.553 57.1481L259.576 57.397L259.599 57.6459C270.013 56.6753 276.167 56.9049 279.767 57.7081C281.566 58.1093 282.708 58.6497 283.425 59.2382C284.135 59.821 284.438 60.459 284.547 61.0884L284.793 61.0459ZM263.336 76.858L263.404 77.0985C267.091 76.0534 272.741 73.6175 277.341 70.675C279.641 69.2039 281.692 67.598 283.104 65.9657C284.511 64.34 285.322 62.6426 285.039 61.0034L284.793 61.0459L284.547 61.0884C284.791 62.5041 284.1 64.0511 282.726 65.6385C281.359 67.2193 279.353 68.7951 277.072 70.2538C272.512 73.1707 266.906 75.586 263.268 76.6175L263.336 76.858ZM267.441 76.858V76.608H263.336V76.858V77.108H267.441V76.858ZM282.641 69.4155L282.485 69.22C279.326 71.7356 274.374 74.2051 267.36 76.6217L267.441 76.858L267.522 77.0944C274.558 74.6705 279.572 72.1787 282.797 69.6111L282.641 69.4155ZM277.389 86.8785L277.629 86.9505L282.88 69.4875L282.641 69.4155L282.401 69.3436L277.15 86.8065L277.389 86.8785ZM279.116 87.4333L279.193 87.1952L277.466 86.6405L277.389 86.8785L277.313 87.1166L279.04 87.6713L279.116 87.4333ZM285.343 66.7262L285.104 66.6542L278.877 87.3613L279.116 87.4333L279.356 87.5052L285.583 66.7982L285.343 66.7262ZM287.104 61.9656H286.854C286.854 63.5114 286.309 65.0462 285.145 66.5746L285.343 66.7262L285.542 66.8777C286.762 65.2773 287.354 63.6385 287.354 61.9656H287.104ZM259.576 55.5725L259.594 55.8218C269.95 55.0505 276.796 55.1768 281.047 56.2195C283.17 56.7403 284.618 57.4835 285.535 58.4329C286.445 59.3749 286.854 60.5425 286.854 61.9656H287.104H287.354C287.354 60.4368 286.91 59.1366 285.895 58.0855C284.886 57.0416 283.336 56.2663 281.166 55.7339C276.83 54.6704 269.913 54.5519 259.557 55.3232L259.576 55.5725ZM159.611 87.9977L159.725 88.2205C161.546 87.2937 167.66 84.8825 176.088 81.7615C184.507 78.6435 195.218 74.8237 206.217 71.0821C217.216 67.3404 228.501 63.6777 238.07 60.8736C247.649 58.0666 255.483 56.128 259.594 55.8218L259.576 55.5725L259.557 55.3232C255.384 55.634 247.499 57.5897 237.93 60.3938C228.351 63.2007 217.058 66.8659 206.056 70.6088C195.053 74.3517 184.338 78.1731 175.914 81.2926C167.499 84.4091 161.351 86.8317 159.498 87.7749L159.611 87.9977Z" fill="#819DB2"/>
<path d="M78.4882 130.643C78.3564 129.834 78.7655 129.061 79.5339 128.774C89.5001 125.043 155.79 100.438 198.91 89.7145C218.682 84.7971 239.737 80.289 250.934 78.2175C259.494 76.6337 280.676 72.4825 289.003 70.8466C290.305 70.5908 291.265 72.0217 290.553 73.1411L286.999 78.7255L219.442 92.5436L135.847 113.491L80.7663 132.141C79.757 132.483 78.6823 131.837 78.5112 130.785L78.4882 130.643Z" fill="#F5F9FC" stroke="#819DB2"/>
<path d="M248.89 144.837C263.668 147.689 282.412 88.6074 282.412 88.6074C282.412 88.6074 228.054 91.9547 190.482 100.541C148.657 110.098 80.5696 132.251 80.5696 132.251C80.5696 132.251 81.2677 129.156 79.7539 142.762" stroke="#819DB2"/>
<path d="M257.445 140.948C276.89 142.503 272.223 119.948 282.411 88.6074" stroke="#819DB2"/>
<path d="M31.368 141.555C37.7429 141.047 44.5888 143.32 50.7061 145.116C54.2716 146.163 57.7547 147.236 61.4593 147.331C64.5586 147.412 67.6418 146.737 70.5969 145.708C67.6877 148.036 63.7852 149.207 60.4468 150.462C58.4596 151.051 56.4512 151.612 54.3849 151.605C45.6664 151.575 37.9291 144.99 29.3868 143.572C26.5936 143.108 23.8956 143.449 21.1094 143.749C24.3916 142.348 27.8982 141.847 31.368 141.555Z" fill="#346184"/>
<path d="M10.2586 150.529C16.6336 150.022 23.4794 152.295 29.5968 154.091C33.1623 155.138 36.6453 156.211 40.3499 156.306C43.4492 156.386 46.5324 155.712 49.4875 154.683C46.5784 157.01 42.6759 158.182 39.3374 159.437C37.3503 160.026 35.3418 160.586 33.2756 160.579C24.557 160.549 16.8197 153.964 8.27741 152.546C5.48418 152.083 2.78624 152.424 0 152.723C3.28219 151.323 6.78882 150.821 10.2586 150.529Z" fill="#346184"/>
<path d="M224.859 135.692C240.71 138.941 262.886 147.171 272.997 129.282C266.775 157.282 250.442 155.727 245.775 155.727C232.484 155.727 206.48 137.242 183.55 144.276C196.765 136.045 209.339 132.51 224.859 135.692Z" fill="#346184"/>
<path d="M82.8548 142.089C92.3386 141.54 101.133 146.28 110.466 147.038C114.543 147.369 118.73 146.792 122.674 145.596C119.539 147.432 116.219 148.604 112.89 149.87C110.123 150.917 107.346 151.978 104.413 152.145C100.059 152.395 95.2715 150.467 91.282 148.639C86.4888 146.442 80.0907 142.498 74.8029 144.477L74.5689 144.569L74.3672 144.432C76.9767 142.863 79.9608 142.418 82.8548 142.089Z" fill="#346184"/>
<path d="M59.2337 152.212C68.7175 151.663 77.5116 156.403 86.8445 157.161C90.9224 157.492 95.1091 156.915 99.0526 155.719C95.9184 157.555 92.5979 158.727 89.2689 159.993C86.5023 161.04 83.725 162.101 80.7916 162.269C76.4382 162.518 71.6504 160.59 67.6609 158.762C62.8677 156.565 56.4696 152.621 51.1818 154.6L50.9478 154.692L50.7461 154.555C53.3556 152.986 56.3397 152.541 59.2337 152.212Z" fill="#346184"/>
<path d="M108.929 153.22C118.413 152.671 127.207 157.411 136.54 158.169C140.618 158.5 144.804 157.923 148.748 156.727C145.614 158.562 142.293 159.735 138.964 161.001C136.198 162.047 133.42 163.108 130.487 163.276C126.133 163.526 121.346 161.598 117.356 159.77C112.563 157.573 106.165 153.629 100.877 155.607L100.643 155.699L100.441 155.563C103.051 153.993 106.035 153.549 108.929 153.22Z" fill="#346184"/>
<path d="M215.378 152.489C224.862 151.94 233.656 156.681 242.989 157.438C247.067 157.77 251.254 157.193 255.197 155.997C252.063 157.832 248.742 159.004 245.413 160.271C242.647 161.317 239.869 162.378 236.936 162.546C232.583 162.795 227.795 160.868 223.805 159.039C219.012 156.842 212.614 152.898 207.326 154.877L207.092 154.969L206.891 154.832C209.5 153.263 212.484 152.819 215.378 152.489Z" fill="#346184"/>
<path d="M134.851 142.092C145.318 141.51 155.023 146.527 165.323 147.329C169.823 147.68 174.444 147.069 178.796 145.803C173.098 149.003 165.258 152.372 158.643 152.735C153.838 152.999 148.555 150.959 144.152 149.023C138.862 146.698 131.801 142.524 125.965 144.618L125.707 144.716L125.484 144.571C128.364 142.91 131.658 142.44 134.851 142.092Z" fill="#346184"/>
<path d="M80.0686 132.147C79.6949 131.868 79.7514 131.297 80.1888 131.135C89.0873 127.846 156.241 103.244 199.929 93.741C219.795 89.4197 287.093 78.4707 287.093 78.4707C287.093 78.4707 284.666 82.6148 282.271 88.9727C282.271 88.9727 230.575 92.0068 191.14 100.473C153.111 108.637 85.3609 130.683 80.581 132.243C80.3987 132.303 80.2223 132.262 80.0686 132.147Z" fill="#CBD8E0" stroke="#819DB2"/>
<path d="M80.8906 134.249C80.8906 133.968 81.0268 133.734 81.2934 133.648C86.7906 131.872 147.412 112.391 192.113 102.667C211.978 98.3459 280.78 93.334 280.78 93.334C280.78 93.334 279.224 98.0007 276.891 104.223C276.891 104.223 220.658 101.979 181.224 110.445C141.789 118.911 80.8906 136.112 80.8906 136.112V134.249Z" fill="#CBD8E0" stroke="#819DB2"/>
</svg>
