<svg width="43" height="44" viewBox="0 0 43 44" fill="none" xmlns="http://www.w3.org/2000/svg">
<g clip-path="url(#clip0_2125_13039)">
<path d="M13.8758 2.48083H29.9661L41.3537 13.8684V29.9587L29.9661 41.3462H13.8758L2.48828 29.9587V13.8684L13.8758 2.48083Z" fill="#FFC51E" stroke="#FFC51E" stroke-width="2.65304" stroke-linecap="round" stroke-linejoin="round"/>
<path d="M20.4442 24.6218L19.4619 12.8331H25.5645L24.6119 24.6218H20.4442ZM20.1465 31.8855C19.5115 31.2504 19.1939 30.4565 19.1939 29.5039C19.1939 28.5513 19.5115 27.7574 20.1465 27.1224C20.7816 26.4873 21.5953 26.1698 22.5876 26.1698C23.5402 26.1698 24.3242 26.4873 24.9394 27.1224C25.5745 27.7574 25.892 28.5513 25.892 29.5039C25.892 30.4565 25.5745 31.2504 24.9394 31.8855C24.3242 32.5205 23.5402 32.8381 22.5876 32.8381C21.5953 32.8381 20.7816 32.5205 20.1465 31.8855Z" fill="white"/>
</g>
<defs>
<clipPath id="clip0_2125_13039">
<rect width="43" height="43.8269" fill="white"/>
</clipPath>
</defs>
</svg>
