<svg width="52" height="53" viewBox="0 0 52 53" fill="none" xmlns="http://www.w3.org/2000/svg">
<path d="M16.771 3H36.229L50 16.771V36.229L36.229 50H16.771L3 36.229V16.771L16.771 3Z" fill="#003964" stroke="#003964" stroke-width="3.20833" stroke-linecap="round" stroke-linejoin="round"/>
<path d="M24.462 29.496L23.274 15.24H30.654L29.502 29.496H24.462ZM24.102 38.28C23.334 37.512 22.95 36.552 22.95 35.4C22.95 34.248 23.334 33.288 24.102 32.52C24.87 31.752 25.854 31.368 27.054 31.368C28.206 31.368 29.154 31.752 29.898 32.52C30.666 33.288 31.05 34.248 31.05 35.4C31.05 36.552 30.666 37.512 29.898 38.28C29.154 39.048 28.206 39.432 27.054 39.432C25.854 39.432 24.87 39.048 24.102 38.28Z" fill="white"/>
</svg>
