<svg width="32" height="32" viewBox="0 0 32 32" fill="none" xmlns="http://www.w3.org/2000/svg">
<g opacity="1">
<rect width="32" height="32" fill="#003964"/>
<path fill-rule="evenodd" clip-rule="evenodd" d="M8.93112 21.6566C8.5406 22.0471 8.5406 22.6802 8.93112 23.0708C9.32165 23.4613 9.95481 23.4613 10.3453 23.0708L16.0013 17.4148L21.6575 23.0711C22.0481 23.4616 22.6812 23.4616 23.0717 23.0711C23.4623 22.6806 23.4623 22.0474 23.0717 21.6569L17.4155 16.0006L23.0733 10.3428C23.4638 9.95232 23.4638 9.31916 23.0733 8.92864C22.6827 8.53811 22.0496 8.53811 21.659 8.92864L16.0013 14.5864L10.3438 8.92897C9.9533 8.53845 9.32014 8.53845 8.92961 8.92897C8.53909 9.3195 8.53909 9.95266 8.92961 10.3432L14.5871 16.0006L8.93112 21.6566Z" fill="white"/>
</g>
</svg>
