<svg width="28" height="28" viewBox="0 0 28 28" fill="none" xmlns="http://www.w3.org/2000/svg">
<g clip-path="url(#clip0_5242_8062)">
<path d="M15.5181 3.67334L25.5911 21.1197C25.7447 21.3857 25.8256 21.6875 25.8256 21.9947C25.8256 22.3018 25.7447 22.6036 25.5912 22.8697C25.4376 23.1357 25.2167 23.3566 24.9506 23.5102C24.6846 23.6638 24.3828 23.7447 24.0756 23.7447H3.92964C3.62246 23.7447 3.32069 23.6638 3.05466 23.5102C2.78863 23.3566 2.56772 23.1357 2.41413 22.8697C2.26054 22.6036 2.17969 22.3018 2.17969 21.9947C2.17969 21.6875 2.26055 21.3857 2.41414 21.1197L12.4871 3.67334C13.1603 2.50667 14.8438 2.50667 15.5181 3.67334ZM14.0026 17.5007C13.6932 17.5007 13.3965 17.6236 13.1777 17.8424C12.9589 18.0612 12.836 18.3579 12.836 18.6673C12.836 18.9768 12.9589 19.2735 13.1777 19.4923C13.3965 19.7111 13.6932 19.834 14.0026 19.834C14.3121 19.834 14.6088 19.7111 14.8276 19.4923C15.0464 19.2735 15.1693 18.9768 15.1693 18.6673C15.1693 18.3579 15.0464 18.0612 14.8276 17.8424C14.6088 17.6236 14.3121 17.5007 14.0026 17.5007ZM14.0026 9.33401C13.7169 9.33404 13.4411 9.43896 13.2275 9.62884C13.014 9.81873 12.8776 10.0804 12.8441 10.3642L12.836 10.5007V15.1673C12.8363 15.4647 12.9502 15.7507 13.1543 15.9669C13.3584 16.1832 13.6374 16.3133 13.9343 16.3307C14.2311 16.3481 14.5234 16.2516 14.7514 16.0607C14.9795 15.8698 15.126 15.5991 15.1611 15.3038L15.1693 15.1673V10.5007C15.1693 10.1913 15.0464 9.89451 14.8276 9.67572C14.6088 9.45692 14.3121 9.33401 14.0026 9.33401Z" fill="#4CAF50"/>
</g>
<defs>
<clipPath id="clip0_5242_8062">
<rect width="28" height="28" fill="white"/>
</clipPath>
</defs>
</svg>
