<svg width="29" height="24" viewBox="0 0 29 24" fill="none" xmlns="http://www.w3.org/2000/svg">
<path d="M24.9383 11.5499L15.7483 20.7399C14.6225 21.8657 13.0955 22.4982 11.5033 22.4982C9.91115 22.4982 8.38418 21.8657 7.25834 20.7399C6.13249 19.614 5.5 18.087 5.5 16.4949C5.5 14.9027 6.13249 13.3757 7.25834 12.2499L16.4483 3.05986C17.1989 2.3093 18.2169 1.88763 19.2783 1.88763C20.3398 1.88763 21.3578 2.3093 22.1083 3.05986C22.8589 3.81042 23.2806 4.8284 23.2806 5.88986C23.2806 6.95132 22.8589 7.9693 22.1083 8.71986L12.9083 17.9099C12.5331 18.2851 12.0241 18.496 11.4933 18.496C10.9626 18.496 10.4536 18.2851 10.0783 17.9099C9.70306 17.5346 9.49222 17.0256 9.49222 16.4949C9.49222 15.9641 9.70306 15.4551 10.0783 15.0799L18.5683 6.59986" stroke="#346184" stroke-width="2" stroke-linecap="round" stroke-linejoin="round"/>
</svg>
