<svg width="48" height="48" viewBox="0 0 48 48" fill="none" xmlns="http://www.w3.org/2000/svg">
<rect x="1" y="1" width="46" height="46" rx="23" stroke="#003964" stroke-width="2"/>
<g clip-path="url(#clip0_5242_2726)">
<path d="M34.5443 30.8748C34.5443 31.3831 34.3423 31.8706 33.9829 32.2301C33.6234 32.5895 33.1359 32.7914 32.6276 32.7914H15.3776C14.8693 32.7914 14.3818 32.5895 14.0223 32.2301C13.6629 31.8706 13.4609 31.3831 13.4609 30.8748V20.3331C13.4609 19.8248 13.6629 19.3373 14.0223 18.9778C14.3818 18.6184 14.8693 18.4164 15.3776 18.4164H19.2109L21.1276 15.5414H26.8776L28.7943 18.4164H32.6276C33.1359 18.4164 33.6234 18.6184 33.9829 18.9778C34.3423 19.3373 34.5443 19.8248 34.5443 20.3331V30.8748Z" stroke="#003964" stroke-width="1.91667" stroke-linecap="round" stroke-linejoin="round"/>
<path d="M23.9974 28.9581C26.1145 28.9581 27.8307 27.2419 27.8307 25.1248C27.8307 23.0077 26.1145 21.2914 23.9974 21.2914C21.8803 21.2914 20.1641 23.0077 20.1641 25.1248C20.1641 27.2419 21.8803 28.9581 23.9974 28.9581Z" stroke="#003964" stroke-width="1.91667" stroke-linecap="round" stroke-linejoin="round"/>
</g>
<defs>
<clipPath id="clip0_5242_2726">
<rect width="23" height="23" fill="white" transform="translate(12.5 12.6664)"/>
</clipPath>
</defs>
</svg>
