<svg width="48" height="48" viewBox="0 0 48 48" fill="none" xmlns="http://www.w3.org/2000/svg">

<rect x="1" y="1" width="46" height="46" rx="23" stroke="#003964" stroke-width="2"/>
<path d="M30.5 14.6664H16.5C15.3954 14.6664 14.5 15.5619 14.5 16.6664V30.6664C14.5 31.771 15.3954 32.6664 16.5 32.6664H30.5C31.6046 32.6664 32.5 31.771 32.5 30.6664V16.6664C32.5 15.5619 31.6046 14.6664 30.5 14.6664Z" stroke="#003964" stroke-width="2" stroke-linecap="round" stroke-linejoin="round"/>
<path d="M20 21.6664C20.8284 21.6664 21.5 20.9949 21.5 20.1664C21.5 19.338 20.8284 18.6664 20 18.6664C19.1716 18.6664 18.5 19.338 18.5 20.1664C18.5 20.9949 19.1716 21.6664 20 21.6664Z" stroke="#003964" stroke-width="2" stroke-linecap="round" stroke-linejoin="round"/>
<path d="M32.5 26.6664L27.5 21.6664L16.5 32.6664" stroke="#003964" stroke-width="2" stroke-linecap="round" stroke-linejoin="round"/>
</svg>
