<svg width="215" height="156" viewBox="0 0 215 156" fill="none" xmlns="http://www.w3.org/2000/svg">
<path d="M0 1.55555C0 0.696445 0.696446 0 1.55556 0H107.458C108.317 0 109.014 0.696446 109.014 1.55556V154C109.014 154.859 108.317 155.556 107.458 155.556H1.55555C0.696445 155.556 0 154.859 0 154V1.55555Z" fill="white"/>
<path fill-rule="evenodd" clip-rule="evenodd" d="M3.11111 3.11111V152.444H105.903V3.11111H3.11111ZM1.55556 0C0.696446 0 0 0.696445 0 1.55555V154C0 154.859 0.696445 155.556 1.55555 155.556H107.458C108.317 155.556 109.014 154.859 109.014 154V1.55556C109.014 0.696446 108.317 0 107.458 0H1.55556Z" fill="#819DB2"/>
<path d="M9.33203 37.3335H66.8876V43.5557H9.33203V37.3335Z" fill="#CBD8E0"/>
<path d="M70 37.3335H99.5556V43.5557H70V37.3335Z" fill="#CBD8E0"/>
<path d="M70 12.4443H99.5556V18.6666H70V12.4443Z" fill="#CBD8E0"/>
<path d="M9.33203 48.2222H66.8876V54.4444H9.33203V48.2222Z" fill="#CBD8E0"/>
<path d="M70 48.2222H99.5556V54.4444H70V48.2222Z" fill="#CBD8E0"/>
<path d="M70 23.3335H99.5556V29.5557H70V23.3335Z" fill="#CBD8E0"/>
<path d="M9.33203 59.1113H66.8876V65.3336H9.33203V59.1113Z" fill="#CBD8E0"/>
<path d="M70 59.1113H99.5556V65.3336H70V59.1113Z" fill="#CBD8E0"/>
<path d="M9.33203 26.4443H41.9987V32.6666H9.33203V26.4443Z" fill="#CBD8E0"/>
<path d="M9.33203 12.4443H40.4431V18.6666H9.33203V12.4443Z" fill="#819DB2"/>
<path d="M9.33203 113.556H66.8876V119.778H9.33203V113.556Z" fill="#CBD8E0"/>
<path d="M70 113.556H99.5556V119.778H70V113.556Z" fill="#CBD8E0"/>
<path d="M70 88.6665H99.5556V94.8887H70V88.6665Z" fill="#CBD8E0"/>
<path d="M9.33203 124.444H66.8876V130.667H9.33203V124.444Z" fill="#CBD8E0"/>
<path d="M70 124.444H99.5556V130.667H70V124.444Z" fill="#CBD8E0"/>
<path d="M70 99.5557H99.5556V105.778H70V99.5557Z" fill="#CBD8E0"/>
<path d="M9.33203 135.333H66.8876V141.556H9.33203V135.333Z" fill="#CBD8E0"/>
<path d="M70 135.333H99.5556V141.556H70V135.333Z" fill="#CBD8E0"/>
<path d="M9.33203 102.667H41.9987V108.889H9.33203V102.667Z" fill="#CBD8E0"/>
<path d="M9.33203 88.6665H40.4431V94.8887H9.33203V88.6665Z" fill="#819DB2"/>
<path d="M105.777 1.55555C105.777 0.696445 106.474 0 107.333 0H213.235C214.095 0 214.791 0.696446 214.791 1.55556V154C214.791 154.859 214.095 155.556 213.235 155.556H107.333C106.474 155.556 105.777 154.859 105.777 154V1.55555Z" fill="white"/>
<path fill-rule="evenodd" clip-rule="evenodd" d="M108.888 3.11111V152.444H211.68V3.11111H108.888ZM107.333 0C106.474 0 105.777 0.696445 105.777 1.55555V154C105.777 154.859 106.474 155.556 107.333 155.556H213.235C214.095 155.556 214.791 154.859 214.791 154V1.55556C214.791 0.696446 214.095 0 213.235 0H107.333Z" fill="#819DB2"/>
<path d="M115.109 37.3335H172.665V43.5557H115.109V37.3335Z" fill="#CBD8E0"/>
<path d="M175.777 37.3335H205.333V43.5557H175.777V37.3335Z" fill="#CBD8E0"/>
<path d="M175.777 12.4443H205.333V18.6666H175.777V12.4443Z" fill="#CBD8E0"/>
<path d="M115.109 48.2222H172.665V54.4444H115.109V48.2222Z" fill="#CBD8E0"/>
<path d="M175.777 48.2222H205.333V54.4444H175.777V48.2222Z" fill="#CBD8E0"/>
<path d="M175.777 23.3335H205.333V29.5557H175.777V23.3335Z" fill="#CBD8E0"/>
<path d="M115.109 59.1113H172.665V65.3336H115.109V59.1113Z" fill="#CBD8E0"/>
<path d="M175.777 59.1113H205.333V65.3336H175.777V59.1113Z" fill="#CBD8E0"/>
<path d="M115.109 26.4443H147.776V32.6666H115.109V26.4443Z" fill="#CBD8E0"/>
<path d="M115.109 12.4443H146.22V18.6666H115.109V12.4443Z" fill="#819DB2"/>
<path d="M115.109 113.556H172.665V119.778H115.109V113.556Z" fill="#CBD8E0"/>
<path d="M175.777 113.556H205.333V119.778H175.777V113.556Z" fill="#CBD8E0"/>
<path d="M175.777 88.6665H205.333V94.8887H175.777V88.6665Z" fill="#CBD8E0"/>
<path d="M115.109 124.444H172.665V130.667H115.109V124.444Z" fill="#CBD8E0"/>
<path d="M175.777 124.444H205.333V130.667H175.777V124.444Z" fill="#CBD8E0"/>
<path d="M175.777 99.5557H205.333V105.778H175.777V99.5557Z" fill="#CBD8E0"/>
<path d="M115.109 135.333H172.665V141.556H115.109V135.333Z" fill="#CBD8E0"/>
<path d="M175.777 135.333H205.333V141.556H175.777V135.333Z" fill="#CBD8E0"/>
<path d="M115.109 102.667H147.776V108.889H115.109V102.667Z" fill="#CBD8E0"/>
<path d="M115.109 88.6665H146.22V94.8887H115.109V88.6665Z" fill="#819DB2"/>
<g clip-path="url(#clip0_5265_1059)">
<path fill-rule="evenodd" clip-rule="evenodd" d="M26.3578 29.7887C19.5912 29.7887 14.1071 35.2676 14.1071 42.0247C14.1071 48.7817 19.5912 54.2606 26.3578 54.2606C33.1243 54.2606 38.6085 48.7817 38.6085 42.0247C38.6085 35.2676 33.1243 29.7887 26.3578 29.7887ZM12.8711 42.0247C12.8711 34.5837 18.9099 28.5527 26.3578 28.5527C33.8056 28.5527 39.8444 34.5837 39.8444 42.0247C39.8444 49.4657 33.8056 55.4966 26.3578 55.4966C18.9099 55.4966 12.8711 49.4657 12.8711 42.0247Z" fill="#819DB2"/>
<path fill-rule="evenodd" clip-rule="evenodd" d="M26.3686 30.9637C20.2518 30.9637 15.2938 35.9166 15.2938 42.0255C15.2938 48.1344 20.2518 53.0873 26.3686 53.0873C32.4854 53.0873 37.4435 48.1344 37.4435 42.0255C37.4435 35.9166 32.4854 30.9637 26.3686 30.9637ZM14.6758 42.0255C14.6758 35.5746 19.9112 30.3457 26.3686 30.3457C32.8261 30.3457 38.0614 35.5746 38.0614 42.0255C38.0614 48.4764 32.8261 53.7053 26.3686 53.7053C19.9112 53.7053 14.6758 48.4764 14.6758 42.0255Z" fill="#819DB2"/>
<path fill-rule="evenodd" clip-rule="evenodd" d="M26.356 33.1859C21.4694 33.1859 17.5086 37.1426 17.5086 42.0227C17.5086 46.9029 21.4694 50.8596 26.356 50.8596C31.2425 50.8596 35.2033 46.9029 35.2033 42.0227C35.2033 37.1426 31.2425 33.1859 26.356 33.1859ZM16.8906 42.0227C16.8906 36.8006 21.1287 32.5679 26.356 32.5679C31.5832 32.5679 35.8213 36.8006 35.8213 42.0227C35.8213 47.2448 31.5832 51.4776 26.356 51.4776C21.1287 51.4776 16.8906 47.2448 16.8906 42.0227Z" fill="#819DB2"/>
<path fill-rule="evenodd" clip-rule="evenodd" d="M26.3557 32.014C20.8199 32.014 16.3328 36.4964 16.3328 42.025C16.3328 47.5536 20.8199 52.036 26.3557 52.036C31.8914 52.036 36.3785 47.5536 36.3785 42.025C36.3785 36.4964 31.8914 32.014 26.3557 32.014ZM15.7148 42.025C15.7148 36.1544 20.4792 31.396 26.3557 31.396C32.2321 31.396 36.9965 36.1544 36.9965 42.025C36.9965 47.8955 32.2321 52.654 26.3557 52.654C20.4792 52.654 15.7148 47.8955 15.7148 42.025Z" fill="#819DB2"/>
<path fill-rule="evenodd" clip-rule="evenodd" d="M26.3637 33.5579C21.6821 33.5579 17.8875 37.3487 17.8875 42.024C17.8875 46.6994 21.6821 50.4901 26.3637 50.4901C31.0452 50.4901 34.8398 46.6994 34.8398 42.024C34.8398 37.3487 31.0452 33.5579 26.3637 33.5579ZM17.2695 42.024C17.2695 37.0067 21.3414 32.9399 26.3637 32.9399C31.3859 32.9399 35.4578 37.0067 35.4578 42.024C35.4578 47.0413 31.3859 51.1081 26.3637 51.1081C21.3414 51.1081 17.2695 47.0413 17.2695 42.024Z" fill="#819DB2"/>
<path d="M24.3359 39.3887H28.5586C28.8345 39.3889 29.0586 39.6127 29.0586 39.8887V46.166H23.8359V39.8887C23.8359 39.6125 24.0598 39.3887 24.3359 39.3887Z" stroke="#819DB2"/>
<path d="M25.8906 37.8335H27.002C27.278 37.8336 27.502 38.0574 27.502 38.3335V39.9448H25.3906V38.3335C25.3906 38.0574 25.6145 37.8335 25.8906 37.8335Z" stroke="#819DB2"/>
<path d="M25.8906 42.5H27.002C27.278 42.5001 27.502 42.7239 27.502 43V44.6113H25.3906V43C25.3906 42.7239 25.6145 42.5 25.8906 42.5Z" stroke="#819DB2"/>
</g>
<g opacity="0.2" clip-path="url(#clip1_5265_1059)">
<path fill-rule="evenodd" clip-rule="evenodd" d="M65.786 42.9824C59.418 45.2703 56.1094 52.2809 58.3941 58.64C60.6788 64.9991 67.6925 68.301 74.0605 66.0131C80.4285 63.7252 83.7371 56.7146 81.4524 50.3555C79.1677 43.9964 72.154 40.6945 65.786 42.9824ZM57.2309 59.0579C54.715 52.0551 58.359 44.3375 65.3681 41.8193C72.3773 39.301 80.0996 42.9349 82.6156 49.9376C85.1316 56.9404 81.4876 64.658 74.4784 67.1762C67.4692 69.6945 59.7469 66.0606 57.2309 59.0579Z" fill="#819DB2"/>
<path fill-rule="evenodd" clip-rule="evenodd" d="M66.1936 44.0841C60.437 46.1523 57.4457 52.4899 59.5112 58.239C61.5768 63.9881 67.9175 66.9729 73.674 64.9047C79.4306 62.8365 82.4219 56.4989 80.3564 50.7497C78.2908 45.0006 71.9501 42.0158 66.1936 44.0841ZM58.9296 58.4479C56.7485 52.377 59.9075 45.6859 65.9846 43.5025C72.0617 41.3191 78.7568 44.4698 80.938 50.5408C83.1191 56.6117 79.9601 63.3029 73.883 65.4863C67.8059 67.6696 61.1108 64.5189 58.9296 58.4479Z" fill="#819DB2"/>
<path fill-rule="evenodd" clip-rule="evenodd" d="M66.9332 46.18C62.3344 47.8322 59.9448 52.8952 61.5949 57.4879C63.2449 62.0806 68.3103 64.4651 72.9091 62.8128C77.5078 61.1605 79.8975 56.0976 78.2474 51.5049C76.5973 46.9122 71.532 44.5277 66.9332 46.18ZM61.0133 57.6968C59.2476 52.7823 61.8049 47.3658 66.7243 45.5984C71.6436 43.831 77.0633 46.3814 78.829 51.296C80.5947 56.2105 78.0374 61.6269 73.118 63.3944C68.1987 65.1618 62.779 62.6114 61.0133 57.6968Z" fill="#819DB2"/>
<path fill-rule="evenodd" clip-rule="evenodd" d="M66.5395 45.0775C61.3297 46.9492 58.6225 52.6848 60.4919 57.8878C62.3612 63.0907 68.0996 65.792 73.3093 63.9202C78.519 62.0485 81.2262 56.3129 79.3569 51.1099C77.4876 45.9069 71.7492 43.2057 66.5395 45.0775ZM59.9103 58.0967C57.9253 52.5719 60.8002 46.4828 66.3305 44.4959C71.8608 42.5089 77.9535 45.3762 79.9385 50.901C81.9234 56.4258 79.0486 62.5149 73.5183 64.5018C67.9879 66.4887 61.8952 63.6215 59.9103 58.0967Z" fill="#819DB2"/>
<path fill-rule="evenodd" clip-rule="evenodd" d="M67.0682 46.5277C62.6624 48.1106 60.373 52.9611 61.9539 57.3611C63.5347 61.7611 68.3875 64.0455 72.7934 62.4626C77.1992 60.8797 79.4886 56.0292 77.9077 51.6292C76.3269 47.2292 71.4741 44.9447 67.0682 46.5277ZM61.3723 57.57C59.6758 52.8482 62.1329 47.6442 66.8593 45.9461C71.5857 44.248 76.7929 46.6984 78.4893 51.4202C80.1858 56.142 77.7287 61.3461 73.0023 63.0442C68.2759 64.7423 63.0688 62.2919 61.3723 57.57Z" fill="#819DB2"/>
<path d="M67.1297 52.7013L71.1036 51.2735C71.3634 51.1804 71.6499 51.3153 71.7433 51.575L73.8658 57.4826L68.9507 59.2485L66.8282 53.3409C66.7348 53.081 66.8698 52.7946 67.1297 52.7013Z" stroke="#819DB2"/>
<path d="M68.0672 50.711L69.1131 50.3353C69.3729 50.2421 69.6593 50.377 69.7527 50.6368L70.2975 52.1532L68.3105 52.8671L67.7657 51.3507C67.6723 51.0908 67.8073 50.8044 68.0672 50.711Z" stroke="#819DB2"/>
<path d="M69.6453 55.1031L70.6912 54.7274C70.951 54.6341 71.2375 54.7691 71.3308 55.0289L71.8756 56.5453L69.8887 57.2592L69.3438 55.7427C69.2505 55.4829 69.3854 55.1965 69.6453 55.1031Z" stroke="#819DB2"/>
</g>
<g clip-path="url(#clip2_5265_1059)">
<path fill-rule="evenodd" clip-rule="evenodd" d="M80.2128 17.6969C75.4469 18.9741 72.6185 23.8682 73.8939 28.6274C75.1694 33.3867 80.0662 36.2104 84.8321 34.9332C89.598 33.6559 92.4264 28.7618 91.151 24.0026C89.8755 19.2434 84.9787 16.4196 80.2128 17.6969ZM73.0234 28.8607C71.6189 23.6198 74.7338 18.2322 79.9795 16.8264C85.2252 15.4205 90.617 18.5284 92.0215 23.7693C93.4261 29.0102 90.3111 34.3979 85.0654 35.8037C79.8197 37.2095 74.428 34.1017 73.0234 28.8607Z" fill="#819DB2"/>
<path fill-rule="evenodd" clip-rule="evenodd" d="M80.4421 18.5231C76.1338 19.6777 73.5766 24.102 74.7298 28.4047C75.8829 32.7074 80.3099 35.26 84.6181 34.1054C88.9264 32.9508 91.4836 28.5265 90.3304 24.2238C89.1773 19.9211 84.7503 17.3685 80.4421 18.5231ZM74.2945 28.5213C73.0768 23.9778 75.7773 19.3067 80.3254 18.0878C84.8736 16.8689 89.548 19.5636 90.7657 24.1071C91.9834 28.6507 89.2829 33.3218 84.7348 34.5407C80.1866 35.7595 75.5122 33.0649 74.2945 28.5213Z" fill="#819DB2"/>
<path fill-rule="evenodd" clip-rule="evenodd" d="M80.8537 20.09C77.4119 21.0124 75.3691 24.5469 76.2903 27.9841C77.2114 31.4213 80.748 33.4605 84.1897 32.5381C87.6315 31.6158 89.6743 28.0813 88.7531 24.6441C87.832 21.2068 84.2954 19.1676 80.8537 20.09ZM75.855 28.1007C74.8693 24.4227 77.0553 20.6414 80.737 19.6547C84.4187 18.6681 88.2027 20.8493 89.1884 24.5274C90.1741 28.2055 87.9881 31.9867 84.3064 32.9734C80.6247 33.9601 76.8407 31.7788 75.855 28.1007Z" fill="#819DB2"/>
<path fill-rule="evenodd" clip-rule="evenodd" d="M80.6308 19.2651C76.7318 20.31 74.4175 24.3141 75.4611 28.208C76.5047 32.102 80.5111 34.4121 84.4101 33.3672C88.3091 32.3223 90.6234 28.3182 89.5798 24.4243C88.5363 20.5303 84.5298 18.2202 80.6308 19.2651ZM75.0258 28.3247C73.9177 24.1899 76.3752 19.9391 80.5142 18.8298C84.6531 17.7206 88.907 20.1728 90.0151 24.3076C91.1232 28.4424 88.6657 32.6932 84.5268 33.8024C80.3878 34.9117 76.134 32.4595 75.0258 28.3247Z" fill="#819DB2"/>
<path fill-rule="evenodd" clip-rule="evenodd" d="M80.9282 20.3515C77.6308 21.2352 75.6737 24.6213 76.5562 27.9143C77.4387 31.2073 80.8269 33.161 84.1242 32.2773C87.4216 31.3936 89.3787 28.0075 88.4962 24.7145C87.6137 21.4215 84.2255 19.4678 80.9282 20.3515ZM76.1209 28.031C75.1739 24.4971 77.2742 20.8642 80.8115 19.9162C84.3488 18.9682 87.9844 21.064 88.9315 24.5978C89.8785 28.1317 87.7782 31.7646 84.2409 32.7126C80.7036 33.6606 77.068 31.5648 76.1209 28.031Z" fill="#819DB2"/>
<path d="M80.5958 24.8407L83.569 24.0439C83.7635 23.9918 83.9642 24.1077 84.0163 24.3022L85.2012 28.7233L81.5224 29.7092L80.3376 25.2881C80.2854 25.0936 80.4013 24.8929 80.5958 24.8407Z" stroke="#819DB2" stroke-width="0.729184"/>
<path d="M81.4005 23.4516L82.1825 23.242C82.377 23.1899 82.5777 23.3058 82.6298 23.5003L82.9339 24.635L81.4464 25.0337L81.1422 23.8989C81.0901 23.7044 81.206 23.5037 81.4005 23.4516Z" stroke="#819DB2" stroke-width="0.729184"/>
<path d="M82.2794 26.7387L83.0614 26.5291C83.2559 26.477 83.4566 26.5929 83.5087 26.7874L83.8128 27.9221L82.3253 28.3208L82.0211 27.186C81.969 26.9915 82.0849 26.7908 82.2794 26.7387Z" stroke="#819DB2" stroke-width="0.729184"/>
</g>
<g opacity="0.3" clip-path="url(#clip3_5265_1059)">
<path fill-rule="evenodd" clip-rule="evenodd" d="M28.1381 15.2185C21.9372 12.5103 14.7186 15.3362 12.0141 21.5285C9.30969 27.7208 12.1426 34.9367 18.3435 37.6449C24.5445 40.3531 31.7631 37.5271 34.4675 31.3349C37.1719 25.1426 34.339 17.9267 28.1381 15.2185ZM10.8815 21.0338C13.8596 14.2148 21.8075 11.105 28.6328 14.0858C35.458 17.0667 38.5783 25.0105 35.6002 31.8295C32.622 38.6486 24.6741 41.7584 17.8489 38.7775C11.0236 35.7966 7.90331 27.8529 10.8815 21.0338Z" fill="#819DB2"/>
<path fill-rule="evenodd" clip-rule="evenodd" d="M27.679 16.2994C22.0735 13.8513 15.5476 16.4058 13.1026 22.0041C10.6576 27.6024 13.2188 34.1256 18.8244 36.5738C24.4299 39.022 30.9558 36.4675 33.4008 30.8692C35.8458 25.2709 33.2846 18.7476 27.679 16.2994ZM12.5363 21.7567C15.1181 15.845 22.0087 13.1486 27.9264 15.7331C33.8441 18.3176 36.549 25.2048 33.9671 31.1165C31.3853 37.0282 24.4947 39.7246 18.577 37.1401C12.6593 34.5556 9.95436 27.6684 12.5363 21.7567Z" fill="#819DB2"/>
<path fill-rule="evenodd" clip-rule="evenodd" d="M26.7784 18.3313C22.3002 16.3755 17.0869 18.4162 15.1337 22.8884C13.1805 27.3607 15.2266 32.5719 19.7047 34.5277C24.1828 36.4835 29.3961 34.4427 31.3493 29.9705C33.3025 25.4983 31.2565 20.2871 26.7784 18.3313ZM14.5674 22.6411C16.6575 17.8555 22.2354 15.6728 27.0257 17.7649C31.816 19.8571 34.0057 25.4322 31.9157 30.2178C29.8256 35.0034 24.2476 37.1861 19.4573 35.094C14.6671 33.0019 12.4773 27.4267 14.5674 22.6411Z" fill="#819DB2"/>
<path fill-rule="evenodd" clip-rule="evenodd" d="M27.2462 17.2568C22.1731 15.0412 16.2671 17.353 14.0544 22.4195C11.8417 27.486 14.1596 33.3896 19.2327 35.6052C24.3057 37.8208 30.2117 35.509 32.4245 30.4425C34.6372 25.376 32.3193 19.4724 27.2462 17.2568ZM13.4881 22.1722C15.8377 16.7923 22.1083 14.3385 27.4935 16.6905C32.8788 19.0424 35.3404 25.31 32.9908 30.6898C30.6412 36.0697 24.3706 38.5235 18.9853 36.1715C13.6001 33.8196 11.1385 27.552 13.4881 22.1722Z" fill="#819DB2"/>
<path fill-rule="evenodd" clip-rule="evenodd" d="M26.6374 18.6754C22.3472 16.8016 17.3526 18.7568 15.4813 23.0413C13.6101 27.3259 15.5703 32.3185 19.8605 34.1922C24.1508 36.066 29.1454 34.1108 31.0166 29.8263C32.8879 25.5417 30.9277 20.5491 26.6374 18.6754ZM14.915 22.794C16.9231 18.1961 22.2823 16.099 26.8847 18.109C31.4872 20.1191 33.5911 25.4757 31.5829 30.0736C29.5748 34.6715 24.2156 36.7686 19.6132 34.7585C15.0108 32.7485 12.9069 27.3919 14.915 22.794Z" fill="#819DB2"/>
<path d="M22.4429 23.2066L26.3125 24.8966C26.5653 25.0073 26.6811 25.302 26.5706 25.555L24.0582 31.3076L19.2721 29.2173L21.7845 23.4647C21.8951 23.2116 22.1898 23.0961 22.4429 23.2066Z" stroke="#819DB2"/>
<path d="M24.4897 22.4034L25.5082 22.8482C25.7611 22.9587 25.8767 23.2535 25.7663 23.5065L25.1213 24.9831L23.1865 24.1381L23.8314 22.6615C23.9419 22.4084 24.2367 22.2928 24.4897 22.4034Z" stroke="#819DB2"/>
<path d="M22.6225 26.6802L23.641 27.125C23.8939 27.2356 24.0096 27.5303 23.8991 27.7833L23.2542 29.26L21.3193 28.4149L21.9642 26.9383C22.0747 26.6852 22.3695 26.5697 22.6225 26.6802Z" stroke="#819DB2"/>
</g>
<defs>
<clipPath id="clip0_5265_1059">
<rect width="28" height="28" fill="white" transform="translate(12.4453 28)"/>
</clipPath>
<clipPath id="clip1_5265_1059">
<rect width="28" height="28" fill="white" transform="translate(52.0898 46.0029) rotate(-19.7624)"/>
</clipPath>
<clipPath id="clip2_5265_1059">
<rect width="20.4171" height="20.4171" fill="white" transform="translate(70.0742 19.0635) rotate(-15.0025)"/>
</clipPath>
<clipPath id="clip3_5265_1059">
<rect width="28" height="28" fill="white" transform="translate(16.1055 8.01123) rotate(23.593)"/>
</clipPath>
</defs>
</svg>
