<svg width="215" height="156" viewBox="0 0 215 156" fill="none" xmlns="http://www.w3.org/2000/svg">
<path d="M105.777 1.55555C105.777 0.696445 106.474 0 107.333 0H213.235C214.095 0 214.791 0.696446 214.791 1.55556V154C214.791 154.859 214.095 155.556 213.235 155.556H107.333C106.474 155.556 105.777 154.859 105.777 154V1.55555Z" fill="white"/>
<path d="M0 1.55555C0 0.696445 0.696446 0 1.55556 0H107.458C108.317 0 109.014 0.696446 109.014 1.55556V154C109.014 154.859 108.317 155.556 107.458 155.556H1.55555C0.696445 155.556 0 154.859 0 154V1.55555Z" fill="white"/>
<path fill-rule="evenodd" clip-rule="evenodd" d="M108.888 3.11111V152.444H211.68V3.11111H108.888ZM107.333 0C106.474 0 105.777 0.696445 105.777 1.55555V154C105.777 154.859 106.474 155.556 107.333 155.556H213.235C214.095 155.556 214.791 154.859 214.791 154V1.55556C214.791 0.696446 214.095 0 213.235 0H107.333Z" fill="#819DB2"/>
<path fill-rule="evenodd" clip-rule="evenodd" d="M108.888 3.11111V152.444H211.68V3.11111H108.888ZM107.333 0C106.474 0 105.777 0.696445 105.777 1.55555V154C105.777 154.859 106.474 155.556 107.333 155.556H213.235C214.095 155.556 214.791 154.859 214.791 154V1.55556C214.791 0.696446 214.095 0 213.235 0H107.333Z" fill="#819DB2"/>
<path fill-rule="evenodd" clip-rule="evenodd" d="M3.11111 3.11111V152.444H105.903V3.11111H3.11111ZM1.55556 0C0.696446 0 0 0.696445 0 1.55555V154C0 154.859 0.696445 155.556 1.55555 155.556H107.458C108.317 155.556 109.014 154.859 109.014 154V1.55556C109.014 0.696446 108.317 0 107.458 0H1.55556Z" fill="#819DB2"/>
<path d="M188.223 9.3335H118.223V15.5557H188.223V9.3335Z" fill="#819DB2"/>
<path d="M118.223 28.3052H178.423V34.3718H118.223V28.3052Z" fill="#819DB2"/>
<path d="M118.223 50.4956H154.631V56.6134H118.223V50.4956Z" fill="#CBD8E0"/>
<path d="M118.223 60.9722H154.631V67.09H118.223V60.9722Z" fill="#CBD8E0"/>
<path d="M118.223 71.4551H154.631V77.5729H118.223V71.4551Z" fill="#CBD8E0"/>
<path d="M160.223 71.5557H205.334V77.7779H160.223V71.5557Z" fill="#819DB2"/>
<path d="M118.223 39.5059H138.866V45.6237H118.223V39.5059Z" fill="#CBD8E0"/>
<path d="M118.223 89.4385H147.156V95.5051H118.223V89.4385Z" fill="#CBD8E0"/>
<path d="M159.602 89.4385H183.557V95.5051H159.602V89.4385Z" fill="#819DB2"/>
<path d="M160.223 60.6665H183.556V66.8887H160.223V60.6665Z" fill="#819DB2"/>
<path d="M160.223 49.7778H183.556V56.0001H160.223V49.7778Z" fill="#819DB2"/>
<path d="M160.223 38.8887H183.556V45.1109H160.223V38.8887Z" fill="#819DB2"/>
<path d="M118.223 80.519H154.631V86.6369H118.223V80.519Z" fill="#CBD8E0"/>
<path d="M167.688 80.5723H183.554V86.6389H167.688V80.5723Z" fill="#819DB2"/>
<path d="M118.223 98.502H154.631V104.62H118.223V98.502Z" fill="#CBD8E0"/>
<path d="M159.602 98.4609H183.557V104.683H159.602V98.4609Z" fill="#819DB2"/>
<path d="M118.223 126H160.223V130.667H118.223V126Z" fill="#CBD8E0"/>
<path d="M163.332 126H183.554V130.667H163.332V126Z" fill="#CBD8E0"/>
<path d="M118.223 133.778H160.223V138.444H118.223V133.778Z" fill="#CBD8E0"/>
<path d="M163.332 133.778H183.554V138.444H163.332V133.778Z" fill="#CBD8E0"/>
<path d="M118.223 141.556H160.223V146.222H118.223V141.556Z" fill="#CBD8E0"/>
<path d="M9.33203 93.3335H32.6654V104.222H9.33203V93.3335Z" fill="#EFF2F8"/>
<path d="M9.33203 99.5557H32.6654V104.222H9.33203V99.5557Z" fill="#EFF2F8"/>
<path d="M9.33203 105.778H32.6654V110.444H9.33203V105.778Z" fill="#EFF2F8"/>
<path d="M9.33203 112H32.6654V116.667H9.33203V112Z" fill="#EFF2F8"/>
<path d="M9.33203 118.222H32.6654V122.889H9.33203V118.222Z" fill="#EFF2F8"/>
<path d="M9.33203 124.444H32.6654V129.111H9.33203V124.444Z" fill="#EFF2F8"/>
<path d="M9.33203 130.667H32.6654V135.333H9.33203V130.667Z" fill="#EFF2F8"/>
<path d="M9.33203 136.889H32.6654V141.555H9.33203V136.889Z" fill="#EFF2F8"/>
<path d="M9.33203 143.111H32.6654V147.778H9.33203V143.111Z" fill="#EFF2F8"/>
<path d="M34.2227 93.3335H65.3338V104.222H34.2227V93.3335Z" fill="#EFF2F8"/>
<path d="M34.2227 99.5557H65.3338V104.222H34.2227V99.5557Z" fill="#EFF2F8"/>
<path d="M34.2227 105.778H65.3338V110.444H34.2227V105.778Z" fill="#EFF2F8"/>
<path d="M34.2227 112H65.3338V116.667H34.2227V112Z" fill="#EFF2F8"/>
<path d="M34.2227 118.222H65.3338V122.889H34.2227V118.222Z" fill="#EFF2F8"/>
<path d="M34.2227 124.444H65.3338V129.111H34.2227V124.444Z" fill="#EFF2F8"/>
<path d="M34.2227 130.667H65.3338V135.333H34.2227V130.667Z" fill="#EFF2F8"/>
<path d="M34.2227 136.889H65.3338V141.555H34.2227V136.889Z" fill="#EFF2F8"/>
<path d="M34.2227 143.111H65.3338V147.778H34.2227V143.111Z" fill="#EFF2F8"/>
<path d="M66.8906 93.3335H98.0017V104.222H66.8906V93.3335Z" fill="#EFF2F8"/>
<path d="M66.8906 99.5557H98.0017V104.222H66.8906V99.5557Z" fill="#EFF2F8"/>
<path d="M66.8906 105.778H98.0017V110.444H66.8906V105.778Z" fill="#EFF2F8"/>
<path d="M66.8906 112H98.0017V116.667H66.8906V112Z" fill="#EFF2F8"/>
<path d="M66.8906 118.222H98.0017V122.889H66.8906V118.222Z" fill="#EFF2F8"/>
<path d="M66.8906 124.444H98.0017V129.111H66.8906V124.444Z" fill="#EFF2F8"/>
<path d="M66.8906 130.667H98.0017V135.333H66.8906V130.667Z" fill="#EFF2F8"/>
<path d="M66.8906 136.889H98.0017V141.555H66.8906V136.889Z" fill="#EFF2F8"/>
<path d="M66.8906 143.111H98.0017V147.778H66.8906V143.111Z" fill="#EFF2F8"/>
<path d="M163.332 141.556H183.554V146.222H163.332V141.556Z" fill="#CBD8E0"/>
<path d="M118.223 113.556H160.223V119.778H118.223V113.556Z" fill="#819DB2"/>
<path d="M130.668 17.1113H177.335V23.3336H130.668V17.1113Z" fill="#819DB2"/>
<path fill-rule="evenodd" clip-rule="evenodd" d="M132.766 98.7553C142.359 98.7553 150.132 90.9881 150.132 81.4113C150.132 71.8344 142.359 64.0673 132.766 64.0673C123.173 64.0673 115.4 71.8344 115.4 81.4113C115.4 90.9881 123.173 98.7553 132.766 98.7553ZM132.766 100.6C143.376 100.6 151.977 92.0092 151.977 81.4113C151.977 70.8134 143.376 62.2222 132.766 62.2222C122.156 62.2222 113.555 70.8134 113.555 81.4113C113.555 92.0092 122.156 100.6 132.766 100.6Z" fill="#819DB2"/>
<path fill-rule="evenodd" clip-rule="evenodd" d="M132.768 97.464C141.645 97.464 148.84 90.276 148.84 81.4115C148.84 72.547 141.645 65.3591 132.768 65.3591C123.891 65.3591 116.696 72.547 116.696 81.4115C116.696 90.276 123.891 97.464 132.768 97.464ZM132.768 98.3865C142.154 98.3865 149.762 90.7865 149.762 81.4115C149.762 72.0365 142.154 64.4365 132.768 64.4365C123.382 64.4365 115.773 72.0365 115.773 81.4115C115.773 90.7865 123.382 98.3865 132.768 98.3865Z" fill="#819DB2"/>
<path fill-rule="evenodd" clip-rule="evenodd" d="M132.767 94.1422C139.807 94.1422 145.513 88.4414 145.513 81.4113C145.513 74.3812 139.807 68.6804 132.767 68.6804C125.726 68.6804 120.02 74.3812 120.02 81.4113C120.02 88.4414 125.726 94.1422 132.767 94.1422ZM132.767 95.0647C140.316 95.0647 146.436 88.9519 146.436 81.4113C146.436 73.8707 140.316 67.7578 132.767 67.7578C125.218 67.7578 119.098 73.8707 119.098 81.4113C119.098 88.9519 125.218 95.0647 132.767 95.0647Z" fill="#819DB2"/>
<path fill-rule="evenodd" clip-rule="evenodd" d="M132.768 95.8954C140.778 95.8954 147.269 89.4098 147.269 81.4116C147.269 73.4135 140.778 66.9279 132.768 66.9279C124.758 66.9279 118.266 73.4135 118.266 81.4116C118.266 89.4098 124.758 95.8954 132.768 95.8954ZM132.768 96.8179C141.286 96.8179 148.192 89.9203 148.192 81.4116C148.192 72.903 141.286 66.0054 132.768 66.0054C124.249 66.0054 117.344 72.903 117.344 81.4116C117.344 89.9203 124.249 96.8179 132.768 96.8179Z" fill="#819DB2"/>
<path fill-rule="evenodd" clip-rule="evenodd" d="M132.763 93.5889C139.498 93.5889 144.956 88.1359 144.956 81.4115C144.956 74.6871 139.498 69.2341 132.763 69.2341C126.029 69.2341 120.571 74.6871 120.571 81.4115C120.571 88.1359 126.029 93.5889 132.763 93.5889ZM132.763 94.5114C140.007 94.5114 145.878 88.6464 145.878 81.4115C145.878 74.1766 140.007 68.3115 132.763 68.3115C125.52 68.3115 119.648 74.1766 119.648 81.4115C119.648 88.6464 125.52 94.5114 132.763 94.5114Z" fill="#819DB2"/>
<path fill-rule="evenodd" clip-rule="evenodd" d="M135.551 77.1905C135.182 77.0088 134.755 77.1298 134.529 77.2717C134.637 77.0305 134.969 76.7674 135.075 76.7181C135.168 76.7271 135.476 76.9108 135.551 77.1905ZM136.213 75.852C135.736 74.855 133.483 76.2041 132.135 76.0874C132.193 76.3997 132.726 76.7823 133.159 76.8608C132.655 77.6068 132.373 78.9133 132.63 80.3484C132.136 78.977 131.238 77.9865 130.429 77.5925C130.764 77.3081 131.035 76.7101 130.929 76.4105C129.82 77.1855 127.194 77.1436 127.279 78.2459C127.297 78.4791 127.495 78.789 127.636 78.8554C127.638 78.7794 127.684 78.5203 128.011 78.3775C129.66 77.6574 131.804 79.9216 130.796 81.3395C130.78 81.3611 130.8 81.3882 130.826 81.381L134.709 80.3406C134.736 80.3335 134.739 80.3004 134.715 80.2894C133.133 79.5656 133.858 76.5325 135.646 76.3317C136 76.2921 136.169 76.4936 136.209 76.5584C136.298 76.4302 136.314 76.063 136.213 75.852ZM135.986 73.331C135.928 73.2401 136.935 72.9677 137.104 73.5983C137.217 74.0211 136.668 74.3828 136.786 74.8214C136.841 75.0257 137.101 75.1167 137.168 75.0986C136.824 74.4359 137.565 74.6325 137.773 74.7177C137.175 73.863 137.952 73.6612 137.76 73.2474C137.625 72.9581 136.976 73.2304 136.69 73.1422C136.185 72.9857 135.388 72.0626 135.335 73.2133C136.121 73.6289 135.985 74.5867 135.186 74.8007C135.186 74.8007 135.216 74.9279 135.226 74.936C136.166 74.6341 136.31 73.845 135.986 73.331ZM125.338 78.0498C125.476 77.8716 126.019 77.3311 126.053 78.0769C126.12 78.0589 126.3 77.8501 126.245 77.6458C126.127 77.2072 125.471 77.1685 125.358 76.7458C125.189 76.1151 126.197 75.8476 126.193 75.955C126.169 76.5623 126.689 77.1735 127.654 76.9648C127.658 76.9529 127.62 76.8281 127.62 76.8281C126.822 77.042 126.225 76.2803 126.697 75.5278C126.076 74.5579 125.848 75.7554 125.488 76.1439C125.285 76.3629 124.587 76.4518 124.615 76.7695C124.655 77.2241 125.429 77.0105 125.338 78.0498ZM128.512 79.0764C128.741 78.7348 129.171 78.6258 129.438 78.6359C129.224 78.4809 128.804 78.4193 128.688 78.4292C128.613 78.4834 128.437 78.7967 128.512 79.0764ZM130.916 72.1392L130.3 71.6971L129.987 72.3882L130.611 72.86L130.916 72.1392ZM134.028 73.1416L133.59 72.8275L133.368 73.3187L133.803 73.6238L134.028 73.1416ZM139.827 84.0624L139.29 83.7313L138.989 84.2869L139.513 84.5635L139.827 84.0624ZM128.454 74.6351L128.016 74.321L127.794 74.8121L128.229 75.1173L128.454 74.6351ZM128.036 76.8623L129.269 76.532C130.305 76.2543 130.601 75.4933 130.594 74.904L131.649 74.6215C131.937 75.1353 132.574 75.6465 133.61 75.3687L134.843 75.0385C134.843 75.0385 134.98 74.6882 134.995 74.5289C135.05 73.9555 134.737 73.779 134.374 73.8763L134.018 74.4272L133.435 74.1277C133.072 74.2249 132.889 74.5347 133.223 75.0038C133.266 75.0638 133.352 75.1457 133.431 75.2167C132.977 75.2738 132.339 75.124 132.045 74.5154C132.045 74.5154 132.23 73.9154 132.256 73.6859C132.347 72.8608 131.893 72.6551 131.349 72.801L130.867 73.8152L129.943 73.1775C129.399 73.3233 129.109 73.7284 129.601 74.3973C129.737 74.5834 130.198 75.0101 130.198 75.0101C130.247 75.6845 129.769 76.1334 129.348 76.3107C129.382 76.2095 129.415 76.0957 129.422 76.0224C129.476 75.4491 129.163 75.2725 128.8 75.3698L128.445 75.9207L127.861 75.6212C127.498 75.7185 127.315 76.0281 127.649 76.4973C127.742 76.6276 128.036 76.8623 128.036 76.8623ZM141.803 77.2684C141.597 77.4527 140.377 78.4805 138.524 78.7177C138.52 78.6275 138.513 78.5374 138.502 78.4476C139.654 77.9864 140.567 77.5254 141.092 77.0174C141.69 76.438 141.747 75.4222 141.206 74.8226C141.192 74.8076 141.166 74.8113 141.157 74.8294C141.023 75.1051 140.157 76.7619 138.342 77.6911C138.311 77.5927 138.275 77.4957 138.235 77.4003C139.028 76.6194 139.777 75.7637 140.062 75.0885C140.493 74.0677 140.144 73.0064 139.371 72.6246C139.363 72.6207 139.354 72.6205 139.346 72.624C139.338 72.6275 139.332 72.6343 139.329 72.6427C139.219 73.022 138.169 76.5113 136.482 78.3482C136.461 78.3707 136.44 78.3929 136.419 78.4149C136.371 78.4659 136.384 78.5433 136.446 78.575C136.737 78.7247 136.962 78.9813 137.05 79.3095C137.203 79.8801 136.89 80.4726 136.337 80.7313C136.056 80.8677 135.625 80.9654 135.179 80.9398C135.159 80.9387 135.144 80.956 135.149 80.9745L135.633 82.7819C135.641 82.811 135.687 82.8063 135.69 82.7756C135.762 82.0492 136.47 81.7092 136.796 81.6218C137.102 82.2956 137.469 82.8235 137.825 83.065C138.405 83.4571 139.127 83.2559 139.347 82.8186C139.35 82.8113 139.35 82.8028 139.347 82.7955C139.344 82.7882 139.337 82.7828 139.329 82.781C139.116 82.7244 137.887 82.3593 137.391 81.354C137.467 81.3029 137.54 81.2485 137.607 81.1891C138.099 81.6617 138.73 82.0309 139.18 82.1157C139.937 82.2577 140.509 81.9368 140.655 81.393C140.66 81.3738 140.643 81.3563 140.622 81.3599C140.198 81.4378 138.828 81.4141 138.048 80.6705C138.094 80.5969 138.139 80.5212 138.179 80.4428C138.862 80.7226 139.766 80.8894 140.361 80.8135C141.057 80.7249 141.761 80.3066 141.57 79.5205C141.566 79.5047 141.549 79.4956 141.532 79.501C141.297 79.5794 139.735 80.0719 138.435 79.7271C138.454 79.6422 138.47 79.5567 138.483 79.4706C138.483 79.4706 140.294 79.4169 141.064 79.0674C141.83 78.7203 142.14 77.997 141.85 77.2779C141.843 77.2601 141.818 77.2551 141.803 77.2684ZM127.099 82.521C127.154 82.5889 127.211 82.6549 127.27 82.7188C126.317 83.6669 124.718 84.0222 124.474 84.0718C124.457 84.0753 124.447 84.0925 124.451 84.1078C124.679 84.8836 125.498 84.8941 126.145 84.6228C126.698 84.3911 127.398 83.7945 127.849 83.2108C127.923 83.2587 127.999 83.3019 128.077 83.3423C127.773 84.3763 126.598 85.0822 126.192 85.2265C126.172 85.2337 126.166 85.2575 126.18 85.2716C126.579 85.6694 127.234 85.6614 127.819 85.16C128.166 84.8613 128.528 84.2263 128.717 83.5713C128.806 83.5888 128.896 83.5995 128.987 83.6061C129.06 84.7245 128.178 85.6552 128.022 85.8107C128.016 85.8163 128.013 85.8242 128.014 85.8322C128.015 85.8402 128.019 85.8475 128.026 85.852C128.434 86.1211 129.161 85.9342 129.467 85.3045C129.655 84.9171 129.708 84.277 129.636 83.5403C129.963 83.4529 130.745 83.3934 131.171 83.9865C131.19 84.0114 131.232 83.9923 131.224 83.9633L130.74 82.1559C130.735 82.1374 130.712 82.1304 130.695 82.1413C130.322 82.3865 129.9 82.5174 129.589 82.5392C128.98 82.5922 128.413 82.2355 128.26 81.6648C128.172 81.3366 128.239 81.0015 128.416 80.7264C128.454 80.6682 128.427 80.5943 128.36 80.5745C128.33 80.5661 128.301 80.5573 128.271 80.5481C125.893 79.8011 123.241 77.3061 122.954 77.031C122.94 77.0182 122.917 77.021 122.907 77.0366C122.43 77.7536 122.658 78.847 123.541 79.5153C124.125 79.9576 125.202 80.324 126.279 80.6038C126.292 80.7063 126.31 80.8082 126.332 80.9092C124.297 81.0117 122.721 80.0117 122.464 79.8391C122.447 79.8272 122.422 79.8373 122.418 79.8572C122.25 80.647 122.807 81.4976 123.614 81.7005C124.322 81.8783 125.343 81.8209 126.571 81.6444C126.607 81.7273 126.646 81.8089 126.687 81.8893C124.966 82.6094 123.396 82.3309 123.124 82.2737C123.104 82.2694 123.085 82.2865 123.088 82.3059C123.197 83.0734 123.826 83.5446 124.663 83.4622C125.505 83.3795 127.099 82.521 127.099 82.521ZM139.665 85.1344L138.914 84.8126C138.706 85.0263 138.587 85.3091 138.59 85.6023C138.231 85.7546 137.153 85.8013 137.212 85.6249C137.907 83.7581 136.804 83.053 135.793 83.3796L136.075 84.4327C136.166 84.7709 135.944 85.124 135.58 85.2214L134.873 85.411C134.365 85.5471 134.171 86.1459 134.171 86.1459C134.171 86.1459 133.704 85.7242 133.197 85.8602L132.489 86.0498C132.125 86.1473 131.757 85.9522 131.666 85.614L131.384 84.5609C130.345 84.7836 129.742 85.9459 131.278 87.2151C131.415 87.3371 130.433 87.8547 129.927 87.9261C129.762 87.8268 129.553 87.7922 129.344 87.8482C129.255 87.872 129.172 87.9113 129.097 87.9644C129.097 87.9644 126.681 86.6562 126.641 86.6478L126.647 86.6066C126.701 86.372 126.473 86.1933 126.371 86.2374C126.455 86.0564 126.287 85.4069 125.563 85.4405C125.618 85.5652 125.699 85.8282 125.699 85.8282C125.699 85.8282 125.094 85.6841 124.895 86.0016C124.736 86.3401 125.193 86.754 125.193 86.754C125.193 86.754 124.925 86.833 124.788 86.8574C125.162 87.4676 125.806 87.2445 125.914 87.0757C125.933 87.1836 126.21 87.2701 126.379 87.0957L126.456 87.0291C126.478 87.0459 128.83 88.3163 128.83 88.3163C128.778 88.4673 128.779 88.6354 128.852 88.7952C128.967 89.0448 129.243 89.2032 129.536 89.1849C129.743 89.1717 129.918 89.084 130.043 88.9576L130.663 89.2857C130.718 89.3139 130.785 89.3229 130.85 89.3003C130.969 89.2596 131.034 89.1367 130.995 89.0262C130.977 88.9762 130.939 88.9395 130.894 88.9159C130.884 88.9093 130.262 88.5803 130.262 88.5803C130.596 88.182 131.307 87.7739 131.942 87.6036C132.054 87.5737 132.081 87.4652 132.018 87.3828C131.545 86.7676 132.029 86.1003 132.779 86.337C133.106 86.4402 133.484 86.7149 133.854 87.2426C132.872 87.7785 131.74 88.8327 131.679 89.6692C131.655 89.9921 132.102 90.3037 132.536 90.2744C132.544 90.274 132.551 90.2706 132.556 90.2649C132.561 90.2591 132.564 90.2515 132.564 90.2438C132.473 89.0441 133.473 87.8641 134.073 87.5483C134.129 87.6257 134.111 87.6007 134.166 87.6778C133.558 88.1934 133.069 89.0685 133.097 89.9455C133.11 90.3471 133.623 90.5749 133.996 90.5749C134.015 90.5749 134.029 90.5581 134.025 90.541C133.812 89.4795 134.035 88.4697 134.34 87.9558C134.372 88.0316 134.402 88.1085 134.429 88.1864C134.429 88.1864 134.322 89.4776 134.552 90.3371C134.659 90.7369 135.328 90.8568 135.426 90.8723C135.526 90.8038 136.045 90.3656 135.938 89.9658C135.707 89.1063 134.969 88.0417 134.969 88.0417C134.953 87.9607 134.941 87.8792 134.931 87.7974C135.452 88.0901 136.15 88.8525 136.496 89.8785C136.501 89.8952 136.522 89.9031 136.538 89.8938C136.861 89.7072 137.191 89.2537 137.002 88.8994C136.588 88.1258 135.727 87.6123 134.943 87.4697C134.952 87.3754 134.949 87.4061 134.958 87.3114C135.636 87.2846 137.091 87.8066 137.613 88.8909C137.616 88.8978 137.622 88.903 137.63 88.9053C137.637 88.9077 137.645 88.9071 137.652 88.9035C138.042 88.7122 138.274 88.2184 138.092 87.9508C137.621 87.2571 136.113 86.9099 134.995 86.937C135.052 86.2946 135.242 85.8679 135.473 85.615C136.004 85.0353 136.757 85.371 136.655 86.1405C136.641 86.2434 136.719 86.3239 136.831 86.2938C137.549 86.1012 138.505 86.1237 138.948 86.378C139.262 86.654 139.734 86.758 140.188 86.5869C140.705 86.3928 141.031 85.8783 140.959 85.3696C140.895 84.9238 140.568 84.596 140.155 84.4802L139.665 85.1344ZM134.251 83.2142C134.45 83.0731 134.814 83.0466 134.888 83.3688C134.905 83.4418 135.006 83.4146 134.994 83.3389C134.932 82.8434 134.572 82.7922 134.249 82.9388C134.163 82.7857 134.09 82.6514 134.013 82.5195C133.951 82.4127 133.882 82.1996 134.015 82.1639C134.087 82.1446 134.112 82.3535 134.128 82.442C134.143 82.5196 134.182 82.5583 134.245 82.5439C134.284 82.5352 134.319 82.4732 134.338 82.433C134.473 82.1625 134.427 81.812 134.157 81.7094C133.931 81.6231 133.484 81.8522 133.405 82.0824C133.366 82.0141 133.239 81.918 133.18 81.8772C133.122 81.8374 133.101 81.8051 133.15 81.7435C133.173 81.7139 133.236 81.6047 133.212 81.5158C133.198 81.4633 133.132 81.3772 133.002 81.4118C132.9 81.4392 132.805 81.5404 132.848 81.698C132.857 81.7331 132.876 81.7684 132.909 81.8027C132.842 81.8093 132.668 81.8607 132.584 81.907L134.743 84.989C135.053 84.7177 135.239 84.3693 135.159 84.0705C135.091 83.8158 134.738 84.0008 134.609 84.2483C134.464 83.9411 134.332 83.6569 134.196 83.3749C134.158 83.2971 134.192 83.2566 134.251 83.2142ZM131.869 81.3657L132.326 82.0221C132.116 82.1353 131.8 82.395 131.858 82.6112C131.935 82.8991 132.494 82.95 132.783 82.8485C132.786 82.9182 132.818 82.9722 132.878 83.0134C132.771 83.042 132.583 83.1458 132.536 83.2348C132.341 83.1312 132.082 83.1438 131.99 83.2634C131.897 83.3839 131.934 83.5359 132.102 83.6741C132.218 83.7696 132.282 83.8778 132.223 84.0404C132.578 83.9453 132.323 83.5189 132.462 83.4816C132.468 83.5759 132.507 83.6765 132.578 83.7805C132.625 83.8497 132.64 83.9038 132.614 83.9896C132.548 84.2033 132.483 84.6715 132.609 85.0452C132.492 85.0757 132.426 85.0631 132.424 84.8932C132.423 84.8299 132.376 84.7975 132.347 84.8833C132.315 84.9781 132.326 85.1223 132.342 85.1811C132.432 85.5197 132.854 85.4798 132.989 85.3669C133.549 85.6785 134.393 85.3292 134.648 85.1062L131.975 81.293C131.922 81.2217 131.82 81.2902 131.869 81.3657ZM132.749 84.8608C132.67 84.6954 132.829 84.3196 133.057 83.937C133.043 84.1501 133.174 84.4762 133.334 84.5578C133.111 84.6177 132.857 84.7306 132.749 84.8608Z" fill="#819DB2"/>
<path d="M20.2227 80.8887H84.0004V87.1109H20.2227V80.8887Z" fill="#819DB2"/>
<path d="M9.33203 31.2119H45.7409V37.3298H9.33203V31.2119Z" fill="#CBD8E0"/>
<path d="M51.332 31.1113H97.9987V37.3336H51.332V31.1113Z" fill="#CBD8E0"/>
<path d="M9.33203 41.6885H45.7409V47.8063H9.33203V41.6885Z" fill="#CBD8E0"/>
<path d="M51.332 42H97.9987V48.2222H51.332V42Z" fill="#CBD8E0"/>
<path d="M9.33203 52.1719H45.7409V58.2897H9.33203V52.1719Z" fill="#CBD8E0"/>
<path d="M9.33203 63.7778H45.7409V69.8957H9.33203V63.7778Z" fill="#CBD8E0"/>
<path d="M51.332 52.8887H97.9987V57.5553H51.332V52.8887Z" fill="#CBD8E0"/>
<path d="M51.332 63.7778H97.9987V70.0001H51.332V63.7778Z" fill="#CBD8E0"/>
<path d="M9.33203 20.2222H29.975V26.34H9.33203V20.2222Z" fill="#CBD8E0"/>
<path d="M51.332 20.2222H71.975V26.34H51.332V20.2222Z" fill="#CBD8E0"/>
<path d="M9.33203 9.3335H54.4431V15.5557H9.33203V9.3335Z" fill="#819DB2"/>
<path fill-rule="evenodd" clip-rule="evenodd" d="M199.11 24.0738C202.957 24.0738 206.073 20.9557 206.073 17.1113C206.073 13.2668 202.957 10.1487 199.11 10.1487C195.263 10.1487 192.146 13.2668 192.146 17.1113C192.146 20.9557 195.263 24.0738 199.11 24.0738ZM199.11 24.8891C203.405 24.8891 206.888 21.4068 206.888 17.1113C206.888 12.8157 203.405 9.3335 199.11 9.3335C194.814 9.3335 191.332 12.8157 191.332 17.1113C191.332 21.4068 194.814 24.8891 199.11 24.8891Z" fill="#819DB2"/>
<path fill-rule="evenodd" clip-rule="evenodd" d="M199.113 92.681C202.19 92.681 204.684 90.1864 204.684 87.1109C204.684 84.0353 202.19 81.5408 199.113 81.5408C196.035 81.5408 193.542 84.0353 193.542 87.1109C193.542 90.1864 196.035 92.681 199.113 92.681ZM199.113 93.3331C202.549 93.3331 205.335 90.5473 205.335 87.1109C205.335 83.6745 202.549 80.8887 199.113 80.8887C195.676 80.8887 192.891 83.6745 192.891 87.1109C192.891 90.5473 195.676 93.3331 199.113 93.3331Z" fill="#819DB2"/>
<path d="M205.335 17.1109C205.335 20.5473 202.549 23.3331 199.113 23.3331C195.676 23.3331 192.891 20.5473 192.891 17.1109C192.891 13.6745 195.676 10.8887 199.113 10.8887C202.549 10.8887 205.335 13.6745 205.335 17.1109Z" fill="#CBD8E0"/>
<path d="M203.779 87.111C203.779 89.6883 201.689 91.7777 199.112 91.7777C196.535 91.7777 194.445 89.6883 194.445 87.111C194.445 84.5337 196.535 82.4443 199.112 82.4443C201.689 82.4443 203.779 84.5337 203.779 87.111Z" fill="#819DB2"/>
</svg>
