<svg width="215" height="156" viewBox="0 0 215 156" fill="none" xmlns="http://www.w3.org/2000/svg">
<path d="M0 1.55555C0 0.696445 0.696446 0 1.55556 0H107.458C108.317 0 109.014 0.696446 109.014 1.55556V154C109.014 154.859 108.317 155.556 107.458 155.556H1.55555C0.696445 155.556 0 154.859 0 154V1.55555Z" fill="white"/>
<path fill-rule="evenodd" clip-rule="evenodd" d="M3.11111 3.11111V152.444H105.903V3.11111H3.11111ZM1.55556 0C0.696446 0 0 0.696445 0 1.55555V154C0 154.859 0.696445 155.556 1.55555 155.556H107.458C108.317 155.556 109.014 154.859 109.014 154V1.55556C109.014 0.696446 108.317 0 107.458 0H1.55556Z" fill="#819DB2"/>
<path d="M3.10938 77H105.776V79H3.10938V77Z" fill="#819DB2"/>
<path d="M31.1094 38.9897H67.5182V45.1076H31.1094V38.9897Z" fill="#CBD8E0"/>
<path d="M31.1094 104.323H67.5182V110.441H31.1094V104.323Z" fill="#CBD8E0"/>
<path d="M31.1094 49.4663H67.5182V55.5841H31.1094V49.4663Z" fill="#CBD8E0"/>
<path d="M31.1094 114.8H67.5182V120.918H31.1094V114.8Z" fill="#CBD8E0"/>
<path d="M31.1094 59.9497H67.5182V66.0675H31.1094V59.9497Z" fill="#CBD8E0"/>
<path d="M31.1094 125.283H67.5182V131.401H31.1094V125.283Z" fill="#CBD8E0"/>
<path d="M72.4883 59.8887H96.4438V66.1109H72.4883V59.8887Z" fill="#819DB2"/>
<path d="M72.4883 125.222H96.4438V131.444H72.4883V125.222Z" fill="#819DB2"/>
<path d="M31.1094 28H51.7524V34.1178H31.1094V28Z" fill="#CBD8E0"/>
<path d="M31.1094 93.3335H51.7524V99.4513H31.1094V93.3335Z" fill="#CBD8E0"/>
<path d="M72.4883 49.4663H91.3105V55.533H72.4883V49.4663Z" fill="#819DB2"/>
<path d="M72.4883 114.8H91.3105V120.866H72.4883V114.8Z" fill="#819DB2"/>
<path d="M72.4883 39.0439H91.3105V45.1106H72.4883V39.0439Z" fill="#819DB2"/>
<path d="M72.4883 104.377H91.3105V110.444H72.4883V104.377Z" fill="#819DB2"/>
<path d="M72.4883 28H91.3105V34.0667H72.4883V28Z" fill="#819DB2"/>
<path d="M6.22266 28H25.0449V34.0667H6.22266V28Z" fill="#819DB2"/>
<path d="M6.22266 93.3335H25.0449V99.4002H6.22266V93.3335Z" fill="#819DB2"/>
<path d="M72.4883 93.3335H91.3105V99.4002H72.4883V93.3335Z" fill="#819DB2"/>
<path fill-rule="evenodd" clip-rule="evenodd" d="M15.5551 22.5182C19.4018 22.5182 22.5186 19.4001 22.5186 15.5556C22.5186 11.7112 19.4018 8.59303 15.5551 8.59303C11.7084 8.59303 8.59161 11.7112 8.59161 15.5556C8.59161 19.4001 11.7084 22.5182 15.5551 22.5182ZM15.5551 23.3334C19.8507 23.3334 23.3329 19.8512 23.3329 15.5556C23.3329 11.2601 19.8507 7.77783 15.5551 7.77783C11.2596 7.77783 7.77734 11.2601 7.77734 15.5556C7.77734 19.8512 11.2596 23.3334 15.5551 23.3334Z" fill="#819DB2"/>
<path d="M21.7765 15.5557C21.7765 18.9922 18.9907 21.7779 15.5543 21.7779C12.1178 21.7779 9.33203 18.9922 9.33203 15.5557C9.33203 12.1193 12.1178 9.3335 15.5543 9.3335C18.9907 9.3335 21.7765 12.1193 21.7765 15.5557Z" fill="#CBD8E0"/>
<path d="M105.777 1.55555C105.777 0.696445 106.474 0 107.333 0H213.235C214.095 0 214.791 0.696446 214.791 1.55556V154C214.791 154.859 214.095 155.556 213.235 155.556H107.333C106.474 155.556 105.777 154.859 105.777 154V1.55555Z" fill="white"/>
<path fill-rule="evenodd" clip-rule="evenodd" d="M108.888 3.11111V152.444H211.68V3.11111H108.888ZM107.333 0C106.474 0 105.777 0.696445 105.777 1.55555V154C105.777 154.859 106.474 155.556 107.333 155.556H213.235C214.095 155.556 214.791 154.859 214.791 154V1.55556C214.791 0.696446 214.095 0 213.235 0H107.333Z" fill="#819DB2"/>
<path d="M108.887 77H211.553V79H108.887V77Z" fill="#819DB2"/>
<path d="M136.887 38.9897H173.296V45.1076H136.887V38.9897Z" fill="#CBD8E0"/>
<path d="M136.887 104.323H173.296V110.441H136.887V104.323Z" fill="#CBD8E0"/>
<path d="M136.887 49.4663H173.296V55.5841H136.887V49.4663Z" fill="#CBD8E0"/>
<path d="M136.887 114.8H173.296V120.918H136.887V114.8Z" fill="#CBD8E0"/>
<path d="M136.887 59.9497H173.296V66.0675H136.887V59.9497Z" fill="#CBD8E0"/>
<path d="M136.887 125.283H173.296V131.401H136.887V125.283Z" fill="#CBD8E0"/>
<path d="M178.266 59.8887H202.221V66.1109H178.266V59.8887Z" fill="#819DB2"/>
<path d="M136.887 28H157.53V34.1178H136.887V28Z" fill="#CBD8E0"/>
<path d="M136.887 93.3335H157.53V99.4513H136.887V93.3335Z" fill="#CBD8E0"/>
<path d="M178.266 49.4663H197.088V55.533H178.266V49.4663Z" fill="#819DB2"/>
<path d="M178.266 39.0439H197.088V45.1106H178.266V39.0439Z" fill="#819DB2"/>
<path d="M178.266 28H197.088V34.0667H178.266V28Z" fill="#819DB2"/>
<path d="M112 28H130.822V34.0667H112V28Z" fill="#819DB2"/>
<path d="M112 93.3335H130.822V99.4002H112V93.3335Z" fill="#819DB2"/>
<path fill-rule="evenodd" clip-rule="evenodd" d="M121.332 22.5182C125.179 22.5182 128.296 19.4001 128.296 15.5556C128.296 11.7112 125.179 8.59303 121.332 8.59303C117.486 8.59303 114.369 11.7112 114.369 15.5556C114.369 19.4001 117.486 22.5182 121.332 22.5182ZM121.332 23.3334C125.628 23.3334 129.11 19.8512 129.11 15.5556C129.11 11.2601 125.628 7.77783 121.332 7.77783C117.037 7.77783 113.555 11.2601 113.555 15.5556C113.555 19.8512 117.037 23.3334 121.332 23.3334Z" fill="#819DB2"/>
<path d="M127.554 15.5557C127.554 18.9922 124.768 21.7779 121.332 21.7779C117.895 21.7779 115.109 18.9922 115.109 15.5557C115.109 12.1193 117.895 9.3335 121.332 9.3335C124.768 9.3335 127.554 12.1193 127.554 15.5557Z" fill="#CBD8E0"/>
<g clip-path="url(#clip0_5265_239)">
<path fill-rule="evenodd" clip-rule="evenodd" d="M49.6898 120.011C42.9232 120.011 37.4391 125.49 37.4391 132.247C37.4391 139.004 42.9232 144.483 49.6898 144.483C56.4563 144.483 61.9405 139.004 61.9405 132.247C61.9405 125.49 56.4563 120.011 49.6898 120.011ZM36.2031 132.247C36.2031 124.806 42.242 118.775 49.6898 118.775C57.1376 118.775 63.1765 124.806 63.1765 132.247C63.1765 139.688 57.1376 145.719 49.6898 145.719C42.242 145.719 36.2031 139.688 36.2031 132.247Z" fill="#819DB2"/>
<path fill-rule="evenodd" clip-rule="evenodd" d="M49.7006 121.186C43.5838 121.186 38.6258 126.139 38.6258 132.248C38.6258 138.357 43.5838 143.309 49.7006 143.309C55.8174 143.309 60.7755 138.357 60.7755 132.248C60.7755 126.139 55.8174 121.186 49.7006 121.186ZM38.0078 132.248C38.0078 125.797 43.2432 120.568 49.7006 120.568C56.1581 120.568 61.3935 125.797 61.3935 132.248C61.3935 138.699 56.1581 143.927 49.7006 143.927C43.2432 143.927 38.0078 138.699 38.0078 132.248Z" fill="#819DB2"/>
<path fill-rule="evenodd" clip-rule="evenodd" d="M49.688 123.408C44.8014 123.408 40.8406 127.365 40.8406 132.245C40.8406 137.125 44.8014 141.082 49.688 141.082C54.5746 141.082 58.5353 137.125 58.5353 132.245C58.5353 127.365 54.5746 123.408 49.688 123.408ZM40.2227 132.245C40.2227 127.023 44.4608 122.79 49.688 122.79C54.9152 122.79 59.1533 127.023 59.1533 132.245C59.1533 137.467 54.9152 141.7 49.688 141.7C44.4608 141.7 40.2227 137.467 40.2227 132.245Z" fill="#819DB2"/>
<path fill-rule="evenodd" clip-rule="evenodd" d="M49.6877 122.236C44.1519 122.236 39.6649 126.719 39.6649 132.247C39.6649 137.776 44.1519 142.258 49.6877 142.258C55.2235 142.258 59.7105 137.776 59.7105 132.247C59.7105 126.719 55.2235 122.236 49.6877 122.236ZM39.0469 132.247C39.0469 126.377 43.8113 121.618 49.6877 121.618C55.5641 121.618 60.3285 126.377 60.3285 132.247C60.3285 138.118 55.5641 142.876 49.6877 142.876C43.8113 142.876 39.0469 138.118 39.0469 132.247Z" fill="#819DB2"/>
<path fill-rule="evenodd" clip-rule="evenodd" d="M49.6957 123.78C45.0141 123.78 41.2195 127.571 41.2195 132.246C41.2195 136.922 45.0141 140.712 49.6957 140.712C54.3773 140.712 58.1718 136.922 58.1718 132.246C58.1718 127.571 54.3773 123.78 49.6957 123.78ZM40.6016 132.246C40.6016 127.229 44.6735 123.162 49.6957 123.162C54.7179 123.162 58.7898 127.229 58.7898 132.246C58.7898 137.264 54.7179 141.33 49.6957 141.33C44.6735 141.33 40.6016 137.264 40.6016 132.246Z" fill="#819DB2"/>
<path fill-rule="evenodd" clip-rule="evenodd" d="M47.8284 136.657L51.322 130.612L52.4305 131.252L52.9254 130.395L51.817 129.756L52.0624 129.331L53.1692 129.97L53.6641 129.113L52.5725 128.449L52.5898 128.419L51.7326 127.925L51.727 127.934L51.3337 127.695L49.9724 128.126L51.2051 128.837L50.9597 129.262L49.7287 128.552L49.2337 129.408L50.4648 130.118L46.9711 136.162L47.8284 136.657Z" fill="#819DB2"/>
<path fill-rule="evenodd" clip-rule="evenodd" d="M45.9878 129.084L44.6982 131.504L45.9554 132.229L46.45 131.374L52.7723 135.02C53.1271 135.224 53.581 135.103 53.786 134.748C53.991 134.393 53.8695 133.94 53.5147 133.735L47.1924 130.089L47.8115 129.018L45.9878 129.084Z" fill="#819DB2"/>
</g>
<g clip-path="url(#clip1_5265_239)">
<path fill-rule="evenodd" clip-rule="evenodd" d="M69.9124 57.7887C63.1459 57.7887 57.6617 63.2676 57.6617 70.0247C57.6617 76.7817 63.1459 82.2606 69.9124 82.2606C76.679 82.2606 82.1632 76.7817 82.1632 70.0247C82.1632 63.2676 76.679 57.7887 69.9124 57.7887ZM56.4258 70.0247C56.4258 62.5837 62.4646 56.5527 69.9124 56.5527C77.3603 56.5527 83.3991 62.5837 83.3991 70.0247C83.3991 77.4657 77.3603 83.4966 69.9124 83.4966C62.4646 83.4966 56.4258 77.4657 56.4258 70.0247Z" fill="#819DB2"/>
<path fill-rule="evenodd" clip-rule="evenodd" d="M69.9233 58.9637C63.8065 58.9637 58.8484 63.9166 58.8484 70.0255C58.8484 76.1344 63.8065 81.0873 69.9233 81.0873C76.0401 81.0873 80.9982 76.1344 80.9982 70.0255C80.9982 63.9166 76.0401 58.9637 69.9233 58.9637ZM58.2305 70.0255C58.2305 63.5746 63.4659 58.3457 69.9233 58.3457C76.3807 58.3457 81.6161 63.5746 81.6161 70.0255C81.6161 76.4764 76.3807 81.7053 69.9233 81.7053C63.4659 81.7053 58.2305 76.4764 58.2305 70.0255Z" fill="#819DB2"/>
<path fill-rule="evenodd" clip-rule="evenodd" d="M69.9106 61.1859C65.0241 61.1859 61.0633 65.1426 61.0633 70.0227C61.0633 74.9029 65.0241 78.8596 69.9106 78.8596C74.7972 78.8596 78.758 74.9029 78.758 70.0227C78.758 65.1426 74.7972 61.1859 69.9106 61.1859ZM60.4453 70.0227C60.4453 64.8006 64.6834 60.5679 69.9106 60.5679C75.1379 60.5679 79.376 64.8006 79.376 70.0227C79.376 75.2448 75.1379 79.4776 69.9106 79.4776C64.6834 79.4776 60.4453 75.2448 60.4453 70.0227Z" fill="#819DB2"/>
<path fill-rule="evenodd" clip-rule="evenodd" d="M69.9103 60.014C64.3745 60.014 59.8875 64.4964 59.8875 70.025C59.8875 75.5536 64.3745 80.036 69.9103 80.036C75.4461 80.036 79.9332 75.5536 79.9332 70.025C79.9332 64.4964 75.4461 60.014 69.9103 60.014ZM59.2695 70.025C59.2695 64.1544 64.0339 59.396 69.9103 59.396C75.7868 59.396 80.5511 64.1544 80.5511 70.025C80.5511 75.8955 75.7868 80.654 69.9103 80.654C64.0339 80.654 59.2695 75.8955 59.2695 70.025Z" fill="#819DB2"/>
<path fill-rule="evenodd" clip-rule="evenodd" d="M69.9183 61.5579C65.2368 61.5579 61.4422 65.3487 61.4422 70.024C61.4422 74.6994 65.2368 78.4901 69.9183 78.4901C74.5999 78.4901 78.3945 74.6994 78.3945 70.024C78.3945 65.3487 74.5999 61.5579 69.9183 61.5579ZM60.8242 70.024C60.8242 65.0067 64.8961 60.9399 69.9183 60.9399C74.9406 60.9399 79.0125 65.0067 79.0125 70.024C79.0125 75.0413 74.9406 79.1081 69.9183 79.1081C64.8961 79.1081 60.8242 75.0413 60.8242 70.024Z" fill="#819DB2"/>
<path fill-rule="evenodd" clip-rule="evenodd" d="M68.051 74.4344L71.5447 68.3901L72.6531 69.0293L73.1481 68.1731L72.0396 67.5338L72.285 67.1092L73.3918 67.7475L73.8868 66.8913L72.7951 66.2267L72.8125 66.1968L71.9552 65.7024L71.9496 65.7121L71.5563 65.4727L70.1951 65.904L71.4278 66.6149L71.1824 67.0395L69.9513 66.3295L69.4564 67.1858L70.6874 67.8958L67.1938 73.94L68.051 74.4344Z" fill="#819DB2"/>
<path fill-rule="evenodd" clip-rule="evenodd" d="M66.2105 66.8613L64.9208 69.2821L66.1781 70.0072L66.6726 69.1516L72.9949 72.7976C73.3498 73.0022 73.8037 72.8806 74.0087 72.5259C74.2137 72.1712 74.0922 71.7178 73.7373 71.5131L67.415 67.8672L68.0341 66.7961L66.2105 66.8613Z" fill="#819DB2"/>
</g>
<g clip-path="url(#clip2_5265_239)">
<path fill-rule="evenodd" clip-rule="evenodd" d="M161.69 56.233C154.923 56.233 149.439 61.7119 149.439 68.469C149.439 75.2261 154.923 80.705 161.69 80.705C168.456 80.705 173.941 75.2261 173.941 68.469C173.941 61.7119 168.456 56.233 161.69 56.233ZM148.203 68.469C148.203 61.028 154.242 54.9971 161.69 54.9971C169.138 54.9971 175.176 61.028 175.176 68.469C175.176 75.91 169.138 81.9409 161.69 81.9409C154.242 81.9409 148.203 75.91 148.203 68.469Z" fill="#819DB2"/>
<path fill-rule="evenodd" clip-rule="evenodd" d="M161.701 57.408C155.584 57.408 150.626 62.3609 150.626 68.4698C150.626 74.5788 155.584 79.5317 161.701 79.5317C167.817 79.5317 172.775 74.5788 172.775 68.4698C172.775 62.3609 167.817 57.408 161.701 57.408ZM150.008 68.4698C150.008 62.0189 155.243 56.79 161.701 56.79C168.158 56.79 173.393 62.0189 173.393 68.4698C173.393 74.9207 168.158 80.1496 161.701 80.1496C155.243 80.1496 150.008 74.9207 150.008 68.4698Z" fill="#819DB2"/>
<path fill-rule="evenodd" clip-rule="evenodd" d="M161.688 59.6302C156.801 59.6302 152.841 63.5869 152.841 68.4671C152.841 73.3472 156.801 77.3039 161.688 77.3039C166.575 77.3039 170.535 73.3472 170.535 68.4671C170.535 63.5869 166.575 59.6302 161.688 59.6302ZM152.223 68.4671C152.223 63.245 156.461 59.0122 161.688 59.0122C166.915 59.0122 171.153 63.245 171.153 68.4671C171.153 73.6892 166.915 77.9219 161.688 77.9219C156.461 77.9219 152.223 73.6892 152.223 68.4671Z" fill="#819DB2"/>
<path fill-rule="evenodd" clip-rule="evenodd" d="M161.688 58.4583C156.152 58.4583 151.665 62.9407 151.665 68.4693C151.665 73.9979 156.152 78.4803 161.688 78.4803C167.223 78.4803 171.711 73.9979 171.711 68.4693C171.711 62.9407 167.223 58.4583 161.688 58.4583ZM151.047 68.4693C151.047 62.5988 155.811 57.8403 161.688 57.8403C167.564 57.8403 172.328 62.5988 172.328 68.4693C172.328 74.3399 167.564 79.0983 161.688 79.0983C155.811 79.0983 151.047 74.3399 151.047 68.4693Z" fill="#819DB2"/>
<path fill-rule="evenodd" clip-rule="evenodd" d="M161.696 60.0023C157.014 60.0023 153.22 63.793 153.22 68.4683C153.22 73.1437 157.014 76.9344 161.696 76.9344C166.377 76.9344 170.172 73.1437 170.172 68.4683C170.172 63.793 166.377 60.0023 161.696 60.0023ZM152.602 68.4683C152.602 63.451 156.673 59.3843 161.696 59.3843C166.718 59.3843 170.79 63.451 170.79 68.4683C170.79 73.4857 166.718 77.5524 161.696 77.5524C156.673 77.5524 152.602 73.4857 152.602 68.4683Z" fill="#819DB2"/>
<path fill-rule="evenodd" clip-rule="evenodd" d="M159.828 72.8787L163.322 66.8344L164.43 67.4737L164.925 66.6174L163.817 65.9782L164.062 65.5536L165.169 66.1919L165.664 65.3356L164.572 64.6711L164.59 64.6411L163.733 64.1468L163.727 64.1564L163.334 63.917L161.972 64.3483L163.205 65.0592L162.96 65.4838L161.729 64.7739L161.234 65.6301L162.465 66.3401L158.971 72.3843L159.828 72.8787Z" fill="#819DB2"/>
<path fill-rule="evenodd" clip-rule="evenodd" d="M157.988 65.3057L156.698 67.7264L157.955 68.4515L158.45 67.5959L164.772 71.2419C165.127 71.4465 165.581 71.3249 165.786 70.9702C165.991 70.6156 165.87 70.1621 165.515 69.9575L159.192 66.3115L159.811 65.2405L157.988 65.3057Z" fill="#819DB2"/>
</g>
<defs>
<clipPath id="clip0_5265_239">
<rect width="28" height="28" fill="white" transform="translate(35.7773 118.222)"/>
</clipPath>
<clipPath id="clip1_5265_239">
<rect width="28" height="28" fill="white" transform="translate(56 56)"/>
</clipPath>
<clipPath id="clip2_5265_239">
<rect width="28" height="28" fill="white" transform="translate(147.777 54.4443)"/>
</clipPath>
</defs>
</svg>
