<svg width="215" height="156" viewBox="0 0 215 156" fill="none" xmlns="http://www.w3.org/2000/svg">
<path d="M105.777 1.55555C105.777 0.696445 106.474 0 107.333 0H213.235C214.095 0 214.791 0.696446 214.791 1.55556V154C214.791 154.859 214.095 155.556 213.235 155.556H107.333C106.474 155.556 105.777 154.859 105.777 154V1.55555Z" fill="white"/>
<path d="M0 1.55555C0 0.696445 0.696446 0 1.55556 0H107.458C108.317 0 109.014 0.696446 109.014 1.55556V154C109.014 154.859 108.317 155.556 107.458 155.556H1.55555C0.696445 155.556 0 154.859 0 154V1.55555Z" fill="white"/>
<path fill-rule="evenodd" clip-rule="evenodd" d="M108.888 3.11111V152.444H211.68V3.11111H108.888ZM107.333 0C106.474 0 105.777 0.696445 105.777 1.55555V154C105.777 154.859 106.474 155.556 107.333 155.556H213.235C214.095 155.556 214.791 154.859 214.791 154V1.55556C214.791 0.696446 214.095 0 213.235 0H107.333Z" fill="#819DB2"/>
<path fill-rule="evenodd" clip-rule="evenodd" d="M108.888 3.11111V152.444H211.68V3.11111H108.888ZM107.333 0C106.474 0 105.777 0.696445 105.777 1.55555V154C105.777 154.859 106.474 155.556 107.333 155.556H213.235C214.095 155.556 214.791 154.859 214.791 154V1.55556C214.791 0.696446 214.095 0 213.235 0H107.333Z" fill="#819DB2"/>
<path fill-rule="evenodd" clip-rule="evenodd" d="M3.11111 3.11111V152.444H105.903V3.11111H3.11111ZM1.55556 0C0.696446 0 0 0.696445 0 1.55555V154C0 154.859 0.696445 155.556 1.55555 155.556H107.458C108.317 155.556 109.014 154.859 109.014 154V1.55556C109.014 0.696446 108.317 0 107.458 0H1.55556Z" fill="#819DB2"/>
<path d="M209.59 4.97217H144.257V11.1944H209.59V4.97217Z" fill="#819DB2"/>
<path d="M138.188 11.5056H127.572L140.988 3.57227H109.799V7.15004H116.955L110.344 11.5056V17.5723H138.188V11.5056Z" fill="#CBD8E0"/>
<path d="M134.766 7.07227H116.488L110.343 11.5056L116.488 17.5723H133.755L125.899 12.3223L134.766 7.07227Z" fill="#819DB2"/>
<path d="M142.078 28.3052H202.278V34.3718H142.078V28.3052Z" fill="#819DB2"/>
<path d="M3.10938 77H105.776V79H3.10938V77Z" fill="#819DB2"/>
<path d="M142.078 50.4956H178.487V56.6134H142.078V50.4956Z" fill="#CBD8E0"/>
<path d="M142.078 60.9722H178.487V67.09H142.078V60.9722Z" fill="#CBD8E0"/>
<path d="M142.078 71.4551H178.487V77.5729H142.078V71.4551Z" fill="#CBD8E0"/>
<path d="M183.457 71.3945H207.413V77.6168H183.457V71.3945Z" fill="#819DB2"/>
<path d="M142.078 39.5059H162.721V45.6237H142.078V39.5059Z" fill="#CBD8E0"/>
<path d="M142.078 89.4385H171.011V95.5051H142.078V89.4385Z" fill="#CBD8E0"/>
<path d="M183.457 89.4385H207.413V95.5051H183.457V89.4385Z" fill="#819DB2"/>
<path d="M183.457 60.9722H202.279V67.0388H183.457V60.9722Z" fill="#819DB2"/>
<path d="M183.457 50.5493H202.279V56.616H183.457V50.5493Z" fill="#819DB2"/>
<path d="M183.457 39.5059H202.279V45.5725H183.457V39.5059Z" fill="#819DB2"/>
<path d="M142.078 80.5186H178.487V86.6364H142.078V80.5186Z" fill="#CBD8E0"/>
<path d="M191.543 80.5723H207.41V86.6389H191.543V80.5723Z" fill="#819DB2"/>
<path d="M142.078 98.5024H178.487V104.62H142.078V98.5024Z" fill="#CBD8E0"/>
<path d="M183.457 98.4609H207.413V104.683H183.457V98.4609Z" fill="#819DB2"/>
<path d="M175.367 138.127H204.145V144.194H175.367V138.127Z" fill="#CBD8E0"/>
<path d="M142.078 125.372H209.589V131.439H142.078V125.372Z" fill="#CBD8E0"/>
<path d="M142.078 113.861H209.589V119.928H142.078V113.861Z" fill="#CBD8E0"/>
<path d="M163.078 19.4385H194.967V25.5051H163.078V19.4385Z" fill="#819DB2"/>
<path d="M203.211 17.105H214.566V19.1272H203.211V17.105Z" fill="#819DB2"/>
<path d="M203.211 20.2163H214.566V22.2385H203.211V20.2163Z" fill="#819DB2"/>
<path d="M203.211 13.9941H214.566V16.0164H203.211V13.9941Z" fill="#819DB2"/>
<path d="M132.586 30.5466C132.586 36.6806 127.608 41.6532 121.467 41.6532C115.326 41.6532 110.348 36.6806 110.348 30.5466C110.348 24.4125 115.326 19.4399 121.467 19.4399C127.608 19.4399 132.586 24.4125 132.586 30.5466Z" fill="white"/>
<path fill-rule="evenodd" clip-rule="evenodd" d="M121.467 40.4891C126.966 40.4891 131.422 36.0364 131.422 30.5466C131.422 25.0567 126.966 20.604 121.467 20.604C115.968 20.604 111.512 25.0567 111.512 30.5466C111.512 36.0364 115.968 40.4891 121.467 40.4891ZM121.467 41.6532C127.608 41.6532 132.586 36.6806 132.586 30.5466C132.586 24.4125 127.608 19.4399 121.467 19.4399C115.326 19.4399 110.348 24.4125 110.348 30.5466C110.348 36.6806 115.326 41.6532 121.467 41.6532Z" fill="#819DB2"/>
<path d="M130.384 30.6313C130.384 35.5478 126.393 39.5335 121.471 39.5335C116.549 39.5335 112.559 35.5478 112.559 30.6313C112.559 25.7147 116.549 21.729 121.471 21.729C126.393 21.729 130.384 25.7147 130.384 30.6313Z" fill="#CBD8E0"/>
<path fill-rule="evenodd" clip-rule="evenodd" d="M146.199 145.883C155.792 145.883 163.565 138.116 163.565 128.539C163.565 118.962 155.792 111.195 146.199 111.195C136.606 111.195 128.833 118.962 128.833 128.539C128.833 138.116 136.606 145.883 146.199 145.883ZM146.199 147.728C156.809 147.728 165.411 139.137 165.411 128.539C165.411 117.941 156.809 109.35 146.199 109.35C135.589 109.35 126.988 117.941 126.988 128.539C126.988 139.137 135.589 147.728 146.199 147.728Z" fill="#819DB2"/>
<path fill-rule="evenodd" clip-rule="evenodd" d="M146.201 144.592C155.079 144.592 162.273 137.404 162.273 128.539C162.273 119.675 155.079 112.487 146.201 112.487C137.324 112.487 130.13 119.675 130.13 128.539C130.13 137.404 137.324 144.592 146.201 144.592ZM146.201 145.514C155.587 145.514 163.196 137.914 163.196 128.539C163.196 119.164 155.587 111.564 146.201 111.564C136.816 111.564 129.207 119.164 129.207 128.539C129.207 137.914 136.816 145.514 146.201 145.514Z" fill="#819DB2"/>
<path fill-rule="evenodd" clip-rule="evenodd" d="M146.2 141.27C153.241 141.27 158.947 135.569 158.947 128.539C158.947 121.509 153.241 115.808 146.2 115.808C139.16 115.808 133.454 121.509 133.454 128.539C133.454 135.569 139.16 141.27 146.2 141.27ZM146.2 142.193C153.75 142.193 159.869 136.08 159.869 128.539C159.869 120.999 153.75 114.886 146.2 114.886C138.651 114.886 132.531 120.999 132.531 128.539C132.531 136.08 138.651 142.193 146.2 142.193Z" fill="#819DB2"/>
<path fill-rule="evenodd" clip-rule="evenodd" d="M146.201 143.023C154.211 143.023 160.703 136.538 160.703 128.54C160.703 120.541 154.211 114.056 146.201 114.056C138.191 114.056 131.7 120.541 131.7 128.54C131.7 136.538 138.191 143.023 146.201 143.023ZM146.201 143.946C154.72 143.946 161.625 137.048 161.625 128.54C161.625 120.031 154.72 113.133 146.201 113.133C137.683 113.133 130.777 120.031 130.777 128.54C130.777 137.048 137.683 143.946 146.201 143.946Z" fill="#819DB2"/>
<path fill-rule="evenodd" clip-rule="evenodd" d="M146.201 140.717C152.936 140.717 158.393 135.264 158.393 128.539C158.393 121.815 152.936 116.362 146.201 116.362C139.466 116.362 134.008 121.815 134.008 128.539C134.008 135.264 139.466 140.717 146.201 140.717ZM146.201 141.639C153.444 141.639 159.316 135.774 159.316 128.539C159.316 121.304 153.444 115.439 146.201 115.439C138.958 115.439 133.086 121.304 133.086 128.539C133.086 135.774 138.958 141.639 146.201 141.639Z" fill="#819DB2"/>
<path fill-rule="evenodd" clip-rule="evenodd" d="M148.984 124.318C148.616 124.137 148.188 124.258 147.963 124.4C148.071 124.158 148.403 123.895 148.508 123.846C148.601 123.855 148.909 124.039 148.984 124.318ZM149.647 122.98C149.169 121.983 146.916 123.332 145.568 123.215C145.627 123.528 146.16 123.91 146.593 123.989C146.089 124.735 145.807 126.041 146.064 127.476C145.569 126.105 144.672 125.114 143.862 124.72C144.198 124.436 144.468 123.838 144.363 123.538C143.254 124.313 140.628 124.272 140.713 125.374C140.731 125.607 140.928 125.917 141.07 125.983C141.072 125.907 141.118 125.648 141.444 125.505C143.093 124.785 145.238 127.05 144.229 128.467C144.214 128.489 144.233 128.516 144.26 128.509L148.143 127.469C148.169 127.461 148.172 127.428 148.149 127.417C146.566 126.694 147.291 123.66 149.079 123.46C149.434 123.42 149.603 123.622 149.642 123.686C149.732 123.558 149.748 123.191 149.647 122.98ZM149.419 120.459C149.362 120.368 150.369 120.096 150.538 120.726C150.651 121.149 150.102 121.511 150.219 121.949C150.274 122.154 150.534 122.245 150.602 122.227C150.258 121.564 150.998 121.76 151.207 121.846C150.609 120.991 151.386 120.789 151.193 120.375C151.059 120.086 150.409 120.358 150.124 120.27C149.618 120.114 148.822 119.191 148.769 120.341C149.554 120.757 149.419 121.715 148.62 121.929C148.62 121.929 148.649 122.056 148.659 122.064C149.599 121.762 149.744 120.973 149.419 120.459ZM138.772 125.178C138.91 125 139.453 124.459 139.487 125.205C139.554 125.187 139.733 124.978 139.679 124.774C139.561 124.335 138.905 124.296 138.791 123.874C138.622 123.243 139.631 122.976 139.626 123.083C139.603 123.69 140.122 124.301 141.087 124.093C141.092 124.081 141.053 123.956 141.053 123.956C140.255 124.17 139.659 123.408 140.131 122.656C139.509 121.686 139.281 122.883 138.922 123.272C138.719 123.491 138.02 123.58 138.048 123.897C138.089 124.352 138.862 124.138 138.772 125.178ZM141.946 126.204C142.174 125.863 142.605 125.754 142.871 125.764C142.658 125.609 142.238 125.547 142.122 125.557C142.046 125.611 141.871 125.925 141.946 126.204ZM144.35 119.267L143.733 118.825L143.421 119.516L144.045 119.988L144.35 119.267ZM147.462 120.27L147.023 119.955L146.801 120.447L147.237 120.752L147.462 120.27ZM153.261 131.19L152.723 130.859L152.423 131.415L152.946 131.691L153.261 131.19ZM141.888 121.763L141.449 121.449L141.227 121.94L141.663 122.245L141.888 121.763ZM141.47 123.99L142.703 123.66C143.739 123.382 144.035 122.621 144.028 122.032L145.082 121.749C145.371 122.263 146.007 122.774 147.044 122.497L148.277 122.166C148.277 122.166 148.414 121.816 148.429 121.657C148.484 121.083 148.17 120.907 147.807 121.004L147.452 121.555L146.869 121.256C146.506 121.353 146.322 121.663 146.657 122.132C146.699 122.192 146.785 122.274 146.864 122.345C146.411 122.402 145.773 122.252 145.478 121.643C145.478 121.643 145.664 121.043 145.689 120.814C145.78 119.989 145.326 119.783 144.782 119.929L144.301 120.943L143.377 120.305C142.833 120.451 142.542 120.856 143.034 121.525C143.171 121.711 143.632 122.138 143.632 122.138C143.681 122.812 143.203 123.261 142.782 123.439C142.815 123.337 142.848 123.224 142.855 123.15C142.91 122.577 142.597 122.4 142.233 122.498L141.878 123.049L141.295 122.749C140.932 122.846 140.749 123.156 141.083 123.625C141.176 123.756 141.47 123.99 141.47 123.99ZM155.237 124.396C155.031 124.581 153.811 125.608 151.958 125.846C151.954 125.755 151.946 125.665 151.936 125.576C153.088 125.114 154.001 124.653 154.525 124.145C155.123 123.566 155.18 122.55 154.64 121.951C154.626 121.936 154.6 121.939 154.591 121.957C154.456 122.233 153.59 123.89 151.776 124.819C151.744 124.721 151.708 124.624 151.669 124.528C152.462 123.747 153.211 122.892 153.496 122.216C153.927 121.196 153.578 120.134 152.805 119.752C152.797 119.749 152.788 119.748 152.78 119.752C152.772 119.755 152.765 119.762 152.763 119.771C152.652 120.15 151.602 123.639 149.915 125.476C149.895 125.499 149.874 125.521 149.853 125.543C149.804 125.594 149.818 125.671 149.88 125.703C150.171 125.853 150.396 126.109 150.484 126.437C150.637 127.008 150.324 127.601 149.77 127.859C149.49 127.996 149.059 128.093 148.613 128.068C148.593 128.067 148.577 128.084 148.582 128.102L149.066 129.91C149.074 129.939 149.12 129.934 149.123 129.904C149.196 129.177 149.904 128.837 150.23 128.75C150.536 129.423 150.902 129.951 151.259 130.193C151.839 130.585 152.561 130.384 152.78 129.946C152.784 129.939 152.784 129.931 152.781 129.923C152.777 129.916 152.771 129.911 152.763 129.909C152.55 129.852 151.321 129.487 150.825 128.482C150.901 128.431 150.973 128.376 151.041 128.317C151.533 128.79 152.163 129.159 152.614 129.244C153.37 129.386 153.942 129.065 154.088 128.521C154.094 128.502 154.076 128.484 154.056 128.488C153.632 128.566 152.261 128.542 151.481 127.798C151.528 127.725 151.573 127.649 151.613 127.571C152.295 127.851 153.2 128.017 153.794 127.941C154.491 127.853 155.194 127.435 155.004 126.648C155 126.633 154.982 126.624 154.966 126.629C154.731 126.707 153.168 127.2 151.868 126.855C151.888 126.77 151.904 126.685 151.917 126.599C151.917 126.599 153.727 126.545 154.498 126.195C155.264 125.848 155.573 125.125 155.284 124.406C155.276 124.388 155.252 124.383 155.237 124.396ZM140.533 129.649C140.588 129.717 140.644 129.783 140.704 129.847C139.751 130.795 138.152 131.15 137.908 131.2C137.891 131.203 137.881 131.22 137.885 131.236C138.113 132.012 138.931 132.022 139.579 131.751C140.131 131.519 140.831 130.922 141.283 130.339C141.357 130.387 141.433 130.43 141.51 130.47C141.206 131.504 140.031 132.21 139.625 132.354C139.606 132.362 139.6 132.385 139.614 132.399C140.012 132.797 140.668 132.789 141.253 132.288C141.6 131.989 141.961 131.354 142.151 130.699C142.239 130.717 142.33 130.727 142.42 130.734C142.494 131.852 141.612 132.783 141.456 132.939C141.45 132.944 141.447 132.952 141.448 132.96C141.448 132.968 141.453 132.975 141.459 132.98C141.868 133.249 142.594 133.062 142.901 132.432C143.089 132.045 143.141 131.405 143.07 130.668C143.396 130.581 144.179 130.521 144.605 131.114C144.623 131.139 144.665 131.12 144.658 131.091L144.173 129.284C144.168 129.265 144.146 129.258 144.129 129.269C143.755 129.514 143.333 129.645 143.023 129.667C142.414 129.72 141.847 129.363 141.694 128.793C141.606 128.465 141.672 128.129 141.85 127.854C141.887 127.796 141.86 127.722 141.793 127.702C141.764 127.694 141.734 127.685 141.705 127.676C139.327 126.929 136.675 124.434 136.387 124.159C136.374 124.146 136.351 124.149 136.34 124.165C135.863 124.882 136.091 125.975 136.975 126.643C137.559 127.085 138.636 127.452 139.713 127.732C139.726 127.834 139.743 127.936 139.765 128.037C137.731 128.14 136.154 127.14 135.898 126.967C135.881 126.955 135.855 126.965 135.851 126.985C135.683 127.775 136.241 128.626 137.047 128.828C137.756 129.006 138.777 128.949 140.005 128.772C140.041 128.855 140.08 128.937 140.121 129.017C138.4 129.737 136.83 129.459 136.558 129.402C136.537 129.397 136.519 129.414 136.522 129.434C136.63 130.201 137.26 130.673 138.097 130.59C138.939 130.507 140.533 129.649 140.533 129.649ZM153.099 132.262L152.348 131.941C152.14 132.154 152.021 132.437 152.024 132.73C151.665 132.882 150.587 132.929 150.646 132.753C151.34 130.886 150.237 130.181 149.227 130.507L149.509 131.561C149.599 131.899 149.378 132.252 149.014 132.349L148.306 132.539C147.799 132.675 147.605 133.274 147.605 133.274C147.605 133.274 147.138 132.852 146.63 132.988L145.922 133.178C145.559 133.275 145.191 133.08 145.1 132.742L144.818 131.689C143.779 131.912 143.176 133.074 144.711 134.343C144.849 134.465 143.867 134.983 143.36 135.054C143.195 134.955 142.986 134.92 142.778 134.976C142.689 135 142.605 135.039 142.53 135.092C142.53 135.092 140.114 133.784 140.074 133.776L140.08 133.735C140.135 133.5 139.907 133.321 139.805 133.365C139.889 133.184 139.721 132.535 138.996 132.568C139.051 132.693 139.132 132.956 139.132 132.956C139.132 132.956 138.528 132.812 138.328 133.13C138.169 133.468 138.627 133.882 138.627 133.882C138.627 133.882 138.358 133.961 138.222 133.985C138.595 134.595 139.24 134.372 139.347 134.204C139.366 134.312 139.644 134.398 139.813 134.224L139.89 134.157C139.911 134.174 142.263 135.444 142.263 135.444C142.211 135.595 142.212 135.763 142.286 135.923C142.4 136.173 142.676 136.331 142.97 136.313C143.177 136.3 143.351 136.212 143.476 136.086L144.097 136.414C144.152 136.442 144.218 136.451 144.284 136.428C144.403 136.388 144.468 136.265 144.428 136.154C144.411 136.104 144.373 136.067 144.328 136.044C144.318 136.037 143.696 135.708 143.696 135.708C144.029 135.31 144.741 134.902 145.376 134.732C145.488 134.702 145.515 134.593 145.452 134.511C144.978 133.896 145.463 133.228 146.212 133.465C146.539 133.568 146.917 133.843 147.288 134.371C146.305 134.906 145.174 135.961 145.112 136.797C145.088 137.12 145.536 137.432 145.97 137.402C145.977 137.402 145.985 137.399 145.99 137.393C145.995 137.387 145.998 137.379 145.997 137.372C145.907 136.172 146.907 134.992 147.507 134.676C147.562 134.754 147.544 134.729 147.599 134.806C146.992 135.321 146.503 136.196 146.531 137.073C146.544 137.475 147.057 137.703 147.43 137.703C147.448 137.703 147.462 137.686 147.459 137.669C147.245 136.607 147.469 135.598 147.773 135.084C147.806 135.16 147.835 135.236 147.862 135.314C147.862 135.314 147.755 136.606 147.986 137.465C148.093 137.865 148.762 137.985 148.86 138C148.959 137.932 149.478 137.494 149.371 137.094C149.141 136.234 148.403 135.17 148.403 135.17C148.387 135.089 148.374 135.007 148.365 134.925C148.885 135.218 149.584 135.98 149.929 137.006C149.935 137.023 149.956 137.031 149.972 137.022C150.295 136.835 150.625 136.382 150.435 136.027C150.021 135.254 149.161 134.74 148.376 134.598C148.385 134.503 148.382 134.534 148.391 134.439C149.069 134.413 150.525 134.935 151.046 136.019C151.05 136.026 151.056 136.031 151.063 136.033C151.071 136.036 151.079 136.035 151.086 136.031C151.476 135.84 151.708 135.346 151.525 135.079C151.054 134.385 149.547 134.038 148.428 134.065C148.486 133.423 148.675 132.996 148.907 132.743C149.437 132.163 150.191 132.499 150.088 133.268C150.075 133.371 150.152 133.452 150.264 133.422C150.983 133.229 151.938 133.252 152.382 133.506C152.696 133.782 153.167 133.886 153.622 133.715C154.139 133.521 154.464 133.006 154.392 132.497C154.329 132.052 154.001 131.724 153.589 131.608L153.099 132.262ZM147.685 130.342C147.884 130.201 148.248 130.175 148.322 130.497C148.338 130.57 148.44 130.543 148.427 130.467C148.365 129.971 148.006 129.92 147.683 130.067C147.597 129.914 147.524 129.779 147.447 129.647C147.385 129.541 147.315 129.328 147.449 129.292C147.52 129.273 147.545 129.481 147.562 129.57C147.576 129.648 147.616 129.686 147.678 129.672C147.717 129.663 147.752 129.601 147.772 129.561C147.907 129.29 147.861 128.94 147.591 128.837C147.364 128.751 146.917 128.98 146.839 129.21C146.8 129.142 146.673 129.046 146.614 129.005C146.556 128.965 146.535 128.933 146.584 128.871C146.606 128.842 146.67 128.733 146.646 128.644C146.632 128.591 146.565 128.505 146.436 128.54C146.334 128.567 146.239 128.668 146.281 128.826C146.291 128.861 146.309 128.896 146.343 128.931C146.275 128.937 146.101 128.989 146.017 129.035L148.177 132.117C148.486 131.846 148.673 131.497 148.593 131.198C148.524 130.944 148.172 131.129 148.043 131.376C147.898 131.069 147.766 130.785 147.629 130.503C147.592 130.425 147.625 130.385 147.685 130.342ZM145.303 128.494L145.759 129.15C145.55 129.263 145.233 129.523 145.291 129.739C145.368 130.027 145.928 130.078 146.216 129.976C146.219 130.046 146.252 130.1 146.312 130.141C146.205 130.17 146.017 130.274 145.97 130.363C145.774 130.259 145.516 130.272 145.424 130.391C145.331 130.512 145.368 130.664 145.535 130.802C145.652 130.898 145.715 131.006 145.656 131.168C146.011 131.073 145.757 130.647 145.896 130.61C145.902 130.704 145.941 130.804 146.012 130.908C146.059 130.978 146.074 131.032 146.047 131.118C145.982 131.331 145.917 131.799 146.043 132.173C145.926 132.204 145.859 132.191 145.858 132.021C145.857 131.958 145.809 131.925 145.78 132.011C145.748 132.106 145.76 132.25 145.775 132.309C145.866 132.648 146.288 132.608 146.422 132.495C146.983 132.806 147.827 132.457 148.081 132.234L145.409 128.421C145.356 128.35 145.253 128.418 145.303 128.494ZM146.182 131.989C146.104 131.823 146.263 131.447 146.49 131.065C146.477 131.278 146.608 131.604 146.768 131.686C146.544 131.746 146.29 131.859 146.182 131.989Z" fill="#819DB2"/>
<path d="M31.1094 107.435H67.5182V113.552H31.1094V107.435Z" fill="#CBD8E0"/>
<path d="M31.1094 117.911H67.5182V124.028H31.1094V117.911Z" fill="#CBD8E0"/>
<path d="M31.1094 128.394H67.5182V134.512H31.1094V128.394Z" fill="#CBD8E0"/>
<path d="M31.1094 96.4443H51.7524V102.562H31.1094V96.4443Z" fill="#CBD8E0"/>
<path d="M6.22266 96.4443H25.0449V102.511H6.22266V96.4443Z" fill="#819DB2"/>
<path d="M31.1094 31.2119H67.5182V37.3298H31.1094V31.2119Z" fill="#CBD8E0"/>
<path d="M31.1094 41.6885H67.5182V47.8063H31.1094V41.6885Z" fill="#CBD8E0"/>
<path d="M31.1094 52.1719H67.5182V58.2897H31.1094V52.1719Z" fill="#CBD8E0"/>
<path d="M31.1094 20.2222H51.7524V26.34H31.1094V20.2222Z" fill="#CBD8E0"/>
<path d="M6.22266 20.2222H25.0449V26.2888H6.22266V20.2222Z" fill="#819DB2"/>
</svg>
