<svg width="110" height="156" viewBox="0 0 110 156" fill="none" xmlns="http://www.w3.org/2000/svg">
<path d="M0 1.55555C0 0.696445 0.696446 0 1.55556 0H107.458C108.317 0 109.014 0.696446 109.014 1.55556V154C109.014 154.859 108.317 155.556 107.458 155.556H1.55555C0.696445 155.556 0 154.859 0 154V1.55555Z" fill="white"/>
<path d="M12.4414 60.6089H102.664V66.8312H12.4414V60.6089Z" fill="#CBD8E0"/>
<path d="M12.4414 69.9423H102.664V76.1645H12.4414V69.9423Z" fill="#CBD8E0"/>
<path d="M12.4414 51.2756H102.664V57.4978H12.4414V51.2756Z" fill="#CBD8E0"/>
<path fill-rule="evenodd" clip-rule="evenodd" d="M3.11111 3.11111V152.444H105.903V3.11111H3.11111ZM1.55556 0C0.696446 0 0 0.696445 0 1.55555V154C0 154.859 0.696445 155.556 1.55555 155.556H107.458C108.317 155.556 109.014 154.859 109.014 154V1.55556C109.014 0.696446 108.317 0 107.458 0H1.55556Z" fill="#819DB2"/>
<path d="M12.4414 32.6089H102.664V38.8312H12.4414V32.6089Z" fill="#CBD8E0"/>
<path d="M54.4414 9.27557H12.4414V15.4978H54.4414V9.27557Z" fill="#819DB2"/>
<path d="M31.1094 31.8357H84.6464V37.9537H31.1094V31.8357Z" fill="#819DB2"/>
<path d="M12.4414 41.9423H102.664V48.1645H12.4414V41.9423Z" fill="#CBD8E0"/>
<path d="M12.4414 23.2756H102.664V29.4978H12.4414V23.2756Z" fill="#CBD8E0"/>
<path d="M45.1094 139.942H98.6464V146.06H45.1094V139.942Z" fill="#819DB2"/>
<path d="M31.1094 22.9991H84.6464V29.1171H31.1094V22.9991Z" fill="#819DB2"/>
<path fill-rule="evenodd" clip-rule="evenodd" d="M65.6139 76.7566C81.291 76.7566 93.9938 64.0633 93.9938 48.4127C93.9938 32.762 81.291 20.0687 65.6139 20.0687C49.9369 20.0687 37.2341 32.762 37.2341 48.4127C37.2341 64.0633 49.9369 76.7566 65.6139 76.7566ZM65.6139 79.7719C82.953 79.7719 97.0091 65.7319 97.0091 48.4127C97.0091 31.0934 82.953 17.0534 65.6139 17.0534C48.2749 17.0534 34.2188 31.0934 34.2188 48.4127C34.2188 65.7319 48.2749 79.7719 65.6139 79.7719Z" fill="#819DB2"/>
<path fill-rule="evenodd" clip-rule="evenodd" d="M65.6164 74.646C80.1238 74.646 91.8814 62.8994 91.8814 48.4128C91.8814 33.9262 80.1238 22.1796 65.6164 22.1796C51.109 22.1796 39.3514 33.9262 39.3514 48.4128C39.3514 62.8994 51.109 74.646 65.6164 74.646ZM65.6164 76.1537C80.9548 76.1537 93.3891 63.7337 93.3891 48.4128C93.3891 33.0919 80.9548 20.6719 65.6164 20.6719C50.278 20.6719 37.8438 33.0919 37.8438 48.4128C37.8438 63.7337 50.278 76.1537 65.6164 76.1537Z" fill="#819DB2"/>
<path fill-rule="evenodd" clip-rule="evenodd" d="M65.6157 69.2178C77.1218 69.2178 86.4463 59.9015 86.4463 48.4127C86.4463 36.924 77.1218 27.6076 65.6157 27.6076C54.1096 27.6076 44.785 36.924 44.785 48.4127C44.785 59.9015 54.1096 69.2178 65.6157 69.2178ZM65.6157 70.7255C77.9528 70.7255 87.954 60.7357 87.954 48.4127C87.954 36.0897 77.9528 26.1 65.6157 26.1C53.2786 26.1 43.2773 36.0897 43.2773 48.4127C43.2773 60.7357 53.2786 70.7255 65.6157 70.7255Z" fill="#819DB2"/>
<path fill-rule="evenodd" clip-rule="evenodd" d="M65.6123 72.0832C78.7022 72.0832 89.3108 61.4843 89.3108 48.4136C89.3108 35.3429 78.7022 24.744 65.6123 24.744C52.5224 24.744 41.9139 35.3429 41.9139 48.4136C41.9139 61.4843 52.5224 72.0832 65.6123 72.0832ZM65.6123 73.5909C79.5333 73.5909 90.8184 62.3186 90.8184 48.4136C90.8184 34.5086 79.5333 23.2364 65.6123 23.2364C51.6914 23.2364 40.4062 34.5086 40.4062 48.4136C40.4062 62.3186 51.6914 73.5909 65.6123 73.5909Z" fill="#819DB2"/>
<path fill-rule="evenodd" clip-rule="evenodd" d="M65.6124 68.3136C76.6183 68.3136 85.5375 59.4022 85.5375 48.4131C85.5375 37.4239 76.6183 28.5125 65.6124 28.5125C54.6065 28.5125 45.6873 37.4239 45.6873 48.4131C45.6873 59.4022 54.6065 68.3136 65.6124 68.3136ZM65.6124 69.8213C77.4494 69.8213 87.0451 60.2365 87.0451 48.4131C87.0451 36.5897 77.4494 27.0049 65.6124 27.0049C53.7754 27.0049 44.1797 36.5897 44.1797 48.4131C44.1797 60.2365 53.7754 69.8213 65.6124 69.8213Z" fill="#819DB2"/>
<path fill-rule="evenodd" clip-rule="evenodd" d="M70.1671 41.5138C69.565 41.217 68.8664 41.4146 68.4973 41.6466C68.6742 41.2524 69.2169 40.8225 69.3892 40.7418C69.5408 40.7566 70.0446 41.0567 70.1671 41.5138ZM71.2496 39.3265C70.4693 37.6972 66.7875 39.9018 64.5848 39.7112C64.6803 40.2215 65.5515 40.8468 66.2589 40.9751C65.4351 42.1943 64.9743 44.3294 65.3943 46.6745C64.586 44.4334 63.1194 42.8147 61.7964 42.1708C62.3449 41.706 62.7872 40.7288 62.6142 40.2392C60.802 41.5057 56.5111 41.4373 56.6494 43.2386C56.6791 43.6197 57.002 44.1262 57.2334 44.2347C57.2363 44.1106 57.3117 43.687 57.8447 43.4538C60.5395 42.2769 64.0442 45.9771 62.3965 48.2943C62.3714 48.3295 62.4027 48.3738 62.4464 48.3621L68.792 46.6618C68.8352 46.6502 68.8403 46.5962 68.8014 46.5781C66.2153 45.3953 67.4003 40.4385 70.3225 40.1103C70.9013 40.0457 71.1778 40.3749 71.2425 40.4809C71.3885 40.2714 71.415 39.6714 71.2496 39.3265ZM70.8778 35.2067C70.7839 35.0581 72.4296 34.6128 72.7057 35.6435C72.8908 36.3343 71.9935 36.9254 72.1856 37.6422C72.275 37.9761 72.6998 38.1248 72.8101 38.0952C72.248 37.0123 73.4584 37.3335 73.7993 37.4729C72.8217 36.076 74.0916 35.7462 73.7767 35.07C73.557 34.5973 72.4957 35.0422 72.0297 34.898C71.203 34.6423 69.9018 33.1338 69.8146 35.0143C71.0985 35.6934 70.8767 37.2586 69.5715 37.6084C69.5715 37.6084 69.6193 37.8164 69.6357 37.8295C71.1721 37.3362 71.4082 36.0466 70.8778 35.2067ZM53.4771 42.9182C53.7028 42.627 54.5903 41.7437 54.6456 42.9624C54.7553 42.933 55.0488 42.5919 54.9594 42.258C54.7673 41.5412 53.6946 41.4779 53.5095 40.7871C53.2333 39.7564 54.8812 39.3193 54.8741 39.4948C54.8353 40.4872 55.6847 41.4861 57.2618 41.1451C57.2688 41.1257 57.2064 40.9216 57.2064 40.9216C55.9017 41.2712 54.9269 40.0265 55.6988 38.7966C54.683 37.2116 54.3104 39.1686 53.7223 39.8035C53.3909 40.1614 52.2493 40.3067 52.2953 40.8259C52.3612 41.5688 53.6254 41.2197 53.4771 42.9182ZM58.6644 44.5959C59.0379 44.0376 59.7418 43.8595 60.177 43.876C59.8277 43.6227 59.1417 43.5221 58.9527 43.5382C58.8287 43.6268 58.542 44.1388 58.6644 44.5959ZM62.5935 33.2589L61.586 32.5365L61.0747 33.6659L62.0952 34.4369L62.5935 33.2589ZM67.6789 34.8972L66.9625 34.3838L66.5992 35.1864L67.3111 35.685L67.6789 34.8972ZM77.1558 52.744L76.2771 52.2029L75.7866 53.1109L76.6415 53.5629L77.1558 52.744ZM58.5698 37.3378L57.8534 36.8245L57.4902 37.6271L58.2021 38.1257L58.5698 37.3378ZM57.887 40.9775L59.9013 40.4377C61.5948 39.984 62.0783 38.7404 62.067 37.7773L63.7902 37.3155C64.2621 38.1553 65.302 38.9907 66.9961 38.5367L69.0104 37.997C69.0104 37.997 69.2346 37.4246 69.2595 37.1642C69.3495 36.2271 68.8365 35.9388 68.2434 36.0977L67.6629 36.998L66.71 36.5086C66.1169 36.6675 65.8169 37.1737 66.3633 37.9403C66.433 38.0383 66.5731 38.1722 66.7027 38.2882C65.9616 38.3815 64.9183 38.1367 64.4373 37.1422C64.4373 37.1422 64.7406 36.1617 64.7822 35.7867C64.9313 34.4382 64.1894 34.1021 63.3 34.3404L62.5134 35.9979L61.0035 34.9557C60.1142 35.194 59.6397 35.856 60.4435 36.9492C60.6666 37.2534 61.42 37.9507 61.42 37.9507C61.5002 39.0527 60.719 39.7863 60.0306 40.076C60.0855 39.9106 60.1393 39.7247 60.1507 39.605C60.24 38.6681 59.7281 38.3794 59.1345 38.5385L58.554 39.4388L57.6011 38.9493C57.0076 39.1084 56.7085 39.6143 57.2544 40.381C57.4062 40.5941 57.887 40.9775 57.887 40.9775ZM80.3849 41.6412C80.0487 41.9423 78.0542 43.622 75.0265 44.0097C75.0194 43.8622 75.0075 43.715 74.9907 43.5683C76.8729 42.8146 78.3653 42.0613 79.2225 41.231C80.1995 40.2842 80.2929 38.6241 79.4091 37.6443C79.3865 37.6197 79.3435 37.6257 79.3291 37.6552C79.1095 38.106 77.6945 40.8135 74.7291 42.3319C74.6774 42.1711 74.6189 42.0126 74.5539 41.8567C75.8498 40.5806 77.0741 39.1822 77.5401 38.0788C78.2441 36.4105 77.6735 34.6762 76.411 34.0521C76.398 34.0459 76.3828 34.0456 76.3695 34.0512C76.3562 34.0569 76.346 34.068 76.3415 34.0818C76.1611 34.7016 74.4455 40.4039 71.6887 43.4058C71.6551 43.4426 71.621 43.4789 71.5865 43.5148C71.5068 43.5981 71.5296 43.7246 71.6304 43.7765C72.1064 44.021 72.474 44.4404 72.6177 44.9768C72.8676 45.9093 72.3565 46.8775 71.4514 47.3003C70.9935 47.5233 70.2892 47.6829 69.5604 47.641C69.5276 47.6393 69.5018 47.6676 69.5099 47.6978L70.3013 50.6515C70.314 50.699 70.3895 50.6914 70.3944 50.6412C70.5124 49.454 71.6695 48.8984 72.2023 48.7556C72.7029 49.8567 73.3012 50.7195 73.8838 51.1141C74.8321 51.7549 76.0121 51.4261 76.3705 50.7114C76.3764 50.6996 76.3765 50.6857 76.3709 50.6737C76.3653 50.6618 76.3546 50.653 76.3417 50.65C75.9938 50.5575 73.9854 49.9608 73.1752 48.318C73.2989 48.2344 73.4176 48.1456 73.5282 48.0485C74.3318 48.8208 75.362 49.4242 76.0983 49.5628C77.3349 49.7949 78.2696 49.2704 78.5084 48.3817C78.5172 48.3503 78.4885 48.3218 78.4549 48.3276C77.7625 48.4549 75.5225 48.4162 74.2476 47.201C74.324 47.0807 74.3973 46.957 74.4621 46.8289C75.578 47.2861 77.0556 47.5588 78.028 47.4347C79.1657 47.2898 80.3158 46.6063 80.0039 45.3215C79.9975 45.2958 79.969 45.281 79.9425 45.2898C79.5584 45.4179 77.0046 46.2228 74.8802 45.6592C74.9116 45.5205 74.9381 45.3807 74.9596 45.2401C74.9596 45.2401 77.9178 45.1523 79.1776 44.5812C80.4296 44.014 80.9352 42.8318 80.4615 41.6568C80.4492 41.6276 80.4091 41.6194 80.3849 41.6412ZM56.3559 50.2251C56.445 50.3361 56.538 50.4439 56.6347 50.5483C55.0771 52.0978 52.4643 52.6784 52.066 52.7595C52.038 52.7652 52.0211 52.7933 52.0283 52.8183C52.401 54.0862 53.7382 54.1032 54.7959 53.6598C55.6996 53.2812 56.8434 52.3062 57.5811 51.3523C57.7019 51.4307 57.8267 51.5013 57.9529 51.5672C57.4558 53.2571 55.5359 54.4106 54.8726 54.6465C54.8406 54.6583 54.8304 54.6972 54.8533 54.7201C55.5045 55.3703 56.5762 55.3572 57.5316 54.5378C58.0995 54.0497 58.69 53.012 58.9999 51.9415C59.1445 51.9701 59.2918 51.9877 59.4401 51.9984C59.5599 53.8261 58.1189 55.3471 57.8638 55.6012C57.8544 55.6103 57.8495 55.6232 57.8506 55.6363C57.8518 55.6494 57.8588 55.6613 57.8697 55.6687C58.5374 56.1085 59.7242 55.8031 60.225 54.774C60.5324 54.1409 60.6186 53.0947 60.5016 51.8909C61.0349 51.748 62.3141 51.6508 63.01 52.62C63.0399 52.6608 63.109 52.6296 63.0962 52.5821L62.3048 49.6284C62.2967 49.5983 62.2597 49.5868 62.2322 49.6046C61.622 50.0053 60.9322 50.2192 60.4248 50.2549C59.429 50.3415 58.5023 49.7585 58.2524 48.8259C58.1087 48.2895 58.2176 47.7419 58.5072 47.2923C58.5692 47.1973 58.5251 47.0764 58.415 47.0441C58.3668 47.0303 58.3188 47.0159 58.2709 47.001C54.3849 45.7802 50.0505 41.7029 49.5807 41.2533C49.5589 41.2323 49.5211 41.2369 49.504 41.2623C48.7243 42.4341 49.0967 44.221 50.5404 45.3132C51.4956 46.0359 53.2549 46.6347 55.0149 47.092C55.0367 47.2595 55.0655 47.426 55.1013 47.591C51.7767 47.7585 49.2 46.1243 48.7807 45.8422C48.7527 45.8228 48.7113 45.8394 48.7045 45.8719C48.4303 47.1625 49.3409 48.5526 50.6594 48.8843C51.8169 49.1747 53.486 49.0809 55.4929 48.7925C55.5517 48.928 55.615 49.0614 55.6826 49.1927C52.8697 50.3695 50.3042 49.9144 49.8591 49.821C49.826 49.814 49.7956 49.8419 49.8002 49.8735C49.9781 51.1278 51.0061 51.8979 52.374 51.7632C53.7501 51.628 56.3559 50.2251 56.3559 50.2251ZM76.8915 54.496L75.6641 53.97C75.3242 54.3192 75.1294 54.7814 75.1342 55.2607C74.5473 55.5094 72.786 55.5857 72.882 55.2976C74.0173 52.2468 72.2149 51.0946 70.5629 51.6282L71.0241 53.3492C71.1722 53.9019 70.8098 54.479 70.2156 54.6382L69.0591 54.9481C68.2295 55.1704 67.9129 56.149 67.9129 56.149C67.9129 56.149 67.1494 55.4598 66.3198 55.6821L65.1632 55.992C64.5687 56.1513 63.9673 55.8324 63.8192 55.2797L63.3581 53.5588C61.6606 53.9227 60.6747 55.8221 63.1838 57.8963C63.4088 58.0957 61.8042 58.9416 60.9764 59.0582C60.7067 58.8959 60.3651 58.8395 60.0241 58.9308C59.8791 58.9697 59.7422 59.0341 59.6198 59.1208C59.6198 59.1208 55.6714 56.9829 55.6059 56.9692L55.6157 56.9019C55.7052 56.5185 55.3328 56.2265 55.1661 56.2986C55.3029 56.0027 55.0286 54.9413 53.8443 54.9961C53.934 55.2001 54.067 55.6297 54.067 55.6297C54.067 55.6297 53.0785 55.3942 52.7529 55.9132C52.4928 56.4663 53.2407 57.1427 53.2407 57.1427C53.2407 57.1427 52.8017 57.2718 52.579 57.3118C53.1894 58.3088 54.2427 57.9444 54.4178 57.6685C54.4489 57.8448 54.903 57.9861 55.1792 57.7011L55.305 57.5924C55.3396 57.6197 59.1835 59.6959 59.1835 59.6959C59.0986 59.9427 59.1004 60.2174 59.2199 60.4785C59.4072 60.8865 59.8583 61.1453 60.3378 61.1154C60.6762 61.0939 60.9615 60.9505 61.1658 60.744L62.1797 61.2801C62.2695 61.3262 62.3782 61.3408 62.4852 61.304C62.6802 61.2374 62.7857 61.0365 62.7213 60.8561C62.6927 60.7744 62.6309 60.7143 62.5576 60.6758C62.5408 60.6649 61.5243 60.1274 61.5243 60.1274C62.0696 59.4765 63.2319 58.8095 64.2704 58.5312C64.4529 58.4823 64.4973 58.305 64.3938 58.1704C63.6202 57.165 64.4122 56.0744 65.6373 56.4612C66.1717 56.6299 66.7889 57.0788 67.3944 57.9413C65.7889 58.817 63.9401 60.5398 63.839 61.9068C63.8004 62.4345 64.5314 62.9438 65.2405 62.8958C65.2531 62.8952 65.265 62.8896 65.2735 62.8803C65.282 62.8709 65.2863 62.8585 65.2856 62.8459C65.1375 60.8853 66.7718 58.9569 67.7528 58.4408C67.843 58.5674 67.8136 58.5265 67.9037 58.6525C66.9105 59.4951 66.1114 60.9252 66.1578 62.3583C66.1788 63.0147 67.0167 63.3869 67.6262 63.387C67.6569 63.3869 67.6796 63.3595 67.6738 63.3315C67.3249 61.5969 67.6899 59.9466 68.188 59.1068C68.241 59.2306 68.2896 59.3563 68.3336 59.4837C68.3336 59.4837 68.1586 61.5937 68.535 62.9982C68.71 63.6516 69.8032 63.8475 69.9638 63.873C70.126 63.7611 70.9743 63.0449 70.7992 62.3915C70.4228 60.987 69.2163 59.2471 69.2163 59.2471C69.1909 59.1148 69.1703 58.9816 69.1544 58.8478C70.0052 59.3262 71.1468 60.5722 71.7114 62.2489C71.7204 62.2762 71.7545 62.289 71.7804 62.2738C72.3088 61.969 72.8479 61.2278 72.5384 60.6487C71.8614 59.3845 70.455 58.5455 69.1735 58.3123C69.1879 58.1583 69.183 58.2084 69.1978 58.0537C70.3059 58.0099 72.685 58.8629 73.5369 60.6349C73.5427 60.6461 73.5527 60.6546 73.5647 60.6585C73.5767 60.6624 73.5898 60.6613 73.601 60.6556C74.2387 60.3428 74.618 59.5359 74.3197 59.0985C73.5497 57.9649 71.0867 57.3975 69.2584 57.4418C69.3521 56.392 69.6621 55.6947 70.0405 55.2814C70.9076 54.334 72.1388 54.8826 71.9715 56.1401C71.9491 56.3083 72.0758 56.4398 72.2588 56.3908C73.4335 56.076 74.9943 56.1126 75.7195 56.5282C76.2327 56.9793 77.003 57.1493 77.746 56.8696C78.5902 56.5525 79.1227 55.7116 79.0046 54.8803C78.9008 54.1518 78.3662 53.6161 77.692 53.4269L76.8915 54.496ZM68.0431 51.358C68.3685 51.1273 68.9636 51.084 69.0841 51.6106C69.1111 51.7299 69.2769 51.6855 69.2565 51.5616C69.1555 50.752 68.5675 50.6683 68.0401 50.9078C67.8995 50.6577 67.7805 50.4381 67.6542 50.2226C67.5529 50.0482 67.4395 49.6998 67.6573 49.6415C67.7748 49.61 67.8156 49.9514 67.8427 50.0959C67.8661 50.2228 67.9309 50.286 68.0327 50.2626C68.0963 50.2483 68.1534 50.147 68.1858 50.0812C68.4062 49.6392 68.3312 49.0664 67.8896 48.8987C67.5199 48.7577 66.7889 49.1322 66.6612 49.5083C66.5969 49.3968 66.3898 49.2397 66.2928 49.173C66.1985 49.1079 66.1643 49.0551 66.2438 48.9544C66.281 48.9061 66.3847 48.7276 66.3458 48.5824C66.3227 48.4965 66.2137 48.3558 66.0022 48.4125C65.8353 48.4572 65.6807 48.6225 65.7498 48.8802C65.7651 48.9375 65.7956 48.9951 65.8502 49.0512C65.74 49.062 65.4555 49.1459 65.3181 49.2217L68.8477 54.2583C69.3529 53.8149 69.6577 53.2456 69.5269 52.7573C69.4154 52.3411 68.8394 52.6434 68.6286 53.0479C68.3916 52.5459 68.1758 52.0815 67.9526 51.6206C67.8913 51.4935 67.9463 51.4272 68.0431 51.358ZM64.1511 48.3371L64.8965 49.4097C64.5539 49.5947 64.037 50.0192 64.1316 50.3725C64.2577 50.843 65.1719 50.9262 65.6434 50.7604C65.6482 50.8742 65.7015 50.9624 65.7997 51.0297C65.6251 51.0765 65.3173 51.2461 65.2404 51.3917C64.9215 51.2223 64.4991 51.2429 64.3481 51.4384C64.1965 51.6353 64.257 51.8837 64.5308 52.1095C64.7213 52.2656 64.8244 52.4424 64.7285 52.7081C65.3086 52.5527 64.8928 51.8558 65.12 51.7949C65.1296 51.9491 65.1931 52.1135 65.3094 52.2834C65.3865 52.3964 65.4102 52.4849 65.3676 52.6251C65.2606 52.9744 65.1537 53.7395 65.3596 54.3501C65.1691 54.4 65.0599 54.3794 65.0574 54.1017C65.0564 53.9983 64.9782 53.9454 64.9311 54.0857C64.879 54.2405 64.897 54.4762 64.9227 54.5723C65.071 55.1255 65.7599 55.0604 65.9801 54.8759C66.8966 55.3851 68.2757 54.8143 68.6912 54.4498L64.3239 48.2183C64.2375 48.1018 64.0696 48.2136 64.1511 48.3371ZM65.588 54.0489C65.4598 53.7785 65.7192 53.1643 66.091 52.5392C66.0696 52.8874 66.2837 53.4203 66.5445 53.5537C66.1795 53.6515 65.7643 53.8361 65.588 54.0489Z" fill="#819DB2"/>
</svg>
