<svg width="110" height="156" viewBox="0 0 110 156" fill="none" xmlns="http://www.w3.org/2000/svg">
<path d="M0 1.55555C0 0.696445 0.696446 0 1.55556 0H107.458C108.317 0 109.014 0.696446 109.014 1.55556V154C109.014 154.859 108.317 155.556 107.458 155.556H1.55555C0.696445 155.556 0 154.859 0 154V1.55555Z" fill="white"/>
<path d="M45.1094 101.053H98.6464V107.171H45.1094V101.053Z" fill="#819DB2"/>
<path fill-rule="evenodd" clip-rule="evenodd" d="M3.11111 3.11111V152.444H105.903V3.11111H3.11111ZM1.55556 0C0.696446 0 0 0.696445 0 1.55555V154C0 154.859 0.696445 155.556 1.55555 155.556H107.458C108.317 155.556 109.014 154.859 109.014 154V1.55556C109.014 0.696446 108.317 0 107.458 0H1.55556Z" fill="#819DB2"/>
<path d="M83.3164 9.27557H29.5525V15.3936H83.3164V9.27557Z" fill="#819DB2"/>
<path d="M11.6836 31.8357H65.2206V37.9537H11.6836V31.8357Z" fill="#819DB2"/>
<path d="M79.332 32.6089H97.9987V37.2756H79.332V32.6089Z" fill="#819DB2"/>
<path d="M11.6836 52.5691H48.0924V58.6869H11.6836V52.5691Z" fill="#CBD8E0"/>
<path d="M11.6836 73.5289H48.0924V79.6467H11.6836V73.5289Z" fill="#CBD8E0"/>
<path d="M12.4414 62.1645H34.2192V68.3867H12.4414V62.1645Z" fill="#CBD8E0"/>
<path d="M62.2188 73.5289H98.6276V79.6467H62.2188V73.5289Z" fill="#CBD8E0"/>
<path d="M77.7734 52.8312H98.4164V58.949H77.7734V52.8312Z" fill="#CBD8E0"/>
<path d="M11.6836 82.5925H48.0924V88.7104H11.6836V82.5925Z" fill="#CBD8E0"/>
<path d="M45.1094 62.9924H98.6464V69.1104H45.1094V62.9924Z" fill="#819DB2"/>
<path d="M32.3242 138.334H76.4469V144.452H32.3242V138.334Z" fill="#CBD8E0"/>
<path d="M54.4414 120.917H98.5641V127.035H54.4414V120.917Z" fill="#CBD8E0"/>
<path d="M54.4414 111.942H98.5641V118.06H54.4414V111.942Z" fill="#CBD8E0"/>
<path d="M12.4414 122.831H34.2192V129.053H12.4414V122.831Z" fill="#CBD8E0"/>
<path d="M18.6641 17.0534H93.3307V23.2756H18.6641V17.0534Z" fill="#819DB2"/>
<path fill-rule="evenodd" clip-rule="evenodd" d="M37.0475 132.211C52.7246 132.211 65.4274 119.517 65.4274 103.867C65.4274 88.2161 52.7246 75.5228 37.0475 75.5228C21.3705 75.5228 8.66766 88.2161 8.66766 103.867C8.66766 119.517 21.3705 132.211 37.0475 132.211ZM37.0475 135.226C54.3866 135.226 68.4427 121.186 68.4427 103.867C68.4427 86.5475 54.3866 72.5075 37.0475 72.5075C19.7084 72.5075 5.65234 86.5475 5.65234 103.867C5.65234 121.186 19.7084 135.226 37.0475 135.226Z" fill="#819DB2"/>
<path fill-rule="evenodd" clip-rule="evenodd" d="M37.05 130.1C51.5574 130.1 63.315 118.354 63.315 103.867C63.315 89.3804 51.5574 77.6338 37.05 77.6338C22.5426 77.6338 10.785 89.3804 10.785 103.867C10.785 118.354 22.5426 130.1 37.05 130.1ZM37.05 131.608C52.3884 131.608 64.8227 119.188 64.8227 103.867C64.8227 88.5461 52.3884 76.1261 37.05 76.1261C21.7116 76.1261 9.27734 88.5461 9.27734 103.867C9.27734 119.188 21.7116 131.608 37.05 131.608Z" fill="#819DB2"/>
<path fill-rule="evenodd" clip-rule="evenodd" d="M37.0493 124.672C48.5554 124.672 57.8799 115.356 57.8799 103.867C57.8799 92.3782 48.5554 83.0618 37.0493 83.0618C25.5432 83.0618 16.2186 92.3782 16.2186 103.867C16.2186 115.356 25.5432 124.672 37.0493 124.672ZM37.0493 126.18C49.3864 126.18 59.3876 116.19 59.3876 103.867C59.3876 91.5439 49.3864 81.5541 37.0493 81.5541C24.7121 81.5541 14.7109 91.5439 14.7109 103.867C14.7109 116.19 24.7121 126.18 37.0493 126.18Z" fill="#819DB2"/>
<path fill-rule="evenodd" clip-rule="evenodd" d="M37.0459 127.537C50.1358 127.537 60.7444 116.939 60.7444 103.868C60.7444 90.7971 50.1358 80.1982 37.0459 80.1982C23.956 80.1982 13.3475 90.7971 13.3475 103.868C13.3475 116.939 23.956 127.537 37.0459 127.537ZM37.0459 129.045C50.9669 129.045 62.252 117.773 62.252 103.868C62.252 89.9628 50.9669 78.6906 37.0459 78.6906C23.125 78.6906 11.8398 89.9628 11.8398 103.868C11.8398 117.773 23.125 129.045 37.0459 129.045Z" fill="#819DB2"/>
<path fill-rule="evenodd" clip-rule="evenodd" d="M37.046 123.768C48.0519 123.768 56.9711 114.856 56.9711 103.867C56.9711 92.8781 48.0519 83.9667 37.046 83.9667C26.0401 83.9667 17.1209 92.8781 17.1209 103.867C17.1209 114.856 26.0401 123.768 37.046 123.768ZM37.046 125.275C48.883 125.275 58.4787 115.691 58.4787 103.867C58.4787 92.0438 48.883 82.459 37.046 82.459C25.209 82.459 15.6133 92.0438 15.6133 103.867C15.6133 115.691 25.209 125.275 37.046 125.275Z" fill="#819DB2"/>
<path fill-rule="evenodd" clip-rule="evenodd" d="M41.6007 96.968C40.9986 96.6711 40.3 96.8688 39.9309 97.1008C40.1078 96.7065 40.6505 96.2767 40.8228 96.196C40.9744 96.2107 41.4782 96.5109 41.6007 96.968ZM42.6832 94.7807C41.9029 93.1514 38.2211 95.356 36.0184 95.1653C36.1139 95.6757 36.9851 96.301 37.6925 96.4292C36.8687 97.6484 36.4079 99.7836 36.8279 102.129C36.0196 99.8876 34.553 98.2689 33.23 97.625C33.7784 97.1602 34.2208 96.1829 34.0478 95.6933C32.2355 96.9598 27.9446 96.8915 28.083 98.6928C28.1127 99.0739 28.4356 99.5804 28.667 99.6888C28.6698 99.5647 28.7453 99.1412 29.2783 98.9079C31.9731 97.731 35.4778 101.431 33.8301 103.748C33.805 103.784 33.8363 103.828 33.88 103.816L40.2256 102.116C40.2688 102.104 40.2739 102.05 40.235 102.032C37.6489 100.849 38.8339 95.8927 41.7561 95.5645C42.3349 95.4998 42.6114 95.8291 42.676 95.935C42.8221 95.7255 42.8486 95.1255 42.6832 94.7807ZM42.3114 90.6608C42.2175 90.5123 43.8632 90.067 44.1393 91.0977C44.3244 91.7885 43.4271 92.3796 43.6192 93.0964C43.7086 93.4303 44.1334 93.5789 44.2436 93.5494C43.6816 92.4665 44.892 92.7877 45.2329 92.927C44.2553 91.5302 45.5252 91.2004 45.2103 90.5241C44.9906 90.0514 43.9293 90.4964 43.4633 90.3522C42.6366 90.0964 41.3354 88.5879 41.2481 90.4685C42.5321 91.1476 42.3103 92.7128 41.0051 93.0625C41.0051 93.0625 41.0529 93.2705 41.0693 93.2837C42.6057 92.7903 42.8417 91.5008 42.3114 90.6608ZM24.9107 98.3723C25.1364 98.0812 26.0239 97.1978 26.0792 98.4165C26.1889 98.3872 26.4824 98.046 26.393 97.7122C26.2009 96.9953 25.1282 96.9321 24.9431 96.2413C24.6669 95.2106 26.3148 94.7734 26.3077 94.949C26.2689 95.9414 27.1182 96.9402 28.6954 96.5993C28.7024 96.5798 28.64 96.3758 28.64 96.3758C27.3353 96.7254 26.3605 95.4806 27.1324 94.2508C26.1165 92.6658 25.744 94.6228 25.1559 95.2576C24.8245 95.6156 23.6828 95.7608 23.7289 96.2801C23.7948 97.023 25.059 96.6739 24.9107 98.3723ZM30.098 100.05C30.4715 99.4918 31.1754 99.3137 31.6106 99.3302C31.2613 99.0769 30.5753 98.9763 30.3863 98.9924C30.2623 99.081 29.9756 99.593 30.098 100.05ZM34.0271 88.7131L33.0196 87.9907L32.5083 89.1201L33.5288 89.8911L34.0271 88.7131ZM39.1125 90.3513L38.396 89.838L38.0328 90.6406L38.7447 91.1392L39.1125 90.3513ZM48.5894 108.198L47.7107 107.657L47.2202 108.565L48.0751 109.017L48.5894 108.198ZM30.0034 92.792L29.287 92.2786L28.9238 93.0813L29.6356 93.5799L30.0034 92.792ZM29.3206 96.4316L31.3349 95.8919C33.0284 95.4381 33.5119 94.1945 33.5006 93.2314L35.2238 92.7697C35.6957 93.6094 36.7356 94.4448 38.4297 93.9909L40.444 93.4512C40.444 93.4512 40.6682 92.8787 40.6931 92.6184C40.783 91.6813 40.2701 91.393 39.677 91.5519L39.0965 92.4522L38.1436 91.9627C37.5505 92.1217 37.2505 92.6279 37.7968 93.3944C37.8666 93.4925 38.0067 93.6264 38.1363 93.7424C37.3952 93.8357 36.3519 93.5909 35.8709 92.5963C35.8709 92.5963 36.1742 91.6158 36.2158 91.2408C36.3649 89.8924 35.623 89.5563 34.7336 89.7946L33.947 91.4521L32.4371 90.4099C31.5478 90.6482 31.0733 91.3102 31.8771 92.4034C32.1002 92.7075 32.8536 93.4049 32.8536 93.4049C32.9338 94.5068 32.1526 95.2405 31.4642 95.5302C31.5191 95.3648 31.5729 95.1789 31.5843 95.0591C31.6736 94.1222 31.1617 93.8336 30.5681 93.9927L29.9876 94.8929L29.0347 94.4035C28.4411 94.5626 28.1421 95.0685 28.688 95.8352C28.8398 96.0482 29.3206 96.4316 29.3206 96.4316ZM51.8185 97.0954C51.4823 97.3965 49.4878 99.0762 46.4601 99.4638C46.453 99.3163 46.4411 99.1691 46.4243 99.0224C48.3065 98.2687 49.7989 97.5154 50.6561 96.6851C51.6331 95.7384 51.7265 94.0782 50.8427 93.0984C50.8201 93.0738 50.7771 93.0799 50.7627 93.1094C50.5431 93.5601 49.1281 96.2677 46.1627 97.7861C46.111 97.6253 46.0525 97.4667 45.9875 97.3109C47.2834 96.0347 48.5077 94.6364 48.9736 93.5329C49.6777 91.8646 49.1071 90.1303 47.8446 89.5063C47.8316 89.5001 47.8164 89.4997 47.8031 89.5054C47.7898 89.5111 47.7796 89.5222 47.7751 89.5359C47.5947 90.1558 45.8791 95.8581 43.1223 98.8599C43.0887 98.8967 43.0546 98.9331 43.02 98.969C42.9404 99.0523 42.9632 99.1788 43.064 99.2307C43.54 99.4752 43.9076 99.8946 44.0513 100.431C44.3012 101.363 43.7901 102.332 42.885 102.754C42.4271 102.977 41.7228 103.137 40.994 103.095C40.9612 103.093 40.9354 103.122 40.9435 103.152L41.7349 106.106C41.7476 106.153 41.8231 106.146 41.828 106.095C41.946 104.908 43.1031 104.353 43.6359 104.21C44.1365 105.311 44.7348 106.174 45.3174 106.568C46.2657 107.209 47.4457 106.88 47.804 106.166C47.8099 106.154 47.8101 106.14 47.8045 106.128C47.7989 106.116 47.7881 106.107 47.7753 106.104C47.4274 106.012 45.419 105.415 44.6088 103.772C44.7325 103.689 44.8512 103.6 44.9618 103.503C45.7654 104.275 46.7956 104.878 47.5319 105.017C48.7685 105.249 49.7032 104.725 49.942 103.836C49.9508 103.804 49.9221 103.776 49.8885 103.782C49.1961 103.909 46.9561 103.87 45.6812 102.655C45.7576 102.535 45.8309 102.411 45.8957 102.283C47.0116 102.74 48.4892 103.013 49.4615 102.889C50.5993 102.744 51.7494 102.06 51.4375 100.776C51.4311 100.75 51.4026 100.735 51.3761 100.744C50.9919 100.872 48.4382 101.677 46.3138 101.113C46.3452 100.975 46.3717 100.835 46.3932 100.694C46.3932 100.694 49.3514 100.606 50.6112 100.035C51.8632 99.4681 52.3688 98.286 51.8951 97.1109C51.8828 97.0818 51.8427 97.0736 51.8185 97.0954ZM27.7895 105.679C27.8786 105.79 27.9716 105.898 28.0682 106.002C26.5107 107.552 23.8979 108.133 23.4996 108.214C23.4716 108.219 23.4547 108.247 23.4619 108.272C23.8346 109.54 25.1718 109.557 26.2295 109.114C27.1332 108.735 28.277 107.76 29.0147 106.806C29.1354 106.885 29.2603 106.955 29.3865 107.021C28.8894 108.711 26.9695 109.865 26.3062 110.101C26.2742 110.112 26.264 110.151 26.2869 110.174C26.9381 110.824 28.0098 110.811 28.9652 109.992C29.5331 109.504 30.1236 108.466 30.4335 107.396C30.5781 107.424 30.7254 107.442 30.8737 107.453C30.9935 109.28 29.5525 110.801 29.2974 111.055C29.288 111.064 29.2831 111.077 29.2842 111.09C29.2854 111.104 29.2924 111.116 29.3033 111.123C29.971 111.563 31.1578 111.257 31.6586 110.228C31.966 109.595 32.0522 108.549 31.9352 107.345C32.4685 107.202 33.7477 107.105 34.4436 108.074C34.4735 108.115 34.5426 108.084 34.5298 108.036L33.7384 105.083C33.7303 105.052 33.6933 105.041 33.6658 105.059C33.0556 105.459 32.3658 105.673 31.8584 105.709C30.8626 105.796 29.9359 105.213 29.686 104.28C29.5423 103.744 29.6512 103.196 29.9408 102.746C30.0028 102.651 29.9587 102.531 29.8486 102.498C29.8004 102.484 29.7524 102.47 29.7045 102.455C25.8185 101.234 21.4841 97.157 21.0143 96.7075C20.9925 96.6865 20.9547 96.6911 20.9376 96.7165C20.1579 97.8882 20.5303 99.6751 21.974 100.767C22.9292 101.49 24.6885 102.089 26.4485 102.546C26.4703 102.714 26.4991 102.88 26.5349 103.045C23.2103 103.213 20.6336 101.578 20.2143 101.296C20.1863 101.277 20.1449 101.294 20.1381 101.326C19.8639 102.617 20.7745 104.007 22.093 104.338C23.2505 104.629 24.9196 104.535 26.9265 104.247C26.9853 104.382 27.0486 104.516 27.1162 104.647C24.3033 105.824 21.7378 105.369 21.2927 105.275C21.2596 105.268 21.2292 105.296 21.2338 105.328C21.4117 106.582 22.4397 107.352 23.8076 107.217C25.1837 107.082 27.7895 105.679 27.7895 105.679ZM48.325 109.95L47.0977 109.424C46.7578 109.773 46.563 110.236 46.5677 110.715C45.9809 110.964 44.2196 111.04 44.3156 110.752C45.4509 107.701 43.6485 106.549 41.9965 107.082L42.4577 108.803C42.6057 109.356 42.2434 109.933 41.6492 110.092L40.4927 110.402C39.6631 110.625 39.3465 111.603 39.3465 111.603C39.3465 111.603 38.583 110.914 37.7534 111.136L36.5968 111.446C36.0023 111.605 35.4009 111.287 35.2528 110.734L34.7917 109.013C33.0942 109.377 32.1083 111.276 34.6174 113.35C34.8424 113.55 33.2378 114.396 32.41 114.512C32.1403 114.35 31.7987 114.294 31.4577 114.385C31.3127 114.424 31.1758 114.488 31.0534 114.575C31.0534 114.575 27.105 112.437 27.0395 112.423L27.0493 112.356C27.1387 111.973 26.7664 111.681 26.5997 111.753C26.7365 111.457 26.4622 110.395 25.2779 110.45C25.3676 110.654 25.5006 111.084 25.5006 111.084C25.5006 111.084 24.5121 110.848 24.1865 111.367C23.9264 111.92 24.6743 112.597 24.6743 112.597C24.6743 112.597 24.2353 112.726 24.0126 112.766C24.623 113.763 25.6763 113.399 25.8514 113.123C25.8824 113.299 26.3366 113.44 26.6128 113.155L26.7386 113.047C26.7732 113.074 30.6171 115.15 30.6171 115.15C30.5322 115.397 30.534 115.672 30.6535 115.933C30.8408 116.341 31.2919 116.599 31.7714 116.57C32.1098 116.548 32.3951 116.405 32.5994 116.198L33.6133 116.734C33.7031 116.78 33.8118 116.795 33.9188 116.758C34.1138 116.692 34.2193 116.491 34.1548 116.31C34.1263 116.229 34.0645 116.168 33.9912 116.13C33.9743 116.119 32.9579 115.582 32.9579 115.582C33.5032 114.931 34.6655 114.264 35.704 113.985C35.8865 113.936 35.9309 113.759 35.8274 113.625C35.0538 112.619 35.8457 111.529 37.0709 111.915C37.6053 112.084 38.2225 112.533 38.828 113.395C37.2225 114.271 35.3737 115.994 35.2726 117.361C35.234 117.889 35.965 118.398 36.6741 118.35C36.6867 118.349 36.6986 118.344 36.7071 118.334C36.7156 118.325 36.7199 118.313 36.7192 118.3C36.5711 116.339 38.2054 114.411 39.1864 113.895C39.2766 114.022 39.2472 113.981 39.3372 114.107C38.3441 114.949 37.545 116.379 37.5914 117.812C37.6124 118.469 38.4503 118.841 39.0598 118.841C39.0905 118.841 39.1132 118.814 39.1074 118.786C38.7585 117.051 39.1235 115.401 39.6216 114.561C39.6746 114.685 39.7232 114.81 39.7672 114.938C39.7672 114.938 39.5922 117.048 39.9685 118.452C40.1436 119.106 41.2368 119.302 41.3974 119.327C41.5596 119.215 42.4078 118.499 42.2328 117.846C41.8564 116.441 40.6499 114.701 40.6499 114.701C40.6245 114.569 40.6039 114.436 40.588 114.302C41.4388 114.78 42.5804 116.026 43.145 117.703C43.154 117.73 43.1881 117.743 43.214 117.728C43.7424 117.423 44.2815 116.682 43.972 116.103C43.295 114.839 41.8886 114 40.6071 113.766C40.6215 113.612 40.6166 113.663 40.6314 113.508C41.7395 113.464 44.1186 114.317 44.9705 116.089C44.9763 116.1 44.9863 116.109 44.9983 116.113C45.0103 116.117 45.0234 116.115 45.0346 116.11C45.6722 115.797 46.0516 114.99 45.7533 114.553C44.9833 113.419 42.5203 112.852 40.692 112.896C40.7857 111.846 41.0957 111.149 41.4741 110.736C42.3412 109.788 43.5724 110.337 43.4051 111.594C43.3827 111.762 43.5094 111.894 43.6924 111.845C44.8671 111.53 46.4279 111.567 47.1531 111.982C47.6663 112.433 48.4366 112.603 49.1796 112.324C50.0238 112.007 50.5563 111.166 50.4382 110.334C50.3344 109.606 49.7998 109.07 49.1256 108.881L48.325 109.95ZM39.4767 106.812C39.8021 106.581 40.3972 106.538 40.5177 107.065C40.5447 107.184 40.7105 107.14 40.6901 107.016C40.589 106.206 40.0011 106.123 39.4737 106.362C39.3331 106.112 39.2141 105.892 39.0878 105.677C38.9865 105.502 38.8731 105.154 39.0909 105.096C39.2084 105.064 39.2492 105.406 39.2763 105.55C39.2997 105.677 39.3645 105.74 39.4663 105.717C39.5299 105.702 39.587 105.601 39.6194 105.535C39.8398 105.093 39.7648 104.521 39.3232 104.353C38.9535 104.212 38.2225 104.586 38.0948 104.963C38.0305 104.851 37.8234 104.694 37.7264 104.627C37.6321 104.562 37.5979 104.509 37.6773 104.409C37.7146 104.36 37.8183 104.182 37.7794 104.037C37.7563 103.951 37.6473 103.81 37.4358 103.867C37.2689 103.911 37.1143 104.077 37.1834 104.334C37.1987 104.392 37.2292 104.449 37.2838 104.505C37.1736 104.516 36.8891 104.6 36.7517 104.676L40.2813 109.712C40.7865 109.269 41.0913 108.7 40.9605 108.211C40.849 107.795 40.273 108.098 40.0622 108.502C39.8252 108 39.6094 107.536 39.3862 107.075C39.3249 106.948 39.3799 106.881 39.4767 106.812ZM35.5847 103.791L36.3301 104.864C35.9875 105.049 35.4706 105.473 35.5652 105.827C35.6913 106.297 36.6055 106.38 37.077 106.215C37.0818 106.328 37.1351 106.417 37.2333 106.484C37.0587 106.531 36.7509 106.7 36.674 106.846C36.3551 106.676 35.9327 106.697 35.7817 106.893C35.63 107.089 35.6905 107.338 35.9644 107.564C36.1549 107.72 36.258 107.897 36.1621 108.162C36.7422 108.007 36.3264 107.31 36.5536 107.249C36.5632 107.403 36.6267 107.568 36.743 107.738C36.8201 107.851 36.8438 107.939 36.8012 108.079C36.6942 108.429 36.5873 109.194 36.7932 109.804C36.6027 109.854 36.4935 109.834 36.491 109.556C36.49 109.453 36.4118 109.4 36.3647 109.54C36.3126 109.695 36.3306 109.93 36.3563 110.026C36.5046 110.58 37.1935 110.515 37.4137 110.33C38.3302 110.839 39.7093 110.268 40.1247 109.904L35.7575 103.672C35.671 103.556 35.5032 103.668 35.5847 103.791ZM37.0216 109.503C36.8934 109.233 37.1528 108.619 37.5246 107.993C37.5032 108.342 37.7172 108.874 37.9781 109.008C37.6131 109.106 37.1979 109.29 37.0216 109.503Z" fill="#819DB2"/>
</svg>
