<svg width="100" height="100" viewBox="0 0 100 100" fill="none" xmlns="http://www.w3.org/2000/svg">
<g clip-path="url(#clip0_5265_4526)">
<path d="M50 0C22.4308 0 0 22.4308 0 50C0 77.5692 22.4308 100 50 100C77.5692 100 100 77.5692 100 50C100 22.4308 77.5692 0 50 0Z" fill="#4CAF50"/>
<path fill-rule="evenodd" clip-rule="evenodd" d="M33 50.2212C33 40.8644 40.5851 33.2793 49.9419 33.2793C59.2986 33.2793 66.8837 40.8644 66.8837 50.2212C66.8837 59.5779 59.2986 67.163 49.9419 67.163C40.5851 67.163 33 59.5779 33 50.2212ZM49.9419 27.2793C37.2714 27.2793 27 37.5507 27 50.2212C27 62.8916 37.2714 73.163 49.9419 73.163C62.6123 73.163 72.8837 62.8916 72.8837 50.2212C72.8837 37.5507 62.6123 27.2793 49.9419 27.2793Z" fill="white"/>
<rect x="58.9766" y="65.8057" width="7" height="17.6811" rx="3.5" transform="rotate(-42.6149 58.9766 65.8057)" fill="white"/>
</g>
<defs>
<clipPath id="clip0_5265_4526">
<rect width="100" height="100" fill="white"/>
</clipPath>
</defs>
</svg>
