<svg width="110" height="156" viewBox="0 0 110 156" fill="none" xmlns="http://www.w3.org/2000/svg">
<path d="M0 1.55555C0 0.696445 0.696446 0 1.55556 0H107.458C108.317 0 109.014 0.696446 109.014 1.55556V154C109.014 154.859 108.317 155.556 107.458 155.556H1.55555C0.696445 155.556 0 154.859 0 154V1.55555Z" fill="white"/>
<path fill-rule="evenodd" clip-rule="evenodd" d="M3.11111 3.11111V152.444H105.903V3.11111H3.11111ZM1.55556 0C0.696446 0 0 0.696445 0 1.55555V154C0 154.859 0.696445 155.556 1.55555 155.556H107.458C108.317 155.556 109.014 154.859 109.014 154V1.55556C109.014 0.696446 108.317 0 107.458 0H1.55556Z" fill="#819DB2"/>
<g clip-path="url(#clip0_5265_8864)">
<path d="M42.8805 115.872C42.8805 128.887 32.3177 139.438 19.2879 139.438C6.25808 139.438 -4.30469 128.887 -4.30469 115.872C-4.30469 102.857 6.25808 92.3066 19.2879 92.3066C32.3177 92.3066 42.8805 102.857 42.8805 115.872Z" fill="white"/>
<path fill-rule="evenodd" clip-rule="evenodd" d="M19.2881 93.4393C6.88272 93.4393 -3.17158 103.484 -3.17158 115.872C-3.17158 128.26 6.88272 138.305 19.2881 138.305C31.6934 138.305 41.7477 128.26 41.7477 115.872C41.7477 103.484 31.6934 93.4393 19.2881 93.4393ZM-5.4375 115.872C-5.4375 102.23 5.63373 91.1733 19.2881 91.1733C32.9424 91.1733 44.0136 102.23 44.0136 115.872C44.0136 129.514 32.9424 140.57 19.2881 140.57C5.63373 140.57 -5.4375 129.514 -5.4375 115.872Z" fill="#819DB2"/>
<path d="M40.1587 115.872C40.1587 127.386 30.8147 136.719 19.2883 136.719C7.76195 136.719 -1.58203 127.386 -1.58203 115.872C-1.58203 104.359 7.76195 95.0259 19.2883 95.0259C30.8147 95.0259 40.1587 104.359 40.1587 115.872Z" fill="white"/>
<path fill-rule="evenodd" clip-rule="evenodd" d="M19.2884 95.5919C8.07427 95.5919 -1.01548 104.672 -1.01548 115.872C-1.01548 127.072 8.07427 136.152 19.2884 136.152C30.5025 136.152 39.5923 127.072 39.5923 115.872C39.5923 104.672 30.5025 95.5919 19.2884 95.5919ZM-2.14844 115.872C-2.14844 104.045 7.44978 94.459 19.2884 94.459C31.127 94.459 40.7253 104.045 40.7253 115.872C40.7253 127.699 31.127 137.285 19.2884 137.285C7.44978 137.285 -2.14844 127.699 -2.14844 115.872Z" fill="#819DB2"/>
<path d="M36.0732 115.872C36.0732 125.132 28.5576 132.639 19.2866 132.639C10.0156 132.639 2.5 125.132 2.5 115.872C2.5 106.612 10.0156 99.1045 19.2866 99.1045C28.5576 99.1045 36.0732 106.612 36.0732 115.872Z" fill="white"/>
<path fill-rule="evenodd" clip-rule="evenodd" d="M19.2867 99.671C10.3279 99.671 3.06655 106.925 3.06655 115.872C3.06655 124.819 10.3279 132.073 19.2867 132.073C28.2454 132.073 35.5068 124.819 35.5068 115.872C35.5068 106.925 28.2454 99.671 19.2867 99.671ZM1.93359 115.872C1.93359 106.298 9.70345 98.5381 19.2867 98.5381C28.8699 98.5381 36.6398 106.298 36.6398 115.872C36.6398 125.446 28.8699 133.206 19.2867 133.206C9.70345 133.206 1.93359 125.446 1.93359 115.872Z" fill="#819DB2"/>
<path d="M38.231 115.873C38.231 126.322 29.7505 134.793 19.2893 134.793C8.82813 134.793 0.347656 126.322 0.347656 115.873C0.347656 105.423 8.82813 96.9526 19.2893 96.9526C29.7505 96.9526 38.231 105.423 38.231 115.873Z" fill="white"/>
<path fill-rule="evenodd" clip-rule="evenodd" d="M19.2894 97.5192C9.14045 97.5192 0.914211 105.737 0.914211 115.873C0.914211 126.008 9.14045 134.226 19.2894 134.226C29.4383 134.226 37.6646 126.008 37.6646 115.873C37.6646 105.737 29.4383 97.5192 19.2894 97.5192ZM-0.21875 115.873C-0.21875 105.11 8.51596 96.3862 19.2894 96.3862C30.0628 96.3862 38.7975 105.11 38.7975 115.873C38.7975 126.635 30.0628 135.359 19.2894 135.359C8.51596 135.359 -0.21875 126.635 -0.21875 115.873Z" fill="#819DB2"/>
<path d="M35.3919 115.872C35.3919 124.757 28.1809 131.959 19.2858 131.959C10.3906 131.959 3.17969 124.757 3.17969 115.872C3.17969 106.987 10.3906 99.7842 19.2858 99.7842C28.1809 99.7842 35.3919 106.987 35.3919 115.872Z" fill="white"/>
<path fill-rule="evenodd" clip-rule="evenodd" d="M19.2858 100.351C10.7029 100.351 3.74624 107.3 3.74624 115.872C3.74624 124.443 10.7029 131.393 19.2858 131.393C27.8687 131.393 34.8255 124.443 34.8255 115.872C34.8255 107.3 27.8687 100.351 19.2858 100.351ZM2.61328 115.872C2.61328 106.673 10.0785 99.2178 19.2858 99.2178C28.4932 99.2178 35.9584 106.673 35.9584 115.872C35.9584 125.07 28.4932 132.526 19.2858 132.526C10.0785 132.526 2.61328 125.07 2.61328 115.872Z" fill="#819DB2"/>
<path fill-rule="evenodd" clip-rule="evenodd" d="M15.8598 123.959L22.2649 112.878L24.297 114.05L25.2044 112.48L23.1722 111.308L23.6222 110.53L25.6513 111.7L26.5587 110.13L24.5573 108.912L24.5891 108.857L23.0175 107.951L23.0073 107.968L22.2862 107.529L19.7906 108.32L22.0506 109.624L21.6006 110.402L19.3437 109.1L18.4363 110.67L20.6933 111.972L14.2882 123.053L15.8598 123.959Z" fill="#819DB2"/>
<path fill-rule="evenodd" clip-rule="evenodd" d="M12.4894 110.076L10.1251 114.514L12.43 115.843L13.3367 114.275L24.9275 120.959C25.5781 121.334 26.4103 121.111 26.7861 120.461C27.162 119.811 26.9392 118.979 26.2886 118.604L14.6978 111.92L15.8327 109.956L12.4894 110.076Z" fill="#819DB2"/>
</g>
<path d="M53.7656 9.51709H0.0017352V15.6351H53.7656V9.51709Z" fill="#819DB2"/>
<path d="M19.7344 9.51709H-0.00124986V15.6349H19.7344V9.51709Z" fill="#819DB2"/>
<path d="M11.6836 31.8359H65.2206V37.9539H11.6836V31.8359Z" fill="#819DB2"/>
<path d="M11.6836 52.5693H48.0924V58.6872H11.6836V52.5693Z" fill="#CBD8E0"/>
<path d="M11.6836 73.5288H48.0924V79.6466H11.6836V73.5288Z" fill="#CBD8E0"/>
<path d="M11.6836 41.5791H32.3266V47.6969H11.6836V41.5791Z" fill="#CBD8E0"/>
<path d="M11.6836 82.5928H48.0924V88.7106H11.6836V82.5928Z" fill="#CBD8E0"/>
<path d="M11.6836 62.9927H65.2206V69.1107H11.6836V62.9927Z" fill="#819DB2"/>
<path d="M32.3281 138.334H76.4508V144.452H32.3281V138.334Z" fill="#CBD8E0"/>
<path d="M59.6602 122.473H103.783V128.591H59.6602V122.473Z" fill="#CBD8E0"/>
<path d="M11.6836 22.999H65.2206V29.117H11.6836V22.999Z" fill="#819DB2"/>
<path d="M102.76 21.0729C102.76 29.2696 96.1075 35.9143 87.9014 35.9143C79.6953 35.9143 73.043 29.2696 73.043 21.0729C73.043 12.8762 79.6953 6.23145 87.9014 6.23145C96.1075 6.23145 102.76 12.8762 102.76 21.0729Z" fill="white"/>
<path fill-rule="evenodd" clip-rule="evenodd" d="M87.9018 7.00917C80.1245 7.00917 73.8212 13.3065 73.8212 21.0728C73.8212 28.8391 80.1245 35.1365 87.9018 35.1365C95.6792 35.1365 101.982 28.8391 101.982 21.0728C101.982 13.3065 95.6792 7.00917 87.9018 7.00917ZM72.2656 21.0728C72.2656 12.4457 79.267 5.45361 87.9018 5.45361C96.5366 5.45361 103.538 12.4457 103.538 21.0728C103.538 29.6999 96.5366 36.692 87.9018 36.692C79.267 36.692 72.2656 29.6999 72.2656 21.0728Z" fill="#819DB2"/>
<path d="M99.815 21.1858C99.815 27.7557 94.4829 33.0816 87.9055 33.0816C81.3281 33.0816 75.9961 27.7557 75.9961 21.1858C75.9961 14.616 81.3281 9.29004 87.9055 9.29004C94.4829 9.29004 99.815 14.616 99.815 21.1858Z" fill="#CBD8E0"/>
<defs>
<clipPath id="clip0_5265_8864">
<rect width="42" height="52.8889" fill="white" transform="translate(3.10938 90.1646)"/>
</clipPath>
</defs>
</svg>
